<?xml version="1.0" encoding="utf-8"?><!DOCTYPE svg PUBLIC "-//W3C//DTD SVG 1.1//EN" "http://www.w3.org/Graphics/SVG/1.1/DTD/svg11.dtd"><svg xmlns="http://www.w3.org/2000/svg" xmlns:xlink="http://www.w3.org/1999/xlink"><symbol viewBox="0 0 30 30" id="account" xmlns="http://www.w3.org/2000/svg"><path fill="#323232" d="M24.1 22.2c0-3.5-1.4-5.8-4.6-6.7l-.5-.2h-7.8l-.5.2c-3.2.9-4.7 3.2-4.7 6.7V25h18c.1 0 .1-1.8.1-2.8zm-9-8.2c2.6 0 4.7-2 4.7-4.5S17.7 5 15.1 5s-4.7 2-4.7 4.5 2.2 4.5 4.7 4.5z"/></symbol><symbol viewBox="0 0 30 30" id="cart" xmlns="http://www.w3.org/2000/svg"><path fill-rule="evenodd" clip-rule="evenodd" fill="#323232" d="M26.9 8.5c-.3-.4-.9-.4-1-.4h-16L9.4 6c-.1-.5-.5-1-1.2-1H3.7c-.4 0-.7.2-.7.7v1.2c0 .4.3.5.7.5h3.8l2.4 11.3H23c.8 0 1-.3 1.1-.7l2.8-8.7c.2-.4.1-.6 0-.8zM11.5 20C10.1 20 9 21.1 9 22.5s1.1 2.5 2.5 2.5 2.5-1.1 2.5-2.5-1.1-2.5-2.5-2.5zm11 0c-1.4 0-2.5 1.1-2.5 2.5s1.1 2.5 2.5 2.5 2.5-1.1 2.5-2.5-1.1-2.5-2.5-2.5z"/></symbol><symbol viewBox="0 0 30 30" id="search" xmlns="http://www.w3.org/2000/svg"><path fill-rule="evenodd" clip-rule="evenodd" fill="#323232" d="M29 26.8l-8.3-8.3c3.4-4.5 3.1-11-1-15.1-4.5-4.5-11.8-4.5-16.3 0s-4.5 11.8 0 16.3c3.8 3.8 9.6 4.4 14 1.8l8.5 8.5 3.1-3.2zM4.8 18.2A9.476 9.476 0 1118.202 4.8 9.476 9.476 0 014.8 18.2z"/></symbol></svg>