<?xml version="1.0" encoding="UTF-8"?>
<svg width="48px" height="48px" viewBox="0 0 48 48" version="1.1" xmlns="http://www.w3.org/2000/svg" xmlns:xlink="http://www.w3.org/1999/xlink">
    <!-- Generator: Sketch 52.2 (67145) - http://www.bohemiancoding.com/sketch -->
    <title>icon_myeshop/oci_sachnummern</title>
    <desc>Created with Sketch.</desc>
    <g id="icon_myeshop/oci_sachnummern" stroke="none" stroke-width="1" fill="none" fill-rule="evenodd">
        <g id="sachnummern" transform="translate(3.840000, 0.000000)">
            <g id="Group">
                <polygon id="Path" fill="#FFFFFF" points="9.6 2.496 1.92 8.832 1.92 45.312 17.28 45.312 17.28 8.832"></polygon>
                <path d="M17.28,46.08 L1.92,46.08 C1.536,46.08 1.344,45.696 1.344,45.312 L1.344,8.832 C1.344,8.64 1.344,8.448 1.536,8.256 L9.216,1.92 C9.408,1.728 9.792,1.728 10.176,1.92 L17.856,8.256 C18.048,8.448 18.048,8.64 18.048,8.832 L18.048,45.312 C18.048,45.696 17.664,46.08 17.28,46.08 Z M2.688,44.544 L16.704,44.544 L16.704,9.216 L9.6,3.456 L2.688,9.216 L2.688,44.544 Z" id="Shape" fill="#818181" fill-rule="nonzero"></path>
            </g>
            <g id="Group" transform="translate(5.760000, 5.760000)">
                <circle id="Oval" fill="#FFFFFF" cx="3.84" cy="3.84" r="2.112"></circle>
                <path d="M3.84,6.72 C2.304,6.72 0.96,5.376 0.96,3.84 C0.96,2.304 2.304,0.96 3.84,0.96 C5.376,0.96 6.72,2.304 6.72,3.84 C6.72,5.376 5.376,6.72 3.84,6.72 Z M3.84,2.496 C3.072,2.496 2.496,3.072 2.496,3.84 C2.496,4.608 3.072,5.184 3.84,5.184 C4.608,5.184 5.184,4.608 5.184,3.84 C5.376,3.072 4.608,2.496 3.84,2.496 Z" id="Shape" fill="#818181" fill-rule="nonzero"></path>
            </g>
            <g id="Group" transform="translate(9.600000, 7.680000)">
                <circle id="Oval" fill="#FFFFFF" cx="14.784" cy="14.784" r="13.632"></circle>
                <path d="M14.784,29.184 C6.72,29.184 0.192,22.656 0.192,14.592 C0.192,6.528 6.72,0 14.784,0 C22.848,0 29.376,6.528 29.376,14.592 C29.376,22.656 22.848,29.184 14.784,29.184 Z M14.784,1.92 C7.872,1.92 2.112,7.68 2.112,14.592 C2.112,21.504 7.872,27.264 14.784,27.264 C21.696,27.264 27.456,21.504 27.456,14.592 C27.456,7.68 21.696,1.92 14.784,1.92 Z" id="Shape" fill="#FF7000" fill-rule="nonzero"></path>
            </g>
            <g id="Group" transform="translate(13.440000, 17.280000)" fill="#FF7000">
                <rect id="Rectangle" x="1.344" y="1.728" width="14.016" height="1.536"></rect>
                <rect id="Rectangle" x="6.72" y="7.296" width="14.016" height="1.536"></rect>
            </g>
            <path d="M31.296,28.8 C31.104,28.416 31.296,28.224 31.488,28.032 L34.176,25.344 L31.488,22.848 C31.104,22.464 31.104,22.272 31.488,21.888 C31.872,21.504 32.064,21.696 32.448,21.888 L35.52,24.96 C35.712,25.344 35.712,25.728 35.52,25.92 L32.448,29.184 C32.256,29.376 32.064,29.568 31.872,29.376 C31.68,29.184 31.488,29.184 31.296,28.8 Z" id="Path" fill="#FF7000"></path>
            <path d="M17.088,23.616 C16.896,23.616 16.704,23.616 16.512,23.424 L13.44,20.16 C13.248,19.968 13.248,19.584 13.44,19.2 L16.512,16.128 C16.896,15.744 17.28,15.744 17.472,16.128 C17.856,16.512 17.856,16.704 17.472,17.088 L14.784,19.584 L17.472,22.272 C17.664,22.464 17.856,22.848 17.664,23.04 C17.472,23.424 17.28,23.616 17.088,23.616 Z" id="Path" fill="#FF7000"></path>
            <g id="Group" transform="translate(5.760000, 32.640000)" fill="#818181">
                <path d="M2.304,10.176 C2.304,10.176 2.304,10.176 2.304,10.176 C1.92,10.176 1.728,9.984 1.92,9.6 L2.88,0.576 C2.88,0.384 3.072,0.192 3.456,0.192 C3.648,0.192 3.84,0.384 3.84,0.768 L2.88,9.792 C2.688,9.984 2.496,10.176 2.304,10.176 Z" id="Path"></path>
                <path d="M4.992,10.176 C4.992,10.176 4.992,10.176 4.992,10.176 C4.608,10.176 4.416,9.984 4.608,9.6 L5.76,0.576 C5.76,0.384 5.952,0.192 6.336,0.192 C6.528,0.192 6.72,0.384 6.72,0.768 L5.568,9.792 C5.376,10.176 5.184,10.176 4.992,10.176 Z" id="Path"></path>
                <path d="M7.296,3.84 L0.768,3.84 C0.576,3.84 0.384,3.648 0.384,3.456 C0.384,3.264 0.576,3.072 0.768,3.072 L7.296,3.072 C7.488,3.072 7.68,3.264 7.68,3.456 C7.68,3.648 7.488,3.84 7.296,3.84 Z" id="Path"></path>
                <path d="M7.296,7.104 L0.768,7.104 C0.576,7.104 0.384,6.912 0.384,6.72 C0.384,6.528 0.576,6.336 0.768,6.336 L7.296,6.336 C7.488,6.336 7.68,6.528 7.68,6.72 C7.68,6.912 7.488,7.104 7.296,7.104 Z" id="Path"></path>
            </g>
        </g>
    </g>
</svg>