<?xml version="1.0" encoding="UTF-8"?>
<svg width="48px" height="48px" viewBox="0 0 48 48" version="1.1" xmlns="http://www.w3.org/2000/svg" xmlns:xlink="http://www.w3.org/1999/xlink">
    <!-- Generator: Sketch 64 (93537) - https://sketch.com -->
    <title>icon_myeshop/zugenehmigen</title>
    <desc>Created with Sketch.</desc>
    <defs>
        <path d="M1.76199759,0 C1.686,0 1.609,0.009 1.534,0.027 L1.534,0.027 C1.071,0.135 0.761,0.548 0.761997588,1.003 L0.761997588,1.003 C0.763,1.078 0.771,1.154 0.789,1.229 L0.789,1.229 L4.318,16.229 C4.425,16.68 4.828,17 5.292,17 L5.292,17 L28.273,17 C28.707,17 29.09,16.72 29.224,16.308 L29.224,16.308 L34.077,1.308 C34.109,1.209 34.126,1.104 34.126,1 L34.126,1 C34.126,0.448 33.677,0 33.126,0 L33.126,0" id="path-1"/>
        <path d="M1.762,0 C1.686,0 1.609,0.009 1.534,0.027 L1.534,0.027 C0.996,0.153 0.663,0.691 0.789,1.229 L0.789,1.229 L4.318,16.229 C4.425,16.68 4.828,17 5.292,17 L5.292,17 L28.273,17 C28.707,17 29.09,16.72 29.224,16.308 L29.224,16.308 L34.077,1.308 C34.109,1.209 34.126,1.104 34.126,1 L34.126,1 C34.126,0.448 33.677,0 33.126,0 L33.126,0 L1.762,0 Z" id="path-3"/>
        <path d="M-0.001,4.5 C-0.001,6.985 2.015,9 4.499,9 L4.499,9 C6.985,9 8.999,6.985 8.999,4.5 L8.999,4.5 C8.999,2.014 6.985,0 4.499,0 L4.499,0 C2.015,0 -0.001,2.014 -0.001,4.5" id="path-5"/>
        <path d="M-0.001,4.5 C-0.001,6.985 2.015,9 4.499,9 L4.499,9 C6.985,9 8.999,6.985 8.999,4.5 L8.999,4.5 C8.999,2.014 6.985,0 4.499,0 L4.499,0 C2.015,0 -0.001,2.014 -0.001,4.5" id="path-7"/>
        <path d="M0,4.5 C0,6.985 2.015,9 4.5,9 L4.5,9 C6.986,9 9,6.985 9,4.5 L9,4.5 C9,2.014 6.986,0 4.5,0 L4.5,0 C2.015,0 0,2.014 0,4.5" id="path-9"/>
        <path d="M0,4.5 C0,6.985 2.015,9 4.5,9 L4.5,9 C6.986,9 9,6.985 9,4.5 L9,4.5 C9,2.014 6.986,0 4.5,0 L4.5,0 C2.015,0 0,2.014 0,4.5" id="path-11"/>
        <path d="M23.743,0.382 C23.732,0.391 23.721,0.401 23.711,0.411 L23.711,0.411 C23.705,0.417 23.699,0.423 23.692,0.429 L23.692,0.429 L11.671,12.45 L5.308,6.085 C4.917,5.696 4.284,5.696 3.893,6.085 L3.893,6.085 L0.358,9.621 C0.163,9.817 0.065,10.072 0.065,10.329 L0.065,10.329 C0.065,10.584 0.163,10.84 0.358,11.035 L0.358,11.035 L10.965,21.642 C11.355,22.032 11.989,22.032 12.378,21.642 L12.378,21.642 L28.642,5.379 C28.838,5.184 28.935,4.928 28.935,4.672 L28.935,4.672 C28.935,4.416 28.838,4.16 28.642,3.965 L28.642,3.965 L25.107,0.429 C24.912,0.234 24.655,0.136 24.4,0.136 L24.4,0.136 C24.165,0.136 23.931,0.218 23.743,0.382 L23.743,0.382 Z" id="path-13"/>
        <path d="M23.692,0.429 L11.671,12.45 L5.308,6.085 C4.917,5.696 4.284,5.696 3.893,6.085 L3.893,6.085 L0.358,9.621 C-0.033,10.012 -0.033,10.645 0.358,11.035 L0.358,11.035 L10.965,21.642 C11.355,22.032 11.989,22.032 12.378,21.642 L12.378,21.642 L28.642,5.379 C29.033,4.988 29.033,4.355 28.642,3.965 L28.642,3.965 L25.107,0.429 C24.912,0.234 24.655,0.136 24.4,0.136 L24.4,0.136 C24.143,0.136 23.888,0.234 23.692,0.429 L23.692,0.429 Z" id="path-15"/>
    </defs>
    <g id="icon_myeshop/zugenehmigen" stroke="none" stroke-width="1" fill="none" fill-rule="evenodd">
        <g id="Group-29" transform="translate(2.000000, 3.000000)">
            <g id="Group-3" transform="translate(9.000000, 14.000000)">
                <mask id="mask-2" fill="white">
                    <use xlink:href="#path-1"/>
                </mask>
                <g id="Clip-2"/>
                <path d="M1.7627,0.0001 L33.1257,0.0001 C33.6777,0.0001 34.1257,0.4481 34.1257,1.0001 C34.1257,1.1041 34.1087,1.2081 34.0767,1.3081 L29.2237,16.3081 C29.0907,16.7201 28.7067,17.0001 28.2727,17.0001 L5.2917,17.0001 C4.8277,17.0001 4.4247,16.6801 4.3187,16.2291 L0.7887,1.2291 C0.6627,0.6911 0.9957,0.1531 1.5337,0.0261 C1.6087,0.0091 1.6857,0.0001 1.7627,0.0001" id="Fill-1" fill="#FFFFFF" mask="url(#mask-2)"/>
            </g>
            <g id="Group-6" transform="translate(9.000000, 14.000000)">
                <mask id="mask-4" fill="white">
                    <use xlink:href="#path-3"/>
                </mask>
                <g id="Clip-5"/>
                <path d="M5.6879,15.4998 L27.9089,15.4998 L32.4379,1.4998 L2.3939,1.4998 L5.6879,15.4998 Z M28.2729,18.4998 L5.2919,18.4998 C4.1269,18.4998 3.1259,17.7078 2.8579,16.5738 L-0.6711,1.5728 C-0.8241,0.9228 -0.7141,0.2518 -0.3631,-0.3162 C-0.0111,-0.8832 0.5399,-1.2802 1.1909,-1.4332 C1.3769,-1.4772 1.5689,-1.5002 1.7629,-1.5002 L33.1259,-1.5002 C34.5039,-1.5002 35.6259,-0.3782 35.6259,0.9998 C35.6259,1.2628 35.5849,1.5218 35.5039,1.7718 L30.6509,16.7698 C30.3149,17.8048 29.3599,18.4998 28.2729,18.4998 L28.2729,18.4998 Z" id="Fill-4" fill="#818180" mask="url(#mask-4)"/>
            </g>
            <path d="M34.9995,39.2496 L15.9995,39.2496 C15.6545,39.2496 15.3535,39.0146 15.2715,38.6786 L8.4125,10.7496 L0.9995,10.7496 C0.5855,10.7496 0.2495,10.4146 0.2495,9.9996 C0.2495,9.5856 0.5855,9.2496 0.9995,9.2496 L8.9995,9.2496 C9.3455,9.2496 9.6455,9.4856 9.7285,9.8216 L16.5875,37.7496 L34.9995,37.7496 C35.4135,37.7496 35.7495,38.0856 35.7495,38.4996 C35.7495,38.9136 35.4135,39.2496 34.9995,39.2496" id="Fill-7" fill="#818180"/>
            <g id="Group-15" transform="translate(30.000000, 34.000000)">
                <g id="Group-11">
                    <mask id="mask-6" fill="white">
                        <use xlink:href="#path-5"/>
                    </mask>
                    <g id="Clip-10"/>
                    <path d="M4.4995,8.9996 C6.9845,8.9996 8.9995,6.9846 8.9995,4.4996 C8.9995,2.0146 6.9845,-0.0004 4.4995,-0.0004 C2.0155,-0.0004 -0.0005,2.0146 -0.0005,4.4996 C-0.0005,6.9846 2.0155,8.9996 4.4995,8.9996" id="Fill-9" fill="#FFFFFF" mask="url(#mask-6)"/>
                </g>
                <g id="Group-14">
                    <mask id="mask-8" fill="white">
                        <use xlink:href="#path-7"/>
                    </mask>
                    <g id="Clip-13"/>
                    <path d="M4.4995,1.4996 C2.8455,1.4996 1.4995,2.8456 1.4995,4.4996 C1.4995,6.1536 2.8455,7.4996 4.4995,7.4996 C6.1535,7.4996 7.4995,6.1536 7.4995,4.4996 C7.4995,2.8456 6.1535,1.4996 4.4995,1.4996 M4.4995,10.4996 C1.1905,10.4996 -1.5005,7.8086 -1.5005,4.4996 C-1.5005,1.1906 1.1905,-1.5004 4.4995,-1.5004 C7.8085,-1.5004 10.4995,1.1906 10.4995,4.4996 C10.4995,7.8086 7.8085,10.4996 4.4995,10.4996" id="Fill-12" fill="#818181" mask="url(#mask-8)"/>
                </g>
            </g>
            <g id="Group-22" transform="translate(12.000000, 34.000000)">
                <g id="Group-18">
                    <mask id="mask-10" fill="white">
                        <use xlink:href="#path-9"/>
                    </mask>
                    <g id="Clip-17"/>
                    <path d="M4.5,8.9996 C6.985,8.9996 9,6.9846 9,4.4996 C9,2.0146 6.985,-0.0004 4.5,-0.0004 C2.015,-0.0004 0,2.0146 0,4.4996 C0,6.9846 2.015,8.9996 4.5,8.9996" id="Fill-16" fill="#FFFFFF" mask="url(#mask-10)"/>
                </g>
                <g id="Group-21">
                    <mask id="mask-12" fill="white">
                        <use xlink:href="#path-11"/>
                    </mask>
                    <g id="Clip-20"/>
                    <path d="M4.5,1.4996 C2.846,1.4996 1.5,2.8456 1.5,4.4996 C1.5,6.1536 2.846,7.4996 4.5,7.4996 C6.154,7.4996 7.5,6.1536 7.5,4.4996 C7.5,2.8456 6.154,1.4996 4.5,1.4996 M4.5,10.4996 C1.191,10.4996 -1.5,7.8086 -1.5,4.4996 C-1.5,1.1906 1.191,-1.5004 4.5,-1.5004 C7.809,-1.5004 10.5,1.1906 10.5,4.4996 C10.5,7.8086 7.809,10.4996 4.5,10.4996" id="Fill-19" fill="#818180" mask="url(#mask-12)"/>
                </g>
            </g>
            <g id="Group-25" transform="translate(14.000000, 0.000000)">
                <mask id="mask-14" fill="white">
                    <use xlink:href="#path-13"/>
                </mask>
                <g id="Clip-24"/>
                <path d="M12.3784,21.6422 C11.9884,22.0332 11.3554,22.0332 10.9644,21.6422 L0.3574,11.0362 C-0.0326,10.6452 -0.0326,10.0122 0.3574,9.6212 L3.8934,6.0852 C4.2834,5.6952 4.9174,5.6952 5.3074,6.0852 L11.6714,12.4502 L23.6914,0.4292 C24.0824,0.0382 24.7164,0.0382 25.1074,0.4292 L28.6424,3.9642 C29.0324,4.3552 29.0324,4.9882 28.6424,5.3782 L12.3784,21.6422 Z" id="Fill-23" fill="#FFFFFF" mask="url(#mask-14)"/>
            </g>
            <g id="Group-28" transform="translate(14.000000, 0.000000)">
                <mask id="mask-16" fill="white">
                    <use xlink:href="#path-15"/>
                </mask>
                <g id="Clip-27"/>
                <path d="M1.772,10.3287 L11.671,20.2277 L27.228,4.6717 L24.399,1.8427 L11.671,14.5717 L4.601,7.4997 L1.772,10.3287 Z M11.671,23.4347 C11.004,23.4347 10.376,23.1757 9.904,22.7027 L-0.703,12.0967 C-1.678,11.1217 -1.678,9.5357 -0.703,8.5607 L2.833,5.0257 C3.805,4.0497 5.391,4.0497 6.368,5.0237 L11.671,10.3287 L22.631,-0.6313 C23.576,-1.5763 25.225,-1.5743 26.168,-0.6313 L29.703,2.9037 C30.175,3.3757 30.435,4.0037 30.435,4.6717 C30.435,5.3397 30.174,5.9677 29.702,6.4397 L13.439,22.7027 C12.967,23.1757 12.339,23.4347 11.671,23.4347 L11.671,23.4347 Z" id="Fill-26" fill="#FF7000" mask="url(#mask-16)"/>
            </g>
        </g>
    </g>
</svg>