<?xml version="1.0" encoding="UTF-8"?>
<svg width="48px" height="48px" viewBox="0 0 48 48" version="1.1" xmlns="http://www.w3.org/2000/svg" xmlns:xlink="http://www.w3.org/1999/xlink">
    <!-- Generator: Sketch 64 (93537) - https://sketch.com -->
    <title>icon_myeshop/bestellungen</title>
    <desc>Created with Sketch.</desc>
    <defs>
        <path d="M1,-0.001 C0.448,-0.001 0,0.448 0,1 L0,1 L0,24 C0,24.552 0.448,25 1,25 L1,25 L31,25 C31.553,25 32,24.552 32,24 L32,24 L32,1 C32,0.448 31.553,-0.001 31,-0.001 L31,-0.001" id="path-1"/>
        <path d="M1,-0.001 C0.448,-0.001 0,0.448 0,1 L0,1 L0,24 C0,24.552 0.448,25 1,25 L1,25 L31,25 C31.553,25 32,24.552 32,24 L32,24 L32,1 C32,0.448 31.553,-0.001 31,-0.001 L31,-0.001 L1,-0.001 Z" id="path-3"/>
        <path d="M1.763,0 C1.685,0 1.609,0.009 1.533,0.027 L1.533,0.027 C1.072,0.135 0.76,0.548 0.761990441,1.003 L0.761990441,1.003 C0.761990441,1.078 0.771,1.154 0.789,1.229 L0.789,1.229 L4.319,16.23 C4.425,16.68 4.828,17 5.292,17 L5.292,17 L28.272,17 C28.706,17 29.09,16.721 29.224,16.308 L29.224,16.308 L34.077,1.308 C34.11,1.209 34.125,1.104 34.125,1 L34.125,1 C34.125,0.447 33.678,0 33.125,0 L33.125,0" id="path-5"/>
        <path d="M1.763,0 C1.685,0 1.609,0.009 1.533,0.027 L1.533,0.027 C0.996,0.153 0.662,0.691 0.789,1.229 L0.789,1.229 L4.319,16.23 C4.425,16.68 4.828,17 5.292,17 L5.292,17 L28.272,17 C28.706,17 29.09,16.721 29.224,16.308 L29.224,16.308 L34.077,1.308 C34.11,1.209 34.125,1.104 34.125,1 L34.125,1 C34.125,0.447 33.678,0 33.125,0 L33.125,0 L1.763,0 Z" id="path-7"/>
        <path d="M0,4.5 C0,6.986 2.014,9 4.5,9 L4.5,9 C6.985,9 9,6.986 9,4.5 L9,4.5 C9,2.015 6.985,0 4.5,0 L4.5,0 C2.014,0 0,2.015 0,4.5" id="path-9"/>
        <path d="M0,4.5 C0,6.986 2.014,9 4.5,9 L4.5,9 C6.985,9 9,6.986 9,4.5 L9,4.5 C9,2.015 6.985,0 4.5,0 L4.5,0 C2.014,0 0,2.015 0,4.5" id="path-11"/>
        <path d="M0,4.5 C0,6.986 2.014,9 4.5,9 L4.5,9 C6.985,9 9,6.986 9,4.5 L9,4.5 C9,2.015 6.985,0 4.5,0 L4.5,0 C2.014,0 0,2.015 0,4.5" id="path-13"/>
        <path d="M0,4.5 C0,6.986 2.014,9 4.5,9 L4.5,9 C6.985,9 9,6.986 9,4.5 L9,4.5 C9,2.015 6.985,0 4.5,0 L4.5,0 C2.014,0 0,2.015 0,4.5" id="path-15"/>
    </defs>
    <g id="icon_myeshop/bestellungen" stroke="none" stroke-width="1" fill="none" fill-rule="evenodd">
        <g id="Group-36" transform="translate(2.000000, 3.000000)">
            <g id="Group-6" transform="translate(3.000000, 0.000000)">
                <g id="Group-3">
                    <mask id="mask-2" fill="white">
                        <use xlink:href="#path-1"/>
                    </mask>
                    <g id="Clip-2"/>
                    <path d="M1,-0.0001 L31,-0.0001 C31.553,-0.0001 32,0.4479 32,0.9999 L32,23.9999 C32,24.5529 31.553,24.9999 31,24.9999 L1,24.9999 C0.448,24.9999 0,24.5529 0,23.9999 L0,0.9999 C0,0.4479 0.448,-0.0001 1,-0.0001" id="Fill-1" fill="#FFFFFF" mask="url(#mask-2)"/>
                </g>
                <mask id="mask-4" fill="white">
                    <use xlink:href="#path-3"/>
                </mask>
                <g id="Clip-5"/>
                <path d="M1.5,23.5 L30.5,23.5 L30.5,1.5 L1.5,1.5 L1.5,23.5 Z M31,26.5 L1,26.5 C-0.378,26.5 -1.5,25.379 -1.5,24 L-1.5,1 C-1.5,-0.379 -0.378,-1.5 1,-1.5 L31,-1.5 C32.379,-1.5 33.5,-0.379 33.5,1 L33.5,24 C33.5,25.379 32.379,26.5 31,26.5 L31,26.5 Z" id="Fill-4" fill="#FF7000" mask="url(#mask-4)"/>
            </g>
            <g id="Group-13" transform="translate(7.000000, 5.000000)" fill="#FF7000">
                <path d="M23,2.2499 L6,2.2499 C5.586,2.2499 5.25,1.9139 5.25,1.4999 C5.25,1.0859 5.586,0.7499 6,0.7499 L23,0.7499 C23.414,0.7499 23.75,1.0859 23.75,1.4999 C23.75,1.9139 23.414,2.2499 23,2.2499" id="Fill-7"/>
                <path d="M3,2.2499 L1,2.2499 C0.586,2.2499 0.25,1.9139 0.25,1.4999 C0.25,1.0859 0.586,0.7499 1,0.7499 L3,0.7499 C3.414,0.7499 3.75,1.0859 3.75,1.4999 C3.75,1.9139 3.414,2.2499 3,2.2499" id="Fill-9"/>
                <path d="M23,7.2499 L6,7.2499 C5.586,7.2499 5.25,6.9139 5.25,6.4999 C5.25,6.0859 5.586,5.7499 6,5.7499 L23,5.7499 C23.414,5.7499 23.75,6.0859 23.75,6.4999 C23.75,6.9139 23.414,7.2499 23,7.2499" id="Fill-11"/>
            </g>
            <g id="Group-16" transform="translate(9.000000, 14.000000)">
                <mask id="mask-6" fill="white">
                    <use xlink:href="#path-5"/>
                </mask>
                <g id="Clip-15"/>
                <path d="M1.7626,-0.0001 L33.1246,-0.0001 C33.6776,-0.0001 34.1246,0.4479 34.1246,0.9999 C34.1246,1.1039 34.1096,1.2079 34.0766,1.3079 L29.2236,16.3079 C29.0906,16.7209 28.7056,16.9999 28.2726,16.9999 L5.2916,16.9999 C4.8276,16.9999 4.4246,16.6809 4.3186,16.2289 L0.7886,1.2289 C0.6626,0.6909 0.9956,0.1529 1.5336,0.0269 C1.6086,0.0089 1.6856,-0.0001 1.7626,-0.0001" id="Fill-14" fill="#FFFFFF" mask="url(#mask-6)"/>
            </g>
            <g id="Group-19" transform="translate(9.000000, 14.000000)">
                <mask id="mask-8" fill="white">
                    <use xlink:href="#path-7"/>
                </mask>
                <g id="Clip-18"/>
                <path d="M5.6879,15.4999 L27.9079,15.4999 L32.4379,1.4999 L2.3939,1.4999 L5.6879,15.4999 Z M28.2719,18.4999 L5.2919,18.4999 C4.1259,18.4999 3.1249,17.7069 2.8579,16.5719 L-0.6711,1.5729 C-0.9871,0.2309 -0.1521,-1.1181 1.1899,-1.4331 C1.3799,-1.4781 1.5719,-1.5001 1.7629,-1.5001 L33.1249,-1.5001 C34.5039,-1.5001 35.6249,-0.3781 35.6249,0.9999 C35.6249,1.2629 35.5839,1.5219 35.5039,1.7699 L30.6499,16.7699 C30.3179,17.8039 29.3619,18.4999 28.2719,18.4999 L28.2719,18.4999 Z" id="Fill-17" fill="#818180" mask="url(#mask-8)"/>
            </g>
            <path d="M35,39.2499 L16,39.2499 C15.655,39.2499 15.354,39.0149 15.271,38.6789 L8.412,10.7499 L1,10.7499 C0.586,10.7499 0.25,10.4139 0.25,9.9999 C0.25,9.5859 0.586,9.2499 1,9.2499 L9,9.2499 C9.345,9.2499 9.646,9.4859 9.729,9.8209 L16.588,37.7499 L35,37.7499 C35.414,37.7499 35.75,38.0859 35.75,38.4999 C35.75,38.9139 35.414,39.2499 35,39.2499" id="Fill-20" fill="#818180"/>
            <g id="Group-28" transform="translate(30.000000, 34.000000)">
                <g id="Group-24">
                    <mask id="mask-10" fill="white">
                        <use xlink:href="#path-9"/>
                    </mask>
                    <g id="Clip-23"/>
                    <path d="M4.5,8.9999 C6.985,8.9999 9,6.9849 9,4.4999 C9,2.0149 6.985,-0.0001 4.5,-0.0001 C2.015,-0.0001 0,2.0149 0,4.4999 C0,6.9849 2.015,8.9999 4.5,8.9999" id="Fill-22" fill="#FFFFFF" mask="url(#mask-10)"/>
                </g>
                <g id="Group-27">
                    <mask id="mask-12" fill="white">
                        <use xlink:href="#path-11"/>
                    </mask>
                    <g id="Clip-26"/>
                    <path d="M4.5,1.4999 C2.846,1.4999 1.5,2.8459 1.5,4.4999 C1.5,6.1539 2.846,7.4999 4.5,7.4999 C6.154,7.4999 7.5,6.1539 7.5,4.4999 C7.5,2.8459 6.154,1.4999 4.5,1.4999 M4.5,10.4999 C1.191,10.4999 -1.5,7.8089 -1.5,4.4999 C-1.5,1.1909 1.191,-1.5001 4.5,-1.5001 C7.809,-1.5001 10.5,1.1909 10.5,4.4999 C10.5,7.8089 7.809,10.4999 4.5,10.4999" id="Fill-25" fill="#818181" mask="url(#mask-12)"/>
                </g>
            </g>
            <g id="Group-35" transform="translate(12.000000, 34.000000)">
                <g id="Group-31">
                    <mask id="mask-14" fill="white">
                        <use xlink:href="#path-13"/>
                    </mask>
                    <g id="Clip-30"/>
                    <path d="M4.5,8.9999 C6.985,8.9999 9,6.9849 9,4.4999 C9,2.0149 6.985,-0.0001 4.5,-0.0001 C2.015,-0.0001 0,2.0149 0,4.4999 C0,6.9849 2.015,8.9999 4.5,8.9999" id="Fill-29" fill="#FFFFFF" mask="url(#mask-14)"/>
                </g>
                <g id="Group-34">
                    <mask id="mask-16" fill="white">
                        <use xlink:href="#path-15"/>
                    </mask>
                    <g id="Clip-33"/>
                    <path d="M4.5,1.4999 C2.846,1.4999 1.5,2.8459 1.5,4.4999 C1.5,6.1539 2.846,7.4999 4.5,7.4999 C6.154,7.4999 7.5,6.1539 7.5,4.4999 C7.5,2.8459 6.154,1.4999 4.5,1.4999 M4.5,10.4999 C1.191,10.4999 -1.5,7.8089 -1.5,4.4999 C-1.5,1.1909 1.191,-1.5001 4.5,-1.5001 C7.809,-1.5001 10.5,1.1909 10.5,4.4999 C10.5,7.8089 7.809,10.4999 4.5,10.4999" id="Fill-32" fill="#818180" mask="url(#mask-16)"/>
                </g>
            </g>
        </g>
    </g>
</svg>