<?xml version="1.0" encoding="UTF-8"?>
<svg width="48px" height="48px" viewBox="0 0 48 48" version="1.1" xmlns="http://www.w3.org/2000/svg" xmlns:xlink="http://www.w3.org/1999/xlink">
    <title>icon_myeshop/newsletter</title>
    <defs>
        <polygon id="path-1" points="0.0002 0.0001 40 0.0001 40 38 0.0002 38"></polygon>
        <polygon id="path-3" points="0 42 40 42 40 0 0 0"></polygon>
    </defs>
    <g id="icon_myeshop/newsletter" stroke="none" stroke-width="1" fill="none" fill-rule="evenodd">
        <g id="Group-11" transform="translate(4.000000, 3.000000)">
            <polygon id="Fill-1" fill="#FFFFFF" points="7.8291 12.8004 0.8291 17.7994 0.8291 40.8004 38.8291 40.8004 38.8291 17.7994 26.8291 9.7994"></polygon>
            <g id="Group-10">
                <g id="Group-4" transform="translate(0.000000, 4.000000)">
                    <mask id="mask-2" fill="white">
                        <use xlink:href="#path-1"></use>
                    </mask>
                    <g id="Clip-3"></g>
                    <path d="M0.4602,12.7001 C0.1742,12.8841 0.0012,13.2001 0.0002,13.5401 L0.0002,37.0001 C0.0002,37.5531 0.4482,38.0001 1.0002,38.0001 L39.0002,38.0001 C39.5532,38.0001 40.0002,37.5531 40.0002,37.0001 L40.0002,13.5401 C39.9992,13.2001 39.8272,12.8841 39.5402,12.7001 L20.0002,0.0001 L0.4602,12.7001 Z M1.5002,13.7901 L20.0002,1.7901 L38.5002,13.8101 L38.5002,36.5001 L1.5002,36.5001 L1.5002,13.7901 Z" id="Fill-2" fill="#818181" mask="url(#mask-2)"></path>
                </g>
                <mask id="mask-4" fill="white">
                    <use xlink:href="#path-3"></use>
                </mask>
                <g id="Clip-6"></g>
                <polygon id="Fill-5" fill="#FFFFFF" mask="url(#mask-4)" points="6.829 33.8 32.829 33.8 32.829 0.8 6.829 0.8"></polygon>
                <path d="M20.0002,4.9999 L19.8182,4.9999 C18.4682,5.0159 17.1472,5.4039 16.0002,6.1199 C14.7842,6.8989 13.8092,7.9989 13.1802,9.2999 C12.4592,10.7399 12.0562,12.3199 12.0002,13.9299 C11.8982,15.5109 12.1462,17.0959 12.7302,18.5699 C13.2382,19.8099 14.1242,20.8589 15.2602,21.5699 C16.4682,22.2889 17.8552,22.6529 19.2602,22.6199 C19.9132,22.6179 20.5652,22.5409 21.2002,22.3889 C21.7442,22.2689 22.2672,22.0659 22.7502,21.7899 L22.4012,20.7099 C21.9592,20.9559 21.4842,21.1339 20.9902,21.2399 C20.4342,21.3779 19.8642,21.4499 19.2902,21.4509 C18.1122,21.4849 16.9502,21.1709 15.9512,20.5499 C15.0272,19.9049 14.3292,18.9899 13.9502,17.9309 C13.4782,16.6529 13.2842,15.2879 13.3802,13.9299 C13.4212,12.5259 13.7442,11.1459 14.3312,9.8699 C14.8252,8.7669 15.6262,7.8289 16.6402,7.1699 C17.6452,6.5379 18.8132,6.2149 20.0002,6.2399 C21.7722,6.1029 23.5032,6.8109 24.6702,8.1499 C25.7782,9.7779 26.2512,11.7569 26.0002,13.7099 C26.0082,14.6699 25.7622,15.6149 25.2902,16.4499 C24.9482,17.0849 24.2912,17.4849 23.5702,17.4999 C22.6602,17.4999 22.2602,16.7699 22.3702,15.3309 L22.8612,10.1399 C22.4582,9.7999 22.0012,9.5299 21.5102,9.3399 C21.0712,9.2019 20.6122,9.1339 20.1502,9.1399 C19.4612,9.1509 18.7982,9.3979 18.2702,9.8399 C17.6422,10.3509 17.1412,11.0009 16.8102,11.7399 C16.4142,12.6139 16.1742,13.5519 16.1002,14.5099 C15.9332,15.5389 16.1132,16.5939 16.6102,17.5089 C17.0252,18.2139 17.7942,18.6329 18.6102,18.5999 C19.1012,18.6039 19.5832,18.4689 20.0002,18.2099 C20.4602,17.8999 20.8412,17.4849 21.1102,16.9999 C21.3832,18.0029 22.3362,18.6649 23.3702,18.5699 C24.4342,18.6049 25.4462,18.1149 26.0802,17.2599 C26.8062,16.2069 27.1972,14.9589 27.2012,13.6799 C27.3072,12.1039 27.0682,10.5239 26.5002,9.0489 C26.0082,7.8119 25.1372,6.7619 24.0102,6.0499 C22.9312,5.3999 21.7062,5.0389 20.4522,4.9999 L20.0002,4.9999 Z M17.8302,16.5499 C17.5652,15.9189 17.4792,15.2269 17.5802,14.5499 C17.6332,13.4769 17.9422,12.4309 18.4802,11.4999 C18.8342,10.8239 19.5272,10.3949 20.2902,10.3798318 C20.6842,10.3769 21.0732,10.4729 21.4202,10.6599 L21.0002,15.3309 L21.0002,15.4199 C20.8242,15.9339 20.5302,16.4009 20.1402,16.7789 C19.8522,17.0739 19.4612,17.2459 19.0502,17.2599 C19.0262,17.2619 19.0012,17.2619 18.9782,17.2619 C18.4932,17.2619 18.0472,16.9879 17.8302,16.5499 L17.8302,16.5499 Z" id="Fill-7" fill="#FF7000" mask="url(#mask-4)"></path>
                <path d="M7.5002,21.9672 L7.5002,2.0002 C7.5002,1.7232 7.7242,1.5002 8.0002,1.5002 L32.0002,1.5002 C32.2772,1.5002 32.5002,1.7232 32.5002,2.0002 L32.5002,21.8272 L34.0002,21.0022 L34.0002,2.0002 C34.0002,0.8952 33.1052,0.0002 32.0002,0.0002 L8.0002,0.0002 C6.8962,0.0002 6.0002,0.8952 6.0002,2.0002 L6.0002,21.1352 L7.5002,21.9672 Z" id="Fill-8" fill="#FF7000" mask="url(#mask-4)"></path>
                <path d="M39.0002,17.6898 L38.9952,17.6898 C38.8282,17.6898 38.6632,17.7348 38.5202,17.8198 L20.0002,28.0008 L1.4802,17.8198 C1.3402,17.7348 1.1782,17.6898 1.0142,17.6898 L1.0002,17.6898 C0.4482,17.6898 0.0002,18.1378 0.0002,18.6898 L0.0002,41.0008 C0.0002,41.5528 0.4482,42.0008 1.0002,42.0008 L39.0002,42.0008 C39.5532,42.0008 40.0002179,41.5528 40.0002179,41.0008 L40.0002179,18.6898 C40.0012,18.5228 39.9602,18.3568 39.8802,18.2098 C39.7042,17.8888 39.3682,17.6898 39.0032,17.6898 L39.0002,17.6898 Z M38.5002,19.4998 L38.5002,40.5008 L1.5002,40.5008 L1.5002,19.5398 L20.0002,29.7108 L38.5002,19.4998 Z" id="Fill-9" fill="#818181" mask="url(#mask-4)"></path>
            </g>
        </g>
    </g>
</svg>