<?xml version="1.0" encoding="UTF-8"?>
<svg width="48px" height="48px" viewBox="0 0 48 48" version="1.1" xmlns="http://www.w3.org/2000/svg" xmlns:xlink="http://www.w3.org/1999/xlink">
    <!-- Generator: Sketch 64 (93537) - https://sketch.com -->
    <title>icon_myeshop/lieferadressen</title>
    <desc>Created with Sketch.</desc>
    <defs>
        <path d="M11,6.737 L11,4 L5,4 L5,11.789 L0,16 L0,18 L3,18 L3,37 C3,38.104 3.896,39.001 5,39.001 L5,39.001 L33,39.001 C34.104,39.001 34.999,38.104 34.999,37 L34.999,37 L34.999,18 L38,18 L38,16 L19,0 L11,6.737 Z" id="path-1"/>
        <path d="M11,6.737 L11,4 L5,4 L5,11.789 L0,16 L0,18 L3,18 L3,37 C3,38.104 3.896,39.001 5,39.001 L5,39.001 L33,39.001 C34.104,39.001 34.999,38.104 34.999,37 L34.999,37 L34.999,18 L38,18 L38,16 L19,0 L11,6.737 Z" id="path-3"/>
        <path d="M1.999,0.001 C0.895,0.001 -0.001,0.895 -0.001,2.001 L-0.001,2.001 L-0.001,15 C-0.001,16.104 0.895,17.001 1.999,17.001 L1.999,17.001 L16,17.001 C17.104,17.001 17.999,16.104 17.999,15 L17.999,15 L17.999,11.328 C17.999,10.798 17.79,10.29 17.414,9.914 L17.414,9.914 L14,6.501 L14,2.001 C14,0.895 13.104,0.001 12,0.001 L12,0.001 L1.999,0.001 Z" id="path-5"/>
        <path d="M1.999,0.001 C0.895,0.001 -0.001,0.895 -0.001,2.001 L-0.001,2.001 L-0.001,15 C-0.001,16.104 0.895,17.001 1.999,17.001 L1.999,17.001 L16,17.001 C17.104,17.001 17.999,16.104 17.999,15 L17.999,15 L17.999,11.328 C17.999,10.798 17.79,10.29 17.414,9.914 L17.414,9.914 L14,6.501 L14,2.001 C14,0.895 13.104,0.001 12,0.001 L12,0.001 L1.999,0.001 Z" id="path-7"/>
        <path d="M0,4 C0,6.21 1.791,8.001 3.999,8.001 L3.999,8.001 C6.209,8.001 8,6.21 8,4 L8,4 C8,1.791 6.209,0.001 3.999,0.001 L3.999,0.001 C1.791,0.001 0,1.791 0,4" id="path-9"/>
        <path d="M0,4 C0,6.21 1.791,8.001 3.999,8.001 L3.999,8.001 C6.209,8.001 8,6.21 8,4 L8,4 C8,1.791 6.209,0.001 3.999,0.001 L3.999,0.001 C1.791,0.001 0,1.791 0,4" id="path-11"/>
        <path d="M2,0 C0.895,0 0,0.896 0,2 L0,2 L0,19 C0,20.104 0.895,21.001 2,21.001 L2,21.001 L22,21.001 C23.104,21.001 24,20.104 24,19 L24,19 L24,2 C24,0.896 23.104,0 22,0 L22,0" id="path-13"/>
        <path d="M2,0 C0.895,0 0,0.896 0,2 L0,2 L0,19 C0,20.104 0.895,21.001 2,21.001 L2,21.001 L22,21.001 C23.104,21.001 24,20.104 24,19 L24,19 L24,2 C24,0.896 23.104,0 22,0 L22,0 L2,0 Z" id="path-15"/>
        <path d="M0,4 C0,6.21 1.791,8.001 4.001,8.001 L4.001,8.001 C6.209,8.001 8,6.21 8,4 L8,4 C8,1.791 6.209,0.001 4.001,0.001 L4.001,0.001 C1.791,0.001 0,1.791 0,4" id="path-17"/>
        <path d="M0,4 C0,6.21 1.791,8.001 4.001,8.001 L4.001,8.001 C6.209,8.001 8,6.21 8,4 L8,4 C8,1.791 6.209,0.001 4.001,0.001 L4.001,0.001 C1.791,0.001 0,1.791 0,4" id="path-19"/>
    </defs>
    <g id="icon_myeshop/lieferadressen" stroke="none" stroke-width="1" fill="none" fill-rule="evenodd">
        <g id="Group-36" transform="translate(2.000000, 3.000000)">
            <g id="Group-7">
                <g id="Group-3">
                    <mask id="mask-2" fill="white">
                        <use xlink:href="#path-1"/>
                    </mask>
                    <g id="Clip-2"/>
                    <path d="M19.0002,0 L38.0002,16 L38.0002,18 L35.0002,18 L35.0002,37 C35.0002,38.105 34.1042,39 33.0002,39 L5.0002,39 C3.8952,39 3.0002,38.105 3.0002,37 L3.0002,18 L0.0002,18 L0.0002,16 L5.0002,11.789 L5.0002,4 L11.0002,4 L11.0002,6.737 L19.0002,0 Z" id="Fill-1" fill="#FFFFFF" mask="url(#mask-2)"/>
                </g>
                <g id="Group-6">
                    <mask id="mask-4" fill="white">
                        <use xlink:href="#path-3"/>
                    </mask>
                    <g id="Clip-5"/>
                    <path d="M1.735,16.5 L4.5,16.5 L4.5,37 C4.5,37.276 4.724,37.5 5,37.5 L33,37.5 C33.275,37.5 33.5,37.276 33.5,37 L33.5,16.5 L36.264,16.5 L19,1.961 L9.5,9.961 L9.5,5.5 L6.5,5.5 L6.5,12.487 L1.735,16.5 Z M33,40.5 L5,40.5 C3.07,40.5 1.5,38.93 1.5,37 L1.5,19.5 L-1.5,19.5 L-1.5,15.302 L3.5,11.091 L3.5,2.5 L12.5,2.5 L12.5,3.513 L19,-1.961 L39.5,15.302 L39.5,19.5 L36.5,19.5 L36.5,37 C36.5,38.93 34.929,40.5 33,40.5 L33,40.5 Z" id="Fill-4" fill="#818181" mask="url(#mask-4)"/>
                </g>
            </g>
            <g id="Group-14" transform="translate(26.000000, 22.000000)">
                <g id="Group-10">
                    <mask id="mask-6" fill="white">
                        <use xlink:href="#path-5"/>
                    </mask>
                    <g id="Clip-9"/>
                    <path d="M1.9997,17.0005 C0.8957,17.0005 -0.0003,16.1045 -0.0003,15.0005 L-0.0003,2.0005 C-0.0003,0.8955 0.8957,0.0005 1.9997,0.0005 L11.9997,0.0005 C13.1037,0.0005 13.9997,0.8955 13.9997,2.0005 L13.9997,6.5005 L17.4137,9.9145 C17.7897,10.2895 17.9997,10.7985 17.9997,11.3285 L17.9997,15.0005 C17.9997,16.1045 17.1037,17.0005 15.9997,17.0005 L1.9997,17.0005 Z" id="Fill-8" fill="#FFFFFF" mask="url(#mask-6)"/>
                </g>
                <g id="Group-13">
                    <mask id="mask-8" fill="white">
                        <use xlink:href="#path-7"/>
                    </mask>
                    <g id="Clip-12"/>
                    <path d="M1.9997,1.5005 C1.7247,1.5005 1.4997,1.7255 1.4997,2.0005 L1.4997,15.0005 C1.4997,15.2755 1.7247,15.5005 1.9997,15.5005 L15.9997,15.5005 C16.2747,15.5005 16.4997,15.2755 16.4997,15.0005 L16.4997,11.3285 C16.4997,11.1945 16.4477,11.0695 16.3537,10.9775 L12.4997,7.1215 L12.4997,2.0005 C12.4997,1.7255 12.2747,1.5005 11.9997,1.5005 L1.9997,1.5005 Z M15.9997,18.5005 L1.9997,18.5005 C0.0697,18.5005 -1.5003,16.9305 -1.5003,15.0005 L-1.5003,2.0005 C-1.5003,0.0705 0.0697,-1.4995 1.9997,-1.4995 L11.9997,-1.4995 C13.9297,-1.4995 15.4997,0.0705 15.4997,2.0005 L15.4997,5.8795 L18.4747,8.8545 C19.1357,9.5135 19.4997,10.3925 19.4997,11.3285 L19.4997,15.0005 C19.4997,16.9305 17.9297,18.5005 15.9997,18.5005 L15.9997,18.5005 Z" id="Fill-11" fill="#FF7000" mask="url(#mask-8)"/>
                </g>
            </g>
            <g id="Group-21" transform="translate(33.000000, 34.000000)">
                <g id="Group-17">
                    <mask id="mask-10" fill="white">
                        <use xlink:href="#path-9"/>
                    </mask>
                    <g id="Clip-16"/>
                    <path d="M3.9997,8.0005 C6.2087,8.0005 7.9997,6.2095 7.9997,4.0005 C7.9997,1.7905 6.2087,0.0005 3.9997,0.0005 C1.7907,0.0005 -0.0003,1.7905 -0.0003,4.0005 C-0.0003,6.2095 1.7907,8.0005 3.9997,8.0005" id="Fill-15" fill="#FFFFFF" mask="url(#mask-10)"/>
                </g>
                <g id="Group-20">
                    <mask id="mask-12" fill="white">
                        <use xlink:href="#path-11"/>
                    </mask>
                    <g id="Clip-19"/>
                    <path d="M3.9997,1.5005 C2.6207,1.5005 1.4997,2.6215 1.4997,4.0005 C1.4997,5.3795 2.6207,6.5005 3.9997,6.5005 C5.3787,6.5005 6.4997,5.3795 6.4997,4.0005 C6.4997,2.6215 5.3787,1.5005 3.9997,1.5005 M3.9997,9.5005 C0.9677,9.5005 -1.5003,7.0325 -1.5003,4.0005 C-1.5003,0.9685 0.9677,-1.4995 3.9997,-1.4995 C7.0317,-1.4995 9.4997,0.9685 9.4997,4.0005 C9.4997,7.0325 7.0317,9.5005 3.9997,9.5005" id="Fill-18" fill="#FF7000" mask="url(#mask-12)"/>
                </g>
            </g>
            <g id="Group-28" transform="translate(8.000000, 18.000000)">
                <g id="Group-24">
                    <mask id="mask-14" fill="white">
                        <use xlink:href="#path-13"/>
                    </mask>
                    <g id="Clip-23"/>
                    <path d="M2.0002,0 L22.0002,0 C23.1042,0 24.0002,0.896 24.0002,2 L24.0002,19 C24.0002,20.105 23.1042,21 22.0002,21 L2.0002,21 C0.8952,21 0.0002,20.105 0.0002,19 L0.0002,2 C0.0002,0.896 0.8952,0 2.0002,0" id="Fill-22" fill="#FFFFFF" mask="url(#mask-14)"/>
                </g>
                <g id="Group-27">
                    <mask id="mask-16" fill="white">
                        <use xlink:href="#path-15"/>
                    </mask>
                    <g id="Clip-26"/>
                    <path d="M2.0002,1.5 C1.7242,1.5 1.5002,1.724 1.5002,2 L1.5002,19 C1.5002,19.276 1.7242,19.5 2.0002,19.5 L22.0002,19.5 C22.2752,19.5 22.5002,19.276 22.5002,19 L22.5002,2 C22.5002,1.724 22.2752,1.5 22.0002,1.5 L2.0002,1.5 Z M22.0002,22.5 L2.0002,22.5 C0.0702,22.5 -1.4998,20.93 -1.4998,19 L-1.4998,2 C-1.4998,0.07 0.0702,-1.5 2.0002,-1.5 L22.0002,-1.5 C23.9292,-1.5 25.5002,0.07 25.5002,2 L25.5002,19 C25.5002,20.93 23.9292,22.5 22.0002,22.5 L22.0002,22.5 Z" id="Fill-25" fill="#FF7000" mask="url(#mask-16)"/>
                </g>
            </g>
            <g id="Group-35" transform="translate(12.000000, 34.000000)">
                <g id="Group-31">
                    <mask id="mask-18" fill="white">
                        <use xlink:href="#path-17"/>
                    </mask>
                    <g id="Clip-30"/>
                    <path d="M4.0002,8.0005 C6.2092,8.0005 8.0002,6.2095 8.0002,4.0005 C8.0002,1.7905 6.2092,0.0005 4.0002,0.0005 C1.7912,0.0005 0.0002,1.7905 0.0002,4.0005 C0.0002,6.2095 1.7912,8.0005 4.0002,8.0005" id="Fill-29" fill="#FFFFFF" mask="url(#mask-18)"/>
                </g>
                <g id="Group-34">
                    <mask id="mask-20" fill="white">
                        <use xlink:href="#path-19"/>
                    </mask>
                    <g id="Clip-33"/>
                    <path d="M4.0002,1.5005 C2.6222,1.5005 1.5002,2.6215 1.5002,4.0005 C1.5002,5.3795 2.6222,6.5005 4.0002,6.5005 C5.3782,6.5005 6.5002,5.3795 6.5002,4.0005 C6.5002,2.6215 5.3782,1.5005 4.0002,1.5005 M4.0002,9.5005 C0.9672,9.5005 -1.4998,7.0325 -1.4998,4.0005 C-1.4998,0.9685 0.9672,-1.4995 4.0002,-1.4995 C7.0332,-1.4995 9.5002,0.9685 9.5002,4.0005 C9.5002,7.0325 7.0332,9.5005 4.0002,9.5005" id="Fill-32" fill="#FF7000" mask="url(#mask-20)"/>
                </g>
            </g>
        </g>
    </g>
</svg>