<?xml version="1.0" encoding="UTF-8"?>
<svg width="48px" height="48px" viewBox="0 0 48 48" version="1.1" xmlns="http://www.w3.org/2000/svg" xmlns:xlink="http://www.w3.org/1999/xlink">
    <!-- Generator: Sketch 64 (93537) - https://sketch.com -->
    <title>icon_myeshop/artikellisten</title>
    <desc>Created with Sketch.</desc>
    <defs>
        <path d="M1,0 C0.448,0 0,0.448 0,1 L0,1 L0,37 C0,37.553 0.448,38 1,38 L1,38 L31,38 C31.553,38 32,37.553 32,37 L32,37 L32,1 C32,0.448 31.553,0 31,0 L31,0" id="path-1"/>
        <path d="M1,0 C0.448,0 0,0.448 0,1 L0,1 L0,37 C0,37.553 0.448,38 1,38 L1,38 L31,38 C31.553,38 32,37.553 32,37 L32,37 L32,1 C32,0.448 31.553,0 31,0 L31,0 L1,0 Z" id="path-3"/>
        <path d="M0,2.5 L0,12.499 C0,13.881 1.119,15 2.5,15 L2.5,15 C3.881,15 5,13.881 5,12.499 L5,12.499 L5,2.5 C5,1.12 3.881,0 2.5,0 L2.5,0 C1.119,0 0,1.12 0,2.5" id="path-5"/>
        <path d="M0,2.5 L0,12.499 C0,13.881 1.119,15 2.5,15 L2.5,15 C3.881,15 5,13.881 5,12.499 L5,12.499 L5,2.5 C5,1.12 3.881,0 2.5,0 L2.5,0 C1.119,0 0,1.12 0,2.5" id="path-7"/>
        <path d="M2,0 C0.896,0 0,0.895 0,2 L0,2 L0,2.999 C0,4.105 0.896,5 2,5 L2,5 L6,5 C7.105,5 8,4.105 8,2.999 L8,2.999 L8,2 C8,0.895 7.105,0 6,0 L6,0" id="path-9"/>
        <path d="M2,0 C0.896,0 0,0.895 0,2 L0,2 L0,2.999 C0,4.105 0.896,5 2,5 L2,5 L6,5 C7.105,5 8,4.105 8,2.999 L8,2.999 L8,2 C8,0.895 7.105,0 6,0 L6,0 L2,0 Z" id="path-11"/>
        <path d="M0,0 L5.134,7.5 L13.895,7.5 C15.696,7.5 17.276,6.295 17.752,4.557 L17.752,4.557 L19,0 L0,0 Z" id="path-13"/>
        <path d="M0,0 L5.134,7.5 L13.895,7.5 C15.696,7.5 17.276,6.295 17.752,4.557 L17.752,4.557 L19,0 L0,0 Z" id="path-15"/>
        <path d="M0,-0.001 L1,16 L7,16 C9.209,16 11,14.209 11,12 L11,12 L11,-0.001 L0,-0.001 Z" id="path-17"/>
        <path d="M0,-0.001 L1,16 L7,16 C9.209,16 11,14.209 11,12 L11,12 L11,-0.001 L0,-0.001 Z" id="path-19"/>
        <path d="M2,0 C0.896,0 0,0.896 0,2 L0,2 L0,9 C0,10.104 0.896,11 2,11 L2,11 L31,11 C33.209,11 35,9.209 35,7 L35,7 L35,2 C35,0.896 34.105,0 33,0 L33,0" id="path-21"/>
        <path d="M2,0 C0.896,0 0,0.896 0,2 L0,2 L0,9 C0,10.104 0.896,11 2,11 L2,11 L31,11 C33.209,11 35,9.209 35,7 L35,7 L35,2 C35,0.896 34.105,0 33,0 L33,0 L2,0 Z" id="path-23"/>
    </defs>
    <g id="icon_myeshop/artikellisten" stroke="none" stroke-width="1" fill="none" fill-rule="evenodd">
        <g id="Group-51" transform="translate(2.000000, 3.000000)">
            <g id="Group-6" transform="translate(6.000000, 0.000000)">
                <g id="Group-3">
                    <mask id="mask-2" fill="white">
                        <use xlink:href="#path-1"/>
                    </mask>
                    <g id="Clip-2"/>
                    <path d="M1,-0.0001 L31,-0.0001 C31.553,-0.0001 32,0.4479 32,0.9999 L32,36.9999 C32,37.5529 31.553,37.9999 31,37.9999 L1,37.9999 C0.448,37.9999 0,37.5529 0,36.9999 L0,0.9999 C0,0.4479 0.448,-0.0001 1,-0.0001" id="Fill-1" fill="#FFFFFF" mask="url(#mask-2)"/>
                </g>
                <mask id="mask-4" fill="white">
                    <use xlink:href="#path-3"/>
                </mask>
                <g id="Clip-5"/>
                <path d="M1.5,36.5 L30.5,36.5 L30.5,1.5 L1.5,1.5 L1.5,36.5 Z M31,39.5 L1,39.5 C-0.378,39.5 -1.5,38.379 -1.5,37 L-1.5,1 C-1.5,-0.379 -0.378,-1.5 1,-1.5 L31,-1.5 C32.379,-1.5 33.5,-0.379 33.5,1 L33.5,37 C33.5,38.379 32.379,39.5 31,39.5 L31,39.5 Z" id="Fill-4" fill="#FF7000" mask="url(#mask-4)"/>
            </g>
            <g id="Group-13" transform="translate(11.000000, 18.000000)">
                <g id="Group-9">
                    <mask id="mask-6" fill="white">
                        <use xlink:href="#path-5"/>
                    </mask>
                    <g id="Clip-8"/>
                    <path d="M2.5,-0.0001 C3.881,-0.0001 5,1.1199 5,2.4999 L5,12.4999 C5,13.8809 3.881,14.9999 2.5,14.9999 C1.119,14.9999 0,13.8809 0,12.4999 L0,2.4999 C0,1.1199 1.119,-0.0001 2.5,-0.0001" id="Fill-7" fill="#FFFFFF" mask="url(#mask-6)"/>
                </g>
                <g id="Group-12">
                    <mask id="mask-8" fill="white">
                        <use xlink:href="#path-7"/>
                    </mask>
                    <g id="Clip-11"/>
                    <path d="M2.5,1.4999 C1.949,1.4999 1.5,1.9489 1.5,2.4999 L1.5,12.4999 C1.5,13.0519 1.949,13.4999 2.5,13.4999 C3.051,13.4999 3.5,13.0519 3.5,12.4999 L3.5,2.4999 C3.5,1.9489 3.051,1.4999 2.5,1.4999 M2.5,16.4999 C0.294,16.4999 -1.5,14.7059 -1.5,12.4999 L-1.5,2.4999 C-1.5,0.2939 0.294,-1.5001 2.5,-1.5001 C4.706,-1.5001 6.5,0.2939 6.5,2.4999 L6.5,12.4999 C6.5,14.7059 4.706,16.4999 2.5,16.4999" id="Fill-10" fill="#818181" mask="url(#mask-8)"/>
                </g>
            </g>
            <g id="Group-20" transform="translate(0.000000, 14.000000)">
                <g id="Group-16">
                    <mask id="mask-10" fill="white">
                        <use xlink:href="#path-9"/>
                    </mask>
                    <g id="Clip-15"/>
                    <path d="M8,1.9999 L8,2.9999 C8,4.1039 7.104,4.9999 6,4.9999 L2,4.9999 C0.896,4.9999 0,4.1039 0,2.9999 L0,1.9999 C0,0.8959 0.896,-0.0001 2,-0.0001 L6,-0.0001 C7.104,-0.0001 8,0.8959 8,1.9999" id="Fill-14" fill="#FFFFFF" mask="url(#mask-10)"/>
                </g>
                <g id="Group-19">
                    <mask id="mask-12" fill="white">
                        <use xlink:href="#path-11"/>
                    </mask>
                    <g id="Clip-18"/>
                    <path d="M2,1.4999 C1.724,1.4999 1.5,1.7239 1.5,1.9999 L1.5,2.9999 C1.5,3.2759 1.724,3.4999 2,3.4999 L6,3.4999 C6.276,3.4999 6.5,3.2759 6.5,2.9999 L6.5,1.9999 C6.5,1.7239 6.276,1.4999 6,1.4999 L2,1.4999 Z M6,6.4999 L2,6.4999 C0.07,6.4999 -1.5,4.9299 -1.5,2.9999 L-1.5,1.9999 C-1.5,0.0699 0.07,-1.5001 2,-1.5001 L6,-1.5001 C7.93,-1.5001 9.5,0.0699 9.5,1.9999 L9.5,2.9999 C9.5,4.9299 7.93,6.4999 6,6.4999 L6,6.4999 Z" id="Fill-17" fill="#818181" mask="url(#mask-12)"/>
                </g>
            </g>
            <polygon id="Fill-21" fill="#FFFFFF" points="4 20 11 20 11 13 4 13"/>
            <path d="M4,20 L11,20 L11,13 L4,13 L4,20 Z M5.5,18.5 L9.5,18.5 L9.5,14.5 L5.5,14.5 L5.5,18.5 Z" id="Fill-22" fill="#818181"/>
            <g id="Group-29" transform="translate(22.000000, 20.000000)">
                <g id="Group-25">
                    <mask id="mask-14" fill="white">
                        <use xlink:href="#path-13"/>
                    </mask>
                    <g id="Clip-24"/>
                    <path d="M0,-0.0001 L5.135,7.4999 L13.895,7.4999 C15.696,7.4999 17.276,6.2949 17.752,4.5569 L19,-0.0001 L0,-0.0001 Z" id="Fill-23" fill="#FFFFFF" mask="url(#mask-14)"/>
                </g>
                <g id="Group-28">
                    <mask id="mask-16" fill="white">
                        <use xlink:href="#path-15"/>
                    </mask>
                    <g id="Clip-27"/>
                    <path d="M5.9257,5.9999 L13.8947,5.9999 C15.0177,5.9999 16.0087,5.2439 16.3047,4.1609 L17.0337,1.4999 L2.8447,1.4999 L5.9257,5.9999 Z M13.8947,8.9999 L4.3437,8.9999 L-2.8453,-1.5001 L20.9657,-1.5001 L19.1977,4.9529 C18.5467,7.3359 16.3647,8.9999 13.8947,8.9999 L13.8947,8.9999 Z" id="Fill-26" fill="#818181" mask="url(#mask-16)"/>
                </g>
            </g>
            <path d="M29.5,29.7499 L27,29.7499 C23.83,29.7499 21.25,27.1709 21.25,23.9999 L21.25,20.9999 L22.75,20.9999 L22.75,23.9999 C22.75,26.3439 24.657,28.2499 27,28.2499 L29.5,28.2499 L29.5,29.7499 Z" id="Fill-30" fill="#818181"/>
            <g id="Group-38" transform="translate(27.000000, 26.000000)">
                <g id="Group-34">
                    <mask id="mask-18" fill="white">
                        <use xlink:href="#path-17"/>
                    </mask>
                    <g id="Clip-33"/>
                    <path d="M0,-0.0001 L11,-0.0001 L11,11.9999 C11,14.2089 9.209,15.9999 7,15.9999 L1,15.9999 L0,-0.0001 Z" id="Fill-32" fill="#FFFFFF" mask="url(#mask-18)"/>
                </g>
                <g id="Group-37">
                    <mask id="mask-20" fill="white">
                        <use xlink:href="#path-19"/>
                    </mask>
                    <g id="Clip-36"/>
                    <path d="M2.4091,14.4999 L7.0001,14.4999 C8.3791,14.4999 9.5001,13.3789 9.5001,11.9999 L9.5001,1.4999 L1.5971,1.4999 L2.4091,14.4999 Z M7.0001,17.4999 L-0.4089,17.4999 L-1.5969,-1.5001 L12.5001,-1.5001 L12.5001,11.9999 C12.5001,15.0319 10.0321,17.4999 7.0001,17.4999 L7.0001,17.4999 Z" id="Fill-35" fill="#818181" mask="url(#mask-20)"/>
                </g>
            </g>
            <g id="Group-45" transform="translate(9.000000, 11.000000)">
                <g id="Group-41">
                    <mask id="mask-22" fill="white">
                        <use xlink:href="#path-21"/>
                    </mask>
                    <g id="Clip-40"/>
                    <path d="M2,-0.0001 L33,-0.0001 C34.104,-0.0001 35,0.8959 35,1.9999 L35,6.9999 C35,9.2089 33.209,10.9999 31,10.9999 L2,10.9999 C0.896,10.9999 0,10.1039 0,8.9999 L0,1.9999 C0,0.8959 0.896,-0.0001 2,-0.0001" id="Fill-39" fill="#FFFFFF" mask="url(#mask-22)"/>
                </g>
                <g id="Group-44">
                    <mask id="mask-24" fill="white">
                        <use xlink:href="#path-23"/>
                    </mask>
                    <g id="Clip-43"/>
                    <path d="M2,1.4999 C1.724,1.4999 1.5,1.7239 1.5,1.9999 L1.5,8.9999 C1.5,9.2759 1.724,9.4999 2,9.4999 L31,9.4999 C32.379,9.4999 33.5,8.3779 33.5,6.9999 L33.5,1.9999 C33.5,1.7239 33.275,1.4999 33,1.4999 L2,1.4999 Z M31,12.4999 L2,12.4999 C0.07,12.4999 -1.5,10.9299 -1.5,8.9999 L-1.5,1.9999 C-1.5,0.0699 0.07,-1.5001 2,-1.5001 L33,-1.5001 C34.93,-1.5001 36.5,0.0699 36.5,1.9999 L36.5,6.9999 C36.5,10.0329 34.032,12.4999 31,12.4999 L31,12.4999 Z" id="Fill-42" fill="#818181" mask="url(#mask-24)"/>
                </g>
            </g>
            <g id="Group-50" transform="translate(10.000000, 5.000000)" fill="#FF7000">
                <path d="M23,2.2499 L6,2.2499 C5.586,2.2499 5.25,1.9139 5.25,1.4999 C5.25,1.0859 5.586,0.7499 6,0.7499 L23,0.7499 C23.414,0.7499 23.75,1.0859 23.75,1.4999 C23.75,1.9139 23.414,2.2499 23,2.2499" id="Fill-46"/>
                <path d="M3,2.2499 L1,2.2499 C0.586,2.2499 0.25,1.9139 0.25,1.4999 C0.25,1.0859 0.586,0.7499 1,0.7499 L3,0.7499 C3.414,0.7499 3.75,1.0859 3.75,1.4999 C3.75,1.9139 3.414,2.2499 3,2.2499" id="Fill-48"/>
            </g>
        </g>
    </g>
</svg>