<?xml version="1.0" encoding="UTF-8"?>
<svg width="48px" height="48px" viewBox="0 0 48 48" version="1.1" xmlns="http://www.w3.org/2000/svg" xmlns:xlink="http://www.w3.org/1999/xlink">
    <!-- Generator: Sketch 64 (93537) - https://sketch.com -->
    <title>icon_myeshop/statistik</title>
    <desc>Created with Sketch.</desc>
    <defs>
        <path d="M1.76199759,0 C1.685,0 1.609,0.009 1.534,0.027 L1.534,0.027 C1.071,0.135 0.761,0.548 0.761997588,1.003 L0.761997588,1.003 C0.763,1.078 0.771,1.154 0.789,1.229 L0.789,1.229 L4.318,16.23 C4.425,16.68 4.828,17 5.292,17 L5.292,17 L28.272,17 C28.706,17 29.091,16.721 29.223,16.308 L29.223,16.308 L34.077,1.308 C34.109,1.209 34.125,1.104 34.125,1 L34.125,1 C34.125,0.447 33.677,0 33.125,0 L33.125,0" id="path-1"/>
        <path d="M1.762,0 C1.685,0 1.609,0.009 1.534,0.027 L1.534,0.027 C0.996,0.153 0.663,0.691 0.789,1.229 L0.789,1.229 L4.318,16.23 C4.425,16.68 4.828,17 5.292,17 L5.292,17 L28.272,17 C28.706,17 29.091,16.721 29.223,16.308 L29.223,16.308 L34.077,1.308 C34.109,1.209 34.125,1.104 34.125,1 L34.125,1 C34.125,0.447 33.677,0 33.125,0 L33.125,0 L1.762,0 Z" id="path-3"/>
        <path d="M0,4.5 C0,6.986 2.014,9 4.5,9 L4.5,9 C6.985,9 9,6.986 9,4.5 L9,4.5 C9,2.015 6.985,0 4.5,0 L4.5,0 C2.014,0 0,2.015 0,4.5" id="path-5"/>
        <path d="M0,4.5 C0,6.986 2.014,9 4.5,9 L4.5,9 C6.985,9 9,6.986 9,4.5 L9,4.5 C9,2.015 6.985,0 4.5,0 L4.5,0 C2.014,0 0,2.015 0,4.5" id="path-7"/>
        <path d="M0,4.5 C0,6.986 2.014,9 4.5,9 L4.5,9 C6.985,9 9,6.986 9,4.5 L9,4.5 C9,2.015 6.985,0 4.5,0 L4.5,0 C2.014,0 0,2.015 0,4.5" id="path-9"/>
        <path d="M0,4.5 C0,6.986 2.014,9 4.5,9 L4.5,9 C6.985,9 9,6.986 9,4.5 L9,4.5 C9,2.015 6.985,0 4.5,0 L4.5,0 C2.014,0 0,2.015 0,4.5" id="path-11"/>
        <path d="M0,1.5 C0,2.328 0.672,3 1.5,3 L1.5,3 C2.329,3 3,2.328 3,1.5 L3,1.5 C3,0.672 2.329,-0.001 1.5,-0.001 L1.5,-0.001 C0.672,-0.001 0,0.672 0,1.5 L0,1.5 Z" id="path-13"/>
        <path d="M0,1.5 C0,2.329 0.671,3 1.5,3 L1.5,3 C2.328,3 3,2.329 3,1.5 L3,1.5 C3,0.672 2.328,-0.001 1.5,-0.001 L1.5,-0.001 C0.671,-0.001 0,0.672 0,1.5 L0,1.5 Z" id="path-15"/>
        <path d="M0,1.5 C0,2.328 0.671,3 1.5,3 L1.5,3 C2.328,3 3,2.328 3,1.5 L3,1.5 C3,0.671 2.328,0 1.5,0 L1.5,0 C0.671,0 0,0.671 0,1.5 L0,1.5 Z" id="path-17"/>
        <path d="M0,1.5 C0,2.329 0.671,3 1.5,3 L1.5,3 C2.328,3 3,2.329 3,1.5 L3,1.5 C3,0.672 2.328,0 1.5,0 L1.5,0 C0.671,0 0,0.672 0,1.5 L0,1.5 Z" id="path-19"/>
        <path d="M0,1.5 C0,2.329 0.672,3 1.5,3 L1.5,3 C2.328,3 3,2.329 3,1.5 L3,1.5 C3,0.672 2.328,-0.001 1.5,-0.001 L1.5,-0.001 C0.672,-0.001 0,0.672 0,1.5 L0,1.5 Z" id="path-21"/>
    </defs>
    <g id="icon_myeshop/statistik" stroke="none" stroke-width="1" fill="none" fill-rule="evenodd">
        <g id="Group-40" transform="translate(2.000000, 3.000000)">
            <g id="Group-3" transform="translate(9.000000, 14.000000)">
                <mask id="mask-2" fill="white">
                    <use xlink:href="#path-1"/>
                </mask>
                <g id="Clip-2"/>
                <path d="M1.7626,-0.0001 L33.1246,-0.0001 C33.6776,-0.0001 34.1246,0.4479 34.1246,0.9999 C34.1246,1.1039 34.1096,1.2079 34.0766,1.3079 L29.2236,16.3079 C29.0906,16.7209 28.7056,16.9999 28.2726,16.9999 L5.2916,16.9999 C4.8276,16.9999 4.4246,16.6809 4.3186,16.2289 L0.7886,1.2289 C0.6626,0.6909 0.9956,0.1529 1.5336,0.0269 C1.6086,0.0089 1.6856,-0.0001 1.7626,-0.0001" id="Fill-1" fill="#FFFFFF" mask="url(#mask-2)"/>
            </g>
            <g id="Group-6" transform="translate(9.000000, 14.000000)">
                <mask id="mask-4" fill="white">
                    <use xlink:href="#path-3"/>
                </mask>
                <g id="Clip-5"/>
                <path d="M5.6879,15.4999 L27.9079,15.4999 L32.4379,1.4999 L2.3939,1.4999 L5.6879,15.4999 Z M28.2719,18.4999 L5.2919,18.4999 C4.1259,18.4999 3.1249,17.7069 2.8579,16.5719 L-0.6711,1.5729 C-0.9871,0.2309 -0.1521,-1.1181 1.1899,-1.4331 C1.3799,-1.4781 1.5719,-1.5001 1.7629,-1.5001 L33.1249,-1.5001 C34.5039,-1.5001 35.6249,-0.3781 35.6249,0.9999 C35.6249,1.2629 35.5839,1.5219 35.5039,1.7699 L30.6499,16.7699 C30.3179,17.8039 29.3619,18.4999 28.2719,18.4999 L28.2719,18.4999 Z" id="Fill-4" fill="#818180" mask="url(#mask-4)"/>
            </g>
            <path d="M35,39.2499 L16,39.2499 C15.655,39.2499 15.354,39.0149 15.271,38.6789 L8.412,10.7499 L1,10.7499 C0.586,10.7499 0.25,10.4139 0.25,9.9999 C0.25,9.5859 0.586,9.2499 1,9.2499 L9,9.2499 C9.345,9.2499 9.646,9.4859 9.729,9.8209 L16.588,37.7499 L35,37.7499 C35.414,37.7499 35.75,38.0859 35.75,38.4999 C35.75,38.9139 35.414,39.2499 35,39.2499" id="Fill-7" fill="#818180"/>
            <g id="Group-15" transform="translate(30.000000, 34.000000)">
                <g id="Group-11">
                    <mask id="mask-6" fill="white">
                        <use xlink:href="#path-5"/>
                    </mask>
                    <g id="Clip-10"/>
                    <path d="M4.5,8.9999 C6.985,8.9999 9,6.9849 9,4.4999 C9,2.0149 6.985,-0.0001 4.5,-0.0001 C2.015,-0.0001 0,2.0149 0,4.4999 C0,6.9849 2.015,8.9999 4.5,8.9999" id="Fill-9" fill="#FFFFFF" mask="url(#mask-6)"/>
                </g>
                <g id="Group-14">
                    <mask id="mask-8" fill="white">
                        <use xlink:href="#path-7"/>
                    </mask>
                    <g id="Clip-13"/>
                    <path d="M4.5,1.4999 C2.846,1.4999 1.5,2.8459 1.5,4.4999 C1.5,6.1539 2.846,7.4999 4.5,7.4999 C6.154,7.4999 7.5,6.1539 7.5,4.4999 C7.5,2.8459 6.154,1.4999 4.5,1.4999 M4.5,10.4999 C1.191,10.4999 -1.5,7.8089 -1.5,4.4999 C-1.5,1.1909 1.191,-1.5001 4.5,-1.5001 C7.809,-1.5001 10.5,1.1909 10.5,4.4999 C10.5,7.8089 7.809,10.4999 4.5,10.4999" id="Fill-12" fill="#818181" mask="url(#mask-8)"/>
                </g>
            </g>
            <g id="Group-22" transform="translate(12.000000, 34.000000)">
                <g id="Group-18">
                    <mask id="mask-10" fill="white">
                        <use xlink:href="#path-9"/>
                    </mask>
                    <g id="Clip-17"/>
                    <path d="M4.5,8.9999 C6.985,8.9999 9,6.9849 9,4.4999 C9,2.0149 6.985,-0.0001 4.5,-0.0001 C2.015,-0.0001 0,2.0149 0,4.4999 C0,6.9849 2.015,8.9999 4.5,8.9999" id="Fill-16" fill="#FFFFFF" mask="url(#mask-10)"/>
                </g>
                <g id="Group-21">
                    <mask id="mask-12" fill="white">
                        <use xlink:href="#path-11"/>
                    </mask>
                    <g id="Clip-20"/>
                    <path d="M4.5,1.4999 C2.846,1.4999 1.5,2.8459 1.5,4.4999 C1.5,6.1539 2.846,7.4999 4.5,7.4999 C6.154,7.4999 7.5,6.1539 7.5,4.4999 C7.5,2.8459 6.154,1.4999 4.5,1.4999 M4.5,10.4999 C1.191,10.4999 -1.5,7.8089 -1.5,4.4999 C-1.5,1.1909 1.191,-1.5001 4.5,-1.5001 C7.809,-1.5001 10.5,1.1909 10.5,4.4999 C10.5,7.8089 7.809,10.4999 4.5,10.4999" id="Fill-19" fill="#818180" mask="url(#mask-12)"/>
                </g>
            </g>
            <g id="Group-25" transform="translate(0.000000, 36.000000)">
                <mask id="mask-14" fill="white">
                    <use xlink:href="#path-13"/>
                </mask>
                <g id="Clip-24"/>
                <polygon id="Fill-23" fill="#FF7000" mask="url(#mask-14)" points="-5 8 8 8 8 -5 -5 -5"/>
            </g>
            <path d="M1.4995,38.2499 C1.3475,38.2499 1.1935,38.2039 1.0615,38.1079 C0.7255,37.8649 0.6495,37.3959 0.8925,37.0609 L13.8925,19.0609 C14.1065,18.7619 14.5065,18.6629 14.8355,18.8289 L22.2145,22.5189 L30.8565,8.1139 C30.9165,8.0139 30.9995,7.9299 31.0975,7.8669 L41.7495,1.0879 L41.7495,0.9999 C41.7495,0.5859 42.0855,0.2499 42.4995,0.2499 C42.9145,0.2499 43.2495,0.5859 43.2495,0.9999 L43.2495,1.4999 C43.2495,1.7559 43.1195,1.9949 42.9025,2.1329 L32.0515,9.0379 L23.1435,23.8859 C22.9415,24.2219 22.5145,24.3449 22.1645,24.1709 L14.7345,20.4559 L2.1075,37.9389 C1.9615,38.1429 1.7315,38.2499 1.4995,38.2499" id="Fill-26" fill="#FF7000"/>
            <g id="Group-30" transform="translate(13.000000, 18.000000)">
                <mask id="mask-16" fill="white">
                    <use xlink:href="#path-15"/>
                </mask>
                <g id="Clip-29"/>
                <polygon id="Fill-28" fill="#FF7000" mask="url(#mask-16)" points="-5 8 8 8 8 -5 -5 -5"/>
            </g>
            <g id="Group-33" transform="translate(21.000000, 22.000000)">
                <mask id="mask-18" fill="white">
                    <use xlink:href="#path-17"/>
                </mask>
                <g id="Clip-32"/>
                <polygon id="Fill-31" fill="#FF7000" mask="url(#mask-18)" points="-5 8 8 8 8 -5 -5 -5"/>
            </g>
            <g id="Group-36" transform="translate(30.000000, 7.000000)">
                <mask id="mask-20" fill="white">
                    <use xlink:href="#path-19"/>
                </mask>
                <g id="Clip-35"/>
                <polygon id="Fill-34" fill="#FF7000" mask="url(#mask-20)" points="-5 8 8 8 8 -5 -5 -5"/>
            </g>
            <g id="Group-39" transform="translate(41.000000, 0.000000)">
                <mask id="mask-22" fill="white">
                    <use xlink:href="#path-21"/>
                </mask>
                <g id="Clip-38"/>
                <polygon id="Fill-37" fill="#FF7000" mask="url(#mask-22)" points="-5 8 8 8 8 -5 -5 -5"/>
            </g>
        </g>
    </g>
</svg>