<?xml version="1.0" encoding="UTF-8"?>
<svg width="48px" height="48px" viewBox="0 0 48 48" version="1.1" xmlns="http://www.w3.org/2000/svg" xmlns:xlink="http://www.w3.org/1999/xlink">
    <!-- Generator: Sketch 64 (93537) - https://sketch.com -->
    <title>icon_myeshop/gespeicherte_angebote</title>
    <desc>Created with Sketch.</desc>
    <defs>
        <path d="M1,0 C0.448,0 0,0.448 0,1 L0,1 L0,37 C0,37.552 0.448,38 1,38 L1,38 L31,38 C31.552,38 32,37.552 32,37 L32,37 L32,1 C32,0.448 31.552,0 31,0 L31,0" id="path-1"/>
        <path d="M1,0 C0.448,0 0,0.448 0,1 L0,1 L0,37 C0,37.552 0.448,38 1,38 L1,38 L31,38 C31.552,38 32,37.552 32,37 L32,37 L32,1 C32,0.448 31.552,0 31,0 L31,0 L1,0 Z" id="path-3"/>
        <path d="M3.3,0 C1.485,0 0.017,1.463 0.017,3.25 L0.017,3.25 L0,22.749 C0,24.538 1.485,25.999 3.3,25.999 L3.3,25.999 L29.701,25.999 C31.515,25.999 33,24.538 33,22.749 L33,22.749 L33,6.5 C33,4.712 31.515,3.25 29.701,3.25 L29.701,3.25 L16.5,3.25 L13.2,0 L3.3,0 Z" id="path-5"/>
        <path d="M3.3,0 C1.485,0 0.017,1.463 0.017,3.25 L0.017,3.25 L0,22.749 C0,24.538 1.485,25.999 3.3,25.999 L3.3,25.999 L29.701,25.999 C31.515,25.999 33,24.538 33,22.749 L33,22.749 L33,6.5 C33,4.712 31.515,3.25 29.701,3.25 L29.701,3.25 L16.5,3.25 L13.2,0 L3.3,0 Z" id="path-7"/>
        <path d="M5.778,0.722 L5.778,6.984 L4.412,5.627 C4.131,5.344 3.676,5.344 3.395,5.627 L3.395,5.627 C3.113,5.908 3.113,6.363 3.395,6.644 L3.395,6.644 L5.987,9.237 C6.268,9.52 6.724,9.52 7.006,9.237 L7.006,9.237 L9.599,6.644 C9.88,6.363 9.88,5.908 9.599,5.627 L9.599,5.627 C9.316,5.344 8.861,5.344 8.58,5.627 L8.58,5.627 L7.221,6.984 L7.221,0.722 C7.221,0.325 6.897,-0.001 6.5,-0.001 L6.5,-0.001 C6.103,-0.001 5.778,0.325 5.778,0.722 L5.778,0.722 Z M11.556,7.223 L11.556,10.833 C11.556,11.23 11.231,11.555 10.833,11.555 L10.833,11.555 L2.167,11.555 C1.77,11.555 1.444,11.23 1.444,10.833 L1.444,10.833 L1.444,7.223 C1.444,6.825 1.119,6.5 0.722,6.5 L0.722,6.5 C0.325,6.5 0,6.825 0,7.223 L0,7.223 L0,11.555 C0,12.35 0.65,13 1.444,13 L1.444,13 L11.556,13 C12.35,13 13,12.35 13,11.555 L13,11.555 L13,7.223 C13,6.825 12.675,6.5 12.277,6.5 L12.277,6.5 C11.881,6.5 11.556,6.825 11.556,7.223 L11.556,7.223 Z" id="path-9"/>
    </defs>
    <g id="icon_myeshop/gespeicherte_angebote" stroke="none" stroke-width="1" fill="none" fill-rule="evenodd">
        <g id="Group-26" transform="translate(5.000000, 3.000000)">
            <g id="Group-6">
                <g id="Group-3">
                    <mask id="mask-2" fill="white">
                        <use xlink:href="#path-1"/>
                    </mask>
                    <g id="Clip-2"/>
                    <path d="M1.0001,0.0001 L31.0001,0.0001 C31.5521,0.0001 32.0001,0.4481 32.0001,1.0001 L32.0001,37.0001 C32.0001,37.5521 31.5521,38.0001 31.0001,38.0001 L1.0001,38.0001 C0.4481,38.0001 0.0001,37.5521 0.0001,37.0001 L0.0001,1.0001 C0.0001,0.4481 0.4481,0.0001 1.0001,0.0001" id="Fill-1" fill="#FFFFFF" mask="url(#mask-2)"/>
                </g>
                <mask id="mask-4" fill="white">
                    <use xlink:href="#path-3"/>
                </mask>
                <g id="Clip-5"/>
                <path d="M1.5,36.5 L30.5,36.5 L30.5,1.5 L1.5,1.5 L1.5,36.5 Z M31,39.5 L1,39.5 C-0.378,39.5 -1.5,38.379 -1.5,37 L-1.5,1 C-1.5,-0.378 -0.378,-1.5 1,-1.5 L31,-1.5 C32.379,-1.5 33.5,-0.378 33.5,1 L33.5,37 C33.5,38.379 32.379,39.5 31,39.5 L31,39.5 Z" id="Fill-4" fill="#818181" mask="url(#mask-4)"/>
            </g>
            <g id="Group-15" transform="translate(4.000000, 5.000000)" fill="#818181">
                <path d="M23.0001,2.2501 L6.0001,2.2501 C5.5861,2.2501 5.2501,1.9141 5.2501,1.5001 C5.2501,1.0861 5.5861,0.7501 6.0001,0.7501 L23.0001,0.7501 C23.4141,0.7501 23.7501,1.0861 23.7501,1.5001 C23.7501,1.9141 23.4141,2.2501 23.0001,2.2501" id="Fill-7"/>
                <path d="M3.0001,2.2501 L1.0001,2.2501 C0.5861,2.2501 0.2501,1.9141 0.2501,1.5001 C0.2501,1.0861 0.5861,0.7501 1.0001,0.7501 L3.0001,0.7501 C3.4141,0.7501 3.7501,1.0861 3.7501,1.5001 C3.7501,1.9141 3.4141,2.2501 3.0001,2.2501" id="Fill-9"/>
                <path d="M23.0001,7.2501 L6.0001,7.2501 C5.5861,7.2501 5.2501,6.9141 5.2501,6.5001 C5.2501,6.0861 5.5861,5.7501 6.0001,5.7501 L23.0001,5.7501 C23.4141,5.7501 23.7501,6.0861 23.7501,6.5001 C23.7501,6.9141 23.4141,7.2501 23.0001,7.2501" id="Fill-11"/>
                <path d="M3.0001,7.2501 L1.0001,7.2501 C0.5861,7.2501 0.2501,6.9141 0.2501,6.5001 C0.2501,6.0861 0.5861,5.7501 1.0001,5.7501 L3.0001,5.7501 C3.4141,5.7501 3.7501,6.0861 3.7501,6.5001 C3.7501,6.9141 3.4141,7.2501 3.0001,7.2501" id="Fill-13"/>
            </g>
            <g id="Group-22" transform="translate(5.000000, 16.000000)">
                <g id="Group-18">
                    <mask id="mask-6" fill="white">
                        <use xlink:href="#path-5"/>
                    </mask>
                    <g id="Clip-17"/>
                    <path d="M13.1998,0.0001 L3.2998,0.0001 C1.4848,0.0001 0.0168,1.4621 0.0168,3.2501 L-0.0002,22.7501 C-0.0002,24.5381 1.4848,26.0001 3.2998,26.0001 L29.6998,26.0001 C31.5148,26.0001 32.9998,24.5381 32.9998,22.7501 L32.9998,6.5001 C32.9998,4.7121 31.5148,3.2501 29.6998,3.2501 L16.4998,3.2501 L13.1998,0.0001 Z" id="Fill-16" fill="#FFFFFF" mask="url(#mask-6)"/>
                </g>
                <g id="Group-21">
                    <mask id="mask-8" fill="white">
                        <use xlink:href="#path-7"/>
                    </mask>
                    <g id="Clip-20"/>
                    <path d="M3.2999,1.5001 C2.3169,1.5001 1.5169,2.2851 1.5169,3.2501 L1.4999,22.7501 C1.4999,23.7141 2.3079,24.5001 3.2999,24.5001 L29.6999,24.5001 C30.6929,24.5001 31.4999,23.7141 31.4999,22.7501 L31.4999,6.5001 C31.4999,5.5351 30.6929,4.7501 29.6999,4.7501 L15.8859,4.7501 L12.5849,1.5001 L3.2999,1.5001 Z M29.6999,27.5001 L3.2999,27.5001 C0.6539,27.5001 -1.5001,25.3691 -1.5001,22.7501 L-1.4831,3.2491 C-1.4831,0.6311 0.6619,-1.4999 3.2999,-1.4999 L13.8149,-1.4999 L17.1139,1.7501 L29.6999,1.7501 C32.3469,1.7501 34.4999,3.8811 34.4999,6.5001 L34.4999,22.7501 C34.4999,25.3691 32.3469,27.5001 29.6999,27.5001 L29.6999,27.5001 Z" id="Fill-19" fill="#FF7000" mask="url(#mask-8)"/>
                </g>
            </g>
            <g id="Group-25" transform="translate(15.000000, 24.000000)">
                <mask id="mask-10" fill="white">
                    <use xlink:href="#path-9"/>
                </mask>
                <g id="Clip-24"/>
                <polygon id="Fill-23" fill="#FF7000" mask="url(#mask-10)" points="-5 18 18 18 18 -5 -5 -5"/>
            </g>
        </g>
    </g>
</svg>