<?xml version="1.0" encoding="UTF-8"?>
<svg width="48px" height="48px" viewBox="0 0 48 48" version="1.1" xmlns="http://www.w3.org/2000/svg" xmlns:xlink="http://www.w3.org/1999/xlink">
    <!-- Generator: Sketch 64 (93537) - https://sketch.com -->
    <title>icon_myeshop/individuelle_angebote</title>
    <desc>Created with Sketch.</desc>
    <defs>
        <path d="M1,0 C0.448,0 0,0.447 0,1 L0,1 L0,37 C0,37.552 0.448,38 1,38 L1,38 L25,38 L25,32 C25,31.448 25.448,30.999 26,30.999 L26,30.999 L32,30.999 L32,1 C32,0.447 31.553,0 31,0 L31,0 L1,0 Z" id="path-1"/>
        <path d="M1,0 C0.448,0 0,0.447 0,1 L0,1 L0,37 C0,37.552 0.448,38 1,38 L1,38 L25,38 L25,32 C25,31.448 25.448,30.999 26,30.999 L26,30.999 L32,30.999 L32,1 C32,0.447 31.553,0 31,0 L31,0 L1,0 Z" id="path-3"/>
        <polygon id="path-5" points="0 13 4 13 5 12.5 12.5 19.5 17.5 21.5 20.5 21 21.5 19.5 23.5 19 25 18 27 17 27.5 15.499 30 14 30.5 15.499 35 15 35 1.999 30.5 1.999 26 3 26 4.5 19.5 1.999 16.5 1.999 14.5 3 7.5 3 7 1.5 5.5 0.5 0 0"/>
        <path d="M8.23,2.906 C7.179,3.936 5.752,6.021 6.12,7.551 L6.12,7.551 C6.279,8.202 6.746,8.685 7.44,8.909 L7.44,8.909 C9.18,9.472 10.769,8.932 11.952,7.393 L11.952,7.393 C12.44,7.319 12.706,7.21 13.105,7.034 L13.105,7.034 C13.25,6.972 13.419,6.897 13.643,6.808 L13.643,6.808 C14.523,7.617 15.708,8.559 16.957,9.549 L16.957,9.549 C19.215,11.34 21.776,13.372 22.353,14.546 L22.353,14.546 C22.636,15.127 22.331,15.505 22.123,15.678 L22.123,15.678 C21.819,15.934 21.402,16.015 21.176,15.86 L21.176,15.86 C20.928,15.693 20.603,15.682 20.348,15.834 L20.348,15.834 C20.088,15.984 19.945,16.27 19.978,16.561 L19.978,16.561 C20.029,17.041 19.582,17.315 19.388,17.41 L19.388,17.41 C18.898,17.654 18.384,17.611 18.192,17.436 L18.192,17.436 C17.976,17.241 17.668,17.183 17.395,17.283 L17.395,17.283 C17.121,17.384 16.93,17.631 16.903,17.917 L16.903,17.917 C16.857,18.412 16.483,18.887 15.997,19.072 L15.997,19.072 C15.762,19.159 15.421,19.212 15.115,18.937 L15.115,18.937 C14.925,18.768 14.661,18.704 14.413,18.763 L14.413,18.763 C14.162,18.823 13.961,19.001 13.874,19.237 L13.874,19.237 C13.845,19.313 13.779,19.493 13.059,19.493 L13.059,19.493 C12.548,19.493 11.628,19.154 11.178,18.862 L11.178,18.862 C10.638,18.514 7.257,16.04 4.337,13.642 L4.337,13.642 C3.927,13.303 3.217,12.576 2.591,11.934 L2.591,11.934 C2.034,11.364 1.526,10.847 1.265,10.63 L1.265,10.63 C0.937,10.359 0.454,10.4 0.181,10.719 L0.181,10.719 C-0.091,11.038 -0.053,11.513 0.272,11.782 L0.272,11.782 C0.51,11.979 0.971,12.456 1.479,12.977 L1.479,12.977 C2.165,13.679 2.873,14.405 3.349,14.796 L3.349,14.796 C6.21,17.146 9.648,19.682 10.333,20.123 L10.333,20.123 C10.898,20.488 12.116,21 13.059,21 L13.059,21 C13.817,21 14.4,20.83 14.803,20.497 L14.803,20.497 C15.344,20.703 15.958,20.705 16.55,20.478 L16.55,20.478 C17.249,20.214 17.823,19.679 18.15,19.031 L18.15,19.031 C18.754,19.157 19.448,19.068 20.077,18.757 L20.077,18.757 C20.693,18.454 21.139,17.988 21.359,17.444 L21.359,17.444 C21.97,17.476 22.6,17.263 23.122,16.825 L23.122,16.825 C24.004,16.084 24.246,14.934 23.736,13.896 L23.736,13.896 C23.012,12.417 20.424,10.363 17.923,8.379 L17.923,8.379 C16.528,7.273 15.21,6.227 14.37,5.402 L14.37,5.402 C14.159,5.195 13.845,5.129 13.566,5.227 L13.566,5.227 C13.049,5.41 12.729,5.552 12.477,5.662 L12.477,5.662 C12.094,5.831 11.965,5.887 11.447,5.94 L11.447,5.94 C11.218,5.962 11.012,6.082 10.885,6.269 L10.885,6.269 C9.799,7.861 8.674,7.725 7.922,7.479 L7.922,7.479 C7.683,7.4 7.641,7.299 7.617,7.203 L7.617,7.203 C7.455,6.542 8.265,5.002 9.314,3.972 L9.314,3.972 C11.81,1.523 13.097,0.91 15.817,2.101 L15.817,2.101 C18.901,3.454 21.993,4.513 22.023,4.524 L22.023,4.524 C22.428,4.661 22.862,4.453 23.002,4.06 L23.002,4.06 C23.14,3.667 22.93,3.237 22.529,3.1 L22.529,3.1 C22.498,3.089 19.468,2.052 16.445,0.724 L16.445,0.724 C15.323,0.232 14.361,0 13.483,0 L13.483,0 C11.607,0 10.111,1.06 8.23,2.906 L8.23,2.906 Z" id="path-7"/>
        <path d="M0.727,-0.001 C0.326,-0.001 0,0.336 0,0.75 L0,0.75 C0,1.164 0.326,1.5 0.727,1.5 L0.727,1.5 L7.272,1.5 C7.674,1.5 8,1.164 8,0.75 L8,0.75 C8,0.336 7.674,-0.001 7.272,-0.001 L7.272,-0.001 L0.727,-0.001 Z" id="path-9"/>
        <path d="M2.734,0.13 L0.359,1.616 C-0.013,1.849 -0.113,2.32 0.139,2.666 L0.139,2.666 C0.296,2.882 0.553,3 0.814,3 L0.814,3 C0.968,3 1.126,2.958 1.265,2.871 L1.265,2.871 L3.64,1.385 C4.013,1.152 3.25,1.347 3,1 L3,1 C2.78,0.699 3.023,0.085 2.846,0.085 L2.846,0.085 C2.819,0.085 2.783,0.099 2.734,0.13 L2.734,0.13 Z" id="path-11"/>
        <path d="M0.263,0.4 C-0.027,0.697 -0.02,1.173 0.277,1.461 L0.277,1.461 C0.677,1.85 4.198,5.273 5.01,5.868 L5.01,5.868 C5.15,5.972 5.316,6.019 5.478,6.012 L5.478,6.012 C5.699,6.005 5.916,5.898 6.059,5.706 L6.059,5.706 C6.303,5.373 6.232,4.904 5.898,4.658 L5.898,4.658 C5.347,4.254 2.861,1.88 1.323,0.386 L1.323,0.386 C1.177,0.244 0.988,0.173 0.799,0.173 L0.799,0.173 C0.604,0.173 0.409,0.249 0.263,0.4 L0.263,0.4 Z" id="path-13"/>
        <path d="M0.871,0.275 C0.59,0.553 0.586,1.005 0.863,1.286 L0.863,1.286 C0.889,1.312 3.551,3.992 4.639,4.802 L4.639,4.802 C4.775,4.902 4.935,4.948 5.09,4.943 L5.09,4.943 C5.299,4.936 5.503,4.836 5.639,4.656 L5.639,4.656 C5.874,4.34 5.809,3.892 5.493,3.656 L5.493,3.656 C4.614,3.002 2.386,0.794 1.882,0.283 L1.882,0.283 C1.741,0.141 1.557,0.07 1.373,0.07 L1.373,0.07 C1.192,0.07 1.01,0.139 0.871,0.275 L0.871,0.275 Z" id="path-15"/>
        <path d="M0.819,0.71 C0.545,0.994 0.555,1.445 0.838,1.72 L0.838,1.72 C1.455,2.316 3.558,4.322 4.655,5.153 L4.655,5.153 C4.795,5.26 4.961,5.306 5.123,5.297 L5.123,5.297 C5.327,5.287 5.524,5.189 5.656,5.016 L5.656,5.016 C5.894,4.7 5.832,4.252 5.518,4.015 L5.518,4.015 C4.456,3.211 2.258,1.104 1.829,0.691 L1.829,0.691 C1.69,0.557 1.511,0.490989999 1.333,0.490989999 L1.333,0.490989999 C1.146,0.49 0.959,0.564 0.819,0.71 L0.819,0.71 Z" id="path-17"/>
        <path d="M0.236,0.203 C0.085,0.344 0,0.542 0,0.749 L0,0.749 L0,14.249 C0,14.663 0.336,15 0.75,15 L0.75,15 L5.25,15 C5.575,15 5.863,14.792 5.962,14.483 L5.962,14.483 C6.072,14.146 8.657,6.214 8.997,2.315 L8.997,2.315 C9.016,2.086 8.932,1.861 8.766,1.705 L8.766,1.705 C7.481,0.488 2.34,0.092 0.795,0.001 L0.795,0.001 C0.782,0 0.768,0 0.755,0 L0.755,0 C0.558,0 0.377,0.07 0.236,0.203 L0.236,0.203 Z M1.5,1.553 C3.911,1.744 6.512,2.158 7.456,2.617 L7.456,2.617 C7.059,5.902 5.26,11.739 4.702,13.5 L4.702,13.5 L1.5,13.5 L1.5,1.553 Z" id="path-19"/>
        <path d="M0.452,1.57 C0.248,1.662 0.095,1.832 0.033,2.037 L0.033,2.037 C-0.031,2.243 3.53937799e-16,2.463 0.118,2.646 L0.118,2.646 C1.092,4.139 4.141,12.428 4.727,14.449 L4.727,14.449 C4.821,14.775 5.132,15 5.486,15 L5.486,15 L10.212,15 C10.647,15 11,14.664 11,14.25 L11,14.25 L11,0.75 C11,0.334 10.647,0 10.212,0 L10.212,0 C4.028,0 0.596,1.508 0.452,1.57 L0.452,1.57 Z M1.893,2.649 C3.094,2.26 5.676,1.593 9.425,1.509 L9.425,1.509 L9.425,13.5 L6.075,13.5 C5.328,11.185 3.123,5.146 1.893,2.649 L1.893,2.649 Z" id="path-21"/>
    </defs>
    <g id="icon_myeshop/individuelle_angebote" stroke="none" stroke-width="1" fill="none" fill-rule="evenodd">
        <g id="Group-48" transform="translate(5.000000, 3.000000)">
            <g id="Group-7">
                <g id="Group-3">
                    <mask id="mask-2" fill="white">
                        <use xlink:href="#path-1"/>
                    </mask>
                    <g id="Clip-2"/>
                    <path d="M31,-0.0001 C31.553,-0.0001 32,0.4479 32,0.9999 L32,30.9999 L26,30.9999 C25.448,30.9999 25,31.4479 25,31.9999 L25,37.9999 L1,37.9999 C0.448,37.9999 0,37.5529 0,36.9999 L0,0.9999 C0,0.4479 0.448,-0.0001 1,-0.0001 L31,-0.0001 Z" id="Fill-1" fill="#FFFFFF" mask="url(#mask-2)"/>
                </g>
                <g id="Group-6">
                    <mask id="mask-4" fill="white">
                        <use xlink:href="#path-3"/>
                    </mask>
                    <g id="Clip-5"/>
                    <path d="M1.5,36.4999 L23.5,36.4999 L23.5,31.9999 C23.5,30.6209 24.621,29.4999 26,29.4999 L30.5,29.4999 L30.5,1.4999 L1.5,1.4999 L1.5,36.4999 Z M26.5,39.4999 L1,39.4999 C-0.378,39.4999 -1.5,38.3789 -1.5,36.9999 L-1.5,0.9999 C-1.5,-0.3781 -0.378,-1.5001 1,-1.5001 L31,-1.5001 C32.379,-1.5001 33.5,-0.3781 33.5,0.9999 L33.5,32.4999 L26.5,32.4999 L26.5,39.4999 Z" id="Fill-4" fill="#818181" mask="url(#mask-4)"/>
                </g>
            </g>
            <g id="Group-20" transform="translate(4.000000, 5.000000)" fill="#818181">
                <path d="M23,2.2499 L6,2.2499 C5.586,2.2499 5.25,1.9139 5.25,1.4999 C5.25,1.0859 5.586,0.7499 6,0.7499 L23,0.7499 C23.414,0.7499 23.75,1.0859 23.75,1.4999 C23.75,1.9139 23.414,2.2499 23,2.2499" id="Fill-8"/>
                <path d="M3,2.2499 L1,2.2499 C0.586,2.2499 0.25,1.9139 0.25,1.4999 C0.25,1.0859 0.586,0.7499 1,0.7499 L3,0.7499 C3.414,0.7499 3.75,1.0859 3.75,1.4999 C3.75,1.9139 3.414,2.2499 3,2.2499" id="Fill-10"/>
                <path d="M23,7.2499 L6,7.2499 C5.586,7.2499 5.25,6.9139 5.25,6.4999 C5.25,6.0859 5.586,5.7499 6,5.7499 L23,5.7499 C23.414,5.7499 23.75,6.0859 23.75,6.4999 C23.75,6.9139 23.414,7.2499 23,7.2499" id="Fill-12"/>
                <path d="M3,7.2499 L1,7.2499 C0.586,7.2499 0.25,6.9139 0.25,6.4999 C0.25,6.0859 0.586,5.7499 1,5.7499 L3,5.7499 C3.414,5.7499 3.75,6.0859 3.75,6.4999 C3.75,6.9139 3.414,7.2499 3,7.2499" id="Fill-14"/>
                <path d="M23,12.2499 L6,12.2499 C5.586,12.2499 5.25,11.9139 5.25,11.4999 C5.25,11.0859 5.586,10.7499 6,10.7499 L23,10.7499 C23.414,10.7499 23.75,11.0859 23.75,11.4999 C23.75,11.9139 23.414,12.2499 23,12.2499" id="Fill-16"/>
                <path d="M3,12.2499 L1,12.2499 C0.586,12.2499 0.25,11.9139 0.25,11.4999 C0.25,11.0859 0.586,10.7499 1,10.7499 L3,10.7499 C3.414,10.7499 3.75,11.0859 3.75,11.4999 C3.75,11.9139 3.414,12.2499 3,12.2499" id="Fill-18"/>
            </g>
            <g id="Group-23" transform="translate(4.000000, 20.000000)">
                <mask id="mask-6" fill="white">
                    <use xlink:href="#path-5"/>
                </mask>
                <g id="Clip-22"/>
                <polygon id="Fill-21" fill="#FFFFFF" mask="url(#mask-6)" points="-5 26.5 40 26.5 40 -5 -5 -5"/>
            </g>
            <g id="Group-26" transform="translate(8.000000, 21.000000)">
                <mask id="mask-8" fill="white">
                    <use xlink:href="#path-7"/>
                </mask>
                <g id="Clip-25"/>
                <polygon id="Fill-24" fill="#FF7000" mask="url(#mask-8)" points="-5 26 29 26 29 -5 -5 -5"/>
            </g>
            <g id="Group-29" transform="translate(11.000000, 22.000000)">
                <mask id="mask-10" fill="white">
                    <use xlink:href="#path-9"/>
                </mask>
                <g id="Clip-28"/>
                <polygon id="Fill-27" fill="#FF7000" mask="url(#mask-10)" points="-5 6.5 13 6.5 13 -5 -5 -5"/>
            </g>
            <g id="Group-32" transform="translate(31.000000, 33.000000)">
                <mask id="mask-12" fill="white">
                    <use xlink:href="#path-11"/>
                </mask>
                <g id="Clip-31"/>
                <polygon id="Fill-30" fill="#FF7000" mask="url(#mask-12)" points="-5 8 8.741 8 8.741 -4.915 -5 -4.915"/>
            </g>
            <g id="Group-35" transform="translate(23.000000, 32.000000)">
                <mask id="mask-14" fill="white">
                    <use xlink:href="#path-13"/>
                </mask>
                <g id="Clip-34"/>
                <polygon id="Fill-33" fill="#FF7000" mask="url(#mask-14)" points="-5.147 -4.6232 10.843 -5.1822 11.401 10.8088 -4.589 11.3668"/>
            </g>
            <g id="Group-38" transform="translate(21.000000, 35.000000)">
                <mask id="mask-16" fill="white">
                    <use xlink:href="#path-15"/>
                </mask>
                <g id="Clip-37"/>
                <polygon id="Fill-36" fill="#FF7000" mask="url(#mask-16)" points="-4.5381 -4.7267 10.4519 -5.2497 10.9769 9.7403 -4.0151 10.2633"/>
            </g>
            <g id="Group-41" transform="translate(18.000000, 36.000000)">
                <mask id="mask-18" fill="white">
                    <use xlink:href="#path-17"/>
                </mask>
                <g id="Clip-40"/>
                <polygon id="Fill-39" fill="#FF7000" mask="url(#mask-18)" points="-4.6719 -4.2023 10.3071 -4.9873 11.0931 9.9917 -3.8869 10.7767"/>
            </g>
            <g id="Group-44" transform="translate(3.000000, 19.000000)">
                <mask id="mask-20" fill="white">
                    <use xlink:href="#path-19"/>
                </mask>
                <g id="Clip-43"/>
                <polygon id="Fill-42" fill="#FF7000" mask="url(#mask-20)" points="-5 20 14 20 14 -5 -5 -5"/>
            </g>
            <g id="Group-47" transform="translate(29.000000, 21.000000)">
                <mask id="mask-22" fill="white">
                    <use xlink:href="#path-21"/>
                </mask>
                <g id="Clip-46"/>
                <polygon id="Fill-45" fill="#FF7000" mask="url(#mask-22)" points="-5 20 16 20 16 -5 -5 -5"/>
            </g>
        </g>
    </g>
</svg>