<?xml version="1.0" encoding="UTF-8"?>
<svg width="48px" height="48px" viewBox="0 0 48 48" version="1.1" xmlns="http://www.w3.org/2000/svg" xmlns:xlink="http://www.w3.org/1999/xlink">
    <!-- Generator: Sketch 64 (93537) - https://sketch.com -->
    <title>icon_myeshop/unternehmenseinstellungen</title>
    <desc>Created with Sketch.</desc>
    <defs>
        <path d="M1,0 C0.447,0 0,0.448 0,1 L0,1 L0,23.999 C0,24.552 0.447,24.999 1,24.999 L1,24.999 L20,24.999 C20.552,24.999 21,24.552 21,23.999 L21,23.999 L21,1 C21,0.448 20.552,0 20,0 L20,0" id="path-1"/>
        <path d="M1,0 C0.447,0 0,0.448 0,1 L0,1 L0,23.999 C0,24.552 0.447,24.999 1,24.999 L1,24.999 L20,24.999 C20.552,24.999 21,24.552 21,23.999 L21,23.999 L21,1 C21,0.448 20.552,0 20,0 L20,0 L1,0 Z" id="path-3"/>
        <path d="M1,0 C0.448,0 0,0.448 0,1 L0,1 L0,41 C0,41.552 0.448,42 1,42 L1,42 L7.001,42 L7.001,31 L19,31 L19,42 L25.001,42 C25.552,42 26,41.552 26,41 L26,41 L26,1 C26,0.448 25.552,0 25.001,0 L25.001,0 L1,0 Z" id="path-5"/>
        <path d="M1,0 C0.448,0 0,0.448 0,1 L0,1 L0,41 C0,41.552 0.448,42 1,42 L1,42 L7.001,42 L7.001,31 L19,31 L19,42 L25.001,42 C25.552,42 26,41.552 26,41 L26,41 L26,1 C26,0.448 25.552,0 25.001,0 L25.001,0 L1,0 Z" id="path-7"/>
    </defs>
    <g id="icon_myeshop/unternehmenseinstellungen" stroke="none" stroke-width="1" fill="none" fill-rule="evenodd">
        <g id="Group-29" transform="translate(4.000000, 3.000000)">
            <g id="Group-6" transform="translate(19.000000, 12.000000)">
                <g id="Group-3">
                    <mask id="mask-2" fill="white">
                        <use xlink:href="#path-1"/>
                    </mask>
                    <g id="Clip-2"/>
                    <path d="M1.0001,0.0001 L20.0001,0.0001 C20.5521,0.0001 21.0001,0.4481 21.0001,1.0001 L21.0001,24.0001 C21.0001,24.5521 20.5521,25.0001 20.0001,25.0001 L1.0001,25.0001 C0.4481,25.0001 0.0001,24.5521 0.0001,24.0001 L0.0001,1.0001 C0.0001,0.4481 0.4481,0.0001 1.0001,0.0001" id="Fill-1" fill="#FFFFFF" mask="url(#mask-2)"/>
                </g>
                <mask id="mask-4" fill="white">
                    <use xlink:href="#path-3"/>
                </mask>
                <g id="Clip-5"/>
                <path d="M1.5,23.5 L19.5,23.5 L19.5,1.5 L1.5,1.5 L1.5,23.5 Z M20,26.5 L1,26.5 C-0.378,26.5 -1.5,25.379 -1.5,24 L-1.5,1 C-1.5,-0.378 -0.378,-1.5 1,-1.5 L20,-1.5 C21.379,-1.5 22.5,-0.378 22.5,1 L22.5,24 C22.5,25.379 21.379,26.5 20,26.5 L20,26.5 Z" id="Fill-4" fill="#818181" mask="url(#mask-4)"/>
            </g>
            <polygon id="Fill-7" fill="#818181" points="33.5 20.5 35.5 20.5 35.5 17.5 33.5 17.5"/>
            <polygon id="Fill-8" fill="#818181" points="33.5 25.5 35.5 25.5 35.5 22.5 33.5 22.5"/>
            <polygon id="Fill-9" fill="#818181" points="33.5 30.5 35.5 30.5 35.5 27.5 33.5 27.5"/>
            <polygon id="Fill-10" fill="#818181" points="30.5 20.5 32.5 20.5 32.5 17.5 30.5 17.5"/>
            <polygon id="Fill-11" fill="#818181" points="30.5 25.5 32.5 25.5 32.5 22.5 30.5 22.5"/>
            <polygon id="Fill-12" fill="#818181" points="30.5 30.5 32.5 30.5 32.5 27.5 30.5 27.5"/>
            <polygon id="Fill-13" fill="#818181" points="27.5 20.5 29.5 20.5 29.5 17.5 27.5 17.5"/>
            <polygon id="Fill-14" fill="#818181" points="27.5 25.5 29.5 25.5 29.5 22.5 27.5 22.5"/>
            <polygon id="Fill-15" fill="#818181" points="27.5 30.5 29.5 30.5 29.5 27.5 27.5 27.5"/>
            <g id="Group-22">
                <g id="Group-18">
                    <mask id="mask-6" fill="white">
                        <use xlink:href="#path-5"/>
                    </mask>
                    <g id="Clip-17"/>
                    <path d="M25.0001,0.0001 C25.5521,0.0001 26.0001,0.4481 26.0001,1.0001 L26.0001,41.0001 C26.0001,41.5521 25.5521,42.0001 25.0001,42.0001 L19.0001,42.0001 L19.0001,31.0001 L7.0001,31.0001 L7.0001,42.0001 L1.0001,42.0001 C0.4481,42.0001 0.0001,41.5521 0.0001,41.0001 L0.0001,1.0001 C0.0001,0.4481 0.4481,0.0001 1.0001,0.0001 L25.0001,0.0001 Z" id="Fill-16" fill="#FFFFFF" mask="url(#mask-6)"/>
                </g>
                <g id="Group-21">
                    <mask id="mask-8" fill="white">
                        <use xlink:href="#path-7"/>
                    </mask>
                    <g id="Clip-20"/>
                    <path d="M20.5001,40.4996 L24.5001,40.4996 L24.5001,1.4996 L1.5001,1.4996 L1.5001,40.4996 L5.5001,40.4996 L5.5001,29.4996 L20.5001,29.4996 L20.5001,40.4996 Z M25.0001,43.4996 L17.5001,43.4996 L17.5001,32.4996 L8.5001,32.4996 L8.5001,43.4996 L1.0001,43.4996 C-0.3779,43.4996 -1.4999,42.3786 -1.4999,40.9996 L-1.4999,0.9996 C-1.4999,-0.3784 -0.3779,-1.5004 1.0001,-1.5004 L25.0001,-1.5004 C26.3791,-1.5004 27.5001,-0.3784 27.5001,0.9996 L27.5001,40.9996 C27.5001,42.3786 26.3791,43.4996 25.0001,43.4996 L25.0001,43.4996 Z" id="Fill-19" fill="#FF7000" mask="url(#mask-8)"/>
                </g>
            </g>
            <polygon id="Fill-23" fill="#FF7000" points="6 16.001 20 16.001 20 15 6 15"/>
            <polygon id="Fill-24" fill="#FF7000" points="5.5 16.5 20.5 16.5 20.5 14.5 5.5 14.5"/>
            <polygon id="Fill-25" fill="#FF7000" points="6 23 20 23 20 22 6 22"/>
            <polygon id="Fill-26" fill="#FF7000" points="5.5 23.5 20.5 23.5 20.5 21.5 5.5 21.5"/>
            <polygon id="Fill-27" fill="#FF7000" points="6 9 20 9 20 8 6 8"/>
            <polygon id="Fill-28" fill="#FF7000" points="5.5 9.5 20.5 9.5 20.5 7.5 5.5 7.5"/>
        </g>
    </g>
</svg>