<?xml version="1.0" encoding="UTF-8"?>
<svg width="48px" height="48px" viewBox="0 0 48 48" version="1.1" xmlns="http://www.w3.org/2000/svg" xmlns:xlink="http://www.w3.org/1999/xlink">
    <!-- Generator: Sketch 64 (93537) - https://sketch.com -->
    <title>icon_myeshop/benutzer</title>
    <desc>Created with Sketch.</desc>
    <defs>
        <path d="M3.686,1.309 C2.564,1.642 1.738,2.596 1.568,3.754 L1.568,3.754 L0.671,9.913 C0.65,10.063 0.639,10.212 0.639937355,10.359 L0.639937355,10.359 C0.644,11.784 1.665,13.038 3.108,13.298 L3.108,13.298 L6.502,13.91 C10.636,14.653 14.87,14.653 19.002,13.91 L19.002,13.91 L22.477,13.283 C23.915,13.025 24.939,11.777 24.947,10.35 L24.947,10.35 C24.947,10.229 24.941,10.107 24.926,9.984 L24.926,9.984 L24.211,3.853 C24.07,2.646 23.216,1.643 22.046,1.313 L22.046,1.313 C18.946,0.437 15.848,0 12.752,0 L12.752,0 C9.661,0 6.639,0.436 3.686,1.309" id="path-1"/>
        <path d="M3.686,1.309 C2.564,1.642 1.738,2.596 1.568,3.754 L1.568,3.754 L0.671,9.913 C0.437,11.514 1.515,13.011 3.108,13.298 L3.108,13.298 L6.502,13.91 C10.636,14.653 14.87,14.653 19.002,13.91 L19.002,13.91 L22.477,13.283 C24.037,13.003 25.11,11.558 24.926,9.984 L24.926,9.984 L24.211,3.853 C24.07,2.646 23.216,1.643 22.046,1.313 L22.046,1.313 C18.946,0.437 15.848,0 12.752,0 L12.752,0 C9.661,0 6.639,0.436 3.686,1.309" id="path-3"/>
        <path d="M0,5.793 L0,8.321 C0,11.52 2.594,14.113 5.793,14.113 L5.793,14.113 C8.992,14.113 11.585,11.52 11.585,8.321 L11.585,8.321 L11.585,5.793 C11.585,2.593 8.992,0 5.793,0 L5.793,0 C2.594,0 0,2.593 0,5.793" id="path-5"/>
        <path d="M0,5.793 L0,8.321 C0,11.52 2.594,14.113 5.793,14.113 L5.793,14.113 C8.992,14.113 11.585,11.52 11.585,8.321 L11.585,8.321 L11.585,5.793 C11.585,2.593 8.992,0 5.793,0 L5.793,0 C2.594,0 0,2.593 0,5.793" id="path-7"/>
        <path d="M3.686,1.309 C2.564,1.642 1.737,2.596 1.569,3.754 L1.569,3.754 L0.671,9.913 C0.649,10.063 0.638,10.212 0.638937427,10.359 L0.638937427,10.359 C0.645,11.784 1.665,13.038 3.108,13.298 L3.108,13.298 L6.503,13.91 C10.635,14.653 14.869,14.653 19.003,13.91 L19.003,13.91 L22.478,13.283 C23.916,13.025 24.939,11.777 24.946,10.35 L24.946,10.35 C24.946,10.229 24.94,10.107 24.926,9.984 L24.926,9.984 L24.211,3.853 C24.071,2.646 23.216,1.643 22.046,1.313 L22.046,1.313 C18.945,0.437 15.847,0 12.752,0 L12.752,0 C9.662,0 6.639,0.436 3.686,1.309" id="path-9"/>
        <path d="M3.686,1.309 C2.564,1.642 1.737,2.596 1.569,3.754 L1.569,3.754 L0.671,9.913 C0.438,11.514 1.516,13.011 3.108,13.298 L3.108,13.298 L6.503,13.91 C10.635,14.653 14.869,14.653 19.003,13.91 L19.003,13.91 L22.478,13.283 C24.037,13.003 25.109,11.558 24.926,9.984 L24.926,9.984 L24.211,3.853 C24.071,2.646 23.216,1.643 22.046,1.313 L22.046,1.313 C18.945,0.437 15.847,0 12.752,0 L12.752,0 C9.662,0 6.639,0.436 3.686,1.309" id="path-11"/>
        <path d="M0,5.793 L0,8.321 C0,11.52 2.593,14.113 5.793,14.113 L5.793,14.113 C8.992,14.113 11.585,11.52 11.585,8.321 L11.585,8.321 L11.585,5.793 C11.585,2.593 8.992,0 5.793,0 L5.793,0 C2.593,0 0,2.593 0,5.793" id="path-13"/>
        <path d="M0,5.793 L0,8.321 C0,11.52 2.593,14.113 5.793,14.113 L5.793,14.113 C8.992,14.113 11.585,11.52 11.585,8.321 L11.585,8.321 L11.585,5.793 C11.585,2.593 8.992,0 5.793,0 L5.793,0 C2.593,0 0,2.593 0,5.793" id="path-15"/>
        <path d="M5.206,1.779 C3.307,2.309 1.898,3.906 1.606,5.856 L1.606,5.856 L0.443,13.646 C0.406,13.897 0.387,14.147 0.387,14.393 L0.387,14.393 C0.389,16.781 2.103,18.885 4.523,19.309 L4.523,19.309 L9.572,20.196 C15.296,21.201 21.151,21.201 26.875,20.196 L26.875,20.196 L32.062,19.284 C34.472,18.861 36.19,16.769 36.1980577,14.38 L36.1980577,14.38 C36.199,14.178 36.187,13.973 36.163,13.767 L36.163,13.767 L35.236,6.022 C34.994,3.99 33.539,2.312 31.563,1.785 L31.563,1.785 C27.112,0.595 22.666,0 18.223,0 L18.223,0 C13.788,0 9.449,0.593 5.206,1.779" id="path-17"/>
        <path d="M5.206,1.779 C3.307,2.309 1.898,3.906 1.606,5.856 L1.606,5.856 L0.443,13.646 C0.043,16.328 1.853,18.84 4.523,19.309 L4.523,19.309 L9.572,20.196 C15.296,21.201 21.151,21.201 26.875,20.196 L26.875,20.196 L32.062,19.284 C34.677,18.825 36.477,16.402 36.163,13.767 L36.163,13.767 L35.236,6.022 C34.994,3.99 33.539,2.312 31.563,1.785 L31.563,1.785 C27.112,0.595 22.666,0 18.223,0 L18.223,0 C13.788,0 9.449,0.593 5.206,1.779 L5.206,1.779 Z" id="path-19"/>
        <path d="M8.72,0 C4.302,0 0.72,3.582 0.72,8 L0.72,8 L0.72,12.386 C0.72,16.805 4.302,20.387 8.72,20.387 L8.72,20.387 L9.865,20.387 C14.284,20.387 17.866,16.805 17.866,12.386 L17.866,12.386 L17.866,8 C17.866,3.582 14.284,0 9.865,0 L9.865,0" id="path-21"/>
        <path d="M8.72,0 C4.302,0 0.72,3.582 0.72,8 L0.72,8 L0.72,12.386 C0.72,16.805 4.302,20.387 8.72,20.387 L8.72,20.387 L9.865,20.387 C14.284,20.387 17.866,16.805 17.866,12.386 L17.866,12.386 L17.866,8 C17.866,3.582 14.284,0 9.865,0 L9.865,0 L8.72,0 Z" id="path-23"/>
    </defs>
    <g id="icon_myeshop/benutzer" stroke="none" stroke-width="1" fill="none" fill-rule="evenodd">
        <g id="Group-40" transform="translate(1.000000, 2.000000)">
            <g id="Group-3" transform="translate(21.000000, 12.000000)">
                <mask id="mask-2" fill="white">
                    <use xlink:href="#path-1"/>
                </mask>
                <g id="Clip-2"/>
                <path d="M0.6709,9.9129 L1.5679,3.7539 C1.7369,2.5959 2.5639,1.6419 3.6869,1.3099 C6.6389,0.4369 9.6609,-0.0001 12.7519,-0.0001 C15.8479,-0.0001 18.9449,0.4379 22.0459,1.3129 C23.2159,1.6429 24.0699,2.6459 24.2109,3.8529 L24.9259,9.9839 C25.1089,11.5579 24.0369,13.0029 22.4779,13.2839 L19.0019,13.9099 C14.8689,14.6529 10.6359,14.6529 6.5019,13.9099 L3.1079,13.2979 C1.5159,13.0109 0.4379,11.5139 0.6709,9.9129" id="Fill-1" fill="#FFFFFF" mask="url(#mask-2)"/>
            </g>
            <g id="Group-6" transform="translate(21.000000, 12.000000)">
                <mask id="mask-4" fill="white">
                    <use xlink:href="#path-3"/>
                </mask>
                <g id="Clip-5"/>
                <path d="M12.752,1.4998 C9.82,1.4998 6.913,1.9198 4.112,2.7488 C3.553,2.9138 3.137,3.3938 3.053,3.9708 L2.155,10.1288 C2.038,10.9338 2.573,11.6778 3.374,11.8218 L6.768,12.4328 C10.738,13.1478 14.766,13.1478 18.736,12.4328 L22.212,11.8068 C22.99,11.6668 23.527,10.9428 23.436,10.1578 L22.721,4.0268 C22.65,3.4208 22.226,2.9228 21.639,2.7568 C18.685,1.9228 15.694,1.4998 12.752,1.4998 M12.752,15.9688 C10.575,15.9688 8.398,15.7748 6.236,15.3858 L2.842,14.7748 C0.44,14.3408 -1.165,12.1108 -0.813,9.6968 L0.084,3.5378 C0.336,1.8068 1.584,0.3678 3.261,-0.1282 C9.414,-1.9482 16.014,-1.9492 22.453,-0.1302 C24.214,0.3668 25.489,1.8618 25.701,3.6788 L26.416,9.8098 C26.69,12.1668 25.077,14.3398 22.743,14.7598 L19.268,15.3858 C17.106,15.7748 14.929,15.9688 12.752,15.9688" id="Fill-4" fill="#818181" mask="url(#mask-4)"/>
            </g>
            <g id="Group-13" transform="translate(28.000000, 0.000000)">
                <g id="Group-9">
                    <mask id="mask-6" fill="white">
                        <use xlink:href="#path-5"/>
                    </mask>
                    <g id="Clip-8"/>
                    <path d="M5.793,-0.0002 C8.992,-0.0002 11.585,2.5938 11.585,5.7928 L11.585,8.3208 C11.585,11.5208 8.992,14.1138 5.793,14.1138 C2.594,14.1138 0,11.5208 0,8.3208 L0,5.7928 C0,2.5938 2.594,-0.0002 5.793,-0.0002" id="Fill-7" fill="#FFFFFF" mask="url(#mask-6)"/>
                </g>
                <g id="Group-12">
                    <mask id="mask-8" fill="white">
                        <use xlink:href="#path-7"/>
                    </mask>
                    <g id="Clip-11"/>
                    <path d="M5.793,1.4998 C3.426,1.4998 1.5,3.4258 1.5,5.7928 L1.5,8.3208 C1.5,10.6878 3.426,12.6138 5.793,12.6138 C8.159,12.6138 10.085,10.6878 10.085,8.3208 L10.085,5.7928 C10.085,3.4258 8.159,1.4998 5.793,1.4998 M5.793,15.6138 C1.772,15.6138 -1.5,12.3418 -1.5,8.3208 L-1.5,5.7928 C-1.5,1.7708 1.772,-1.5002 5.793,-1.5002 C9.814,-1.5002 13.085,1.7708 13.085,5.7928 L13.085,8.3208 C13.085,12.3418 9.814,15.6138 5.793,15.6138" id="Fill-10" fill="#818181" mask="url(#mask-8)"/>
                </g>
            </g>
            <g id="Group-16" transform="translate(0.000000, 12.000000)">
                <mask id="mask-10" fill="white">
                    <use xlink:href="#path-9"/>
                </mask>
                <g id="Clip-15"/>
                <path d="M0.6709,9.9129 L1.5679,3.7539 C1.7369,2.5959 2.5639,1.6419 3.6859,1.3099 C6.6389,0.4369 9.6609,-0.0001 12.7529,-0.0001 C15.8479,-0.0001 18.9449,0.4379 22.0459,1.3129 C23.2149,1.6429 24.0699,2.6459 24.2109,3.8529 L24.9259,9.9839 C25.1089,11.5579 24.0369,13.0029 22.4779,13.2839 L19.0029,13.9099 C14.8689,14.6529 10.6359,14.6529 6.5029,13.9099 L3.1079,13.2979 C1.5159,13.0109 0.4379,11.5139 0.6709,9.9129" id="Fill-14" fill="#FFFFFF" mask="url(#mask-10)"/>
            </g>
            <g id="Group-19" transform="translate(0.000000, 12.000000)">
                <mask id="mask-12" fill="white">
                    <use xlink:href="#path-11"/>
                </mask>
                <g id="Clip-18"/>
                <path d="M12.7525,1.4998 C9.8205,1.4998 6.9135,1.9198 4.1115,2.7488 C3.5525,2.9138 3.1365,3.3938 3.0525,3.9708 L2.1555,10.1288 C2.0385,10.9338 2.5735,11.6778 3.3745,11.8218 L6.7685,12.4328 C10.7395,13.1478 14.7655,13.1478 18.7365,12.4328 L22.2115,11.8068 C22.9895,11.6668 23.5275,10.9428 23.4365,10.1578 L22.7215,4.0268 C22.6505,3.4208 22.2255,2.9228 21.6385,2.7568 C18.6845,1.9228 15.6945,1.4998 12.7525,1.4998 M12.7525,15.9688 C10.5755,15.9688 8.3985,15.7748 6.2365,15.3858 L2.8425,14.7748 C0.4395,14.3408 -1.1655,12.1108 -0.8135,9.6968 L0.0845,3.5378 C0.3365,1.8068 1.5835,0.3678 3.2605,-0.1282 C9.4155,-1.9482 16.0125,-1.9492 22.4545,-0.1302 C24.2145,0.3668 25.4895,1.8618 25.7015,3.6788 L26.4165,9.8098 C26.6905,12.1668 25.0775,14.3398 22.7425,14.7598 L19.2685,15.3858 C17.1065,15.7748 14.9295,15.9688 12.7525,15.9688" id="Fill-17" fill="#818181" mask="url(#mask-12)"/>
            </g>
            <g id="Group-26" transform="translate(7.000000, 0.000000)">
                <g id="Group-22">
                    <mask id="mask-14" fill="white">
                        <use xlink:href="#path-13"/>
                    </mask>
                    <g id="Clip-21"/>
                    <path d="M5.7925,-0.0002 C8.9915,-0.0002 11.5855,2.5938 11.5855,5.7928 L11.5855,8.3208 C11.5855,11.5208 8.9915,14.1138 5.7925,14.1138 C2.5935,14.1138 0.0005,11.5208 0.0005,8.3208 L0.0005,5.7928 C0.0005,2.5938 2.5935,-0.0002 5.7925,-0.0002" id="Fill-20" fill="#FFFFFF" mask="url(#mask-14)"/>
                </g>
                <g id="Group-25">
                    <mask id="mask-16" fill="white">
                        <use xlink:href="#path-15"/>
                    </mask>
                    <g id="Clip-24"/>
                    <path d="M5.7925,1.4998 C3.4255,1.4998 1.5005,3.4258 1.5005,5.7928 L1.5005,8.3208 C1.5005,10.6878 3.4255,12.6138 5.7925,12.6138 C8.1595,12.6138 10.0855,10.6878 10.0855,8.3208 L10.0855,5.7928 C10.0855,3.4258 8.1595,1.4998 5.7925,1.4998 M5.7925,15.6138 C1.7715,15.6138 -1.4995,12.3418 -1.4995,8.3208 L-1.4995,5.7928 C-1.4995,1.7708 1.7715,-1.5002 5.7925,-1.5002 C9.8135,-1.5002 13.0855,1.7708 13.0855,5.7928 L13.0855,8.3208 C13.0855,12.3418 9.8135,15.6138 5.7925,15.6138" id="Fill-23" fill="#818181" mask="url(#mask-16)"/>
                </g>
            </g>
            <g id="Group-29" transform="translate(5.000000, 23.000000)">
                <mask id="mask-18" fill="white">
                    <use xlink:href="#path-17"/>
                </mask>
                <g id="Clip-28"/>
                <path d="M0.4429,13.6458 L1.6069,5.8558 C1.8979,3.9058 3.3069,2.3088 5.2059,1.7788 C9.4489,0.5928 13.7879,-0.0002 18.2229,-0.0002 C22.6659,-0.0002 27.1119,0.5948 31.5629,1.7848 C33.5389,2.3118 34.9939,3.9908 35.2359,6.0218 L36.1619,13.7668 C36.4769,16.4028 34.6769,18.8258 32.0629,19.2848 L26.8749,20.1958 C21.1509,21.2018 15.2959,21.2018 9.5719,20.1958 L4.5229,19.3088 C1.8529,18.8398 0.0429,16.3278 0.4429,13.6458" id="Fill-27" fill="#FFFFFF" mask="url(#mask-18)"/>
            </g>
            <g id="Group-32" transform="translate(5.000000, 23.000000)">
                <mask id="mask-20" fill="white">
                    <use xlink:href="#path-19"/>
                </mask>
                <g id="Clip-31"/>
                <path d="M1.9263,13.8675 C1.6443,15.7595 2.8983,17.5005 4.7823,17.8315 L9.8313,18.7185 C15.4003,19.6965 21.0473,19.6965 26.6153,18.7185 L31.8023,17.8065 C33.6323,17.4855 34.8923,15.7895 34.6733,13.9445 L33.7473,6.1995 C33.5763,4.7685 32.5673,3.6045 31.1763,3.2335 C22.5793,0.9355 13.8063,0.9315 5.6103,3.2225 C4.2823,3.5945 3.2933,4.7145 3.0903,6.0775 L1.9263,13.8675 Z M18.2233,22.4525 C15.2463,22.4525 12.2693,22.1925 9.3123,21.6735 L4.2633,20.7865 C0.7643,20.1725 -1.5657,16.9385 -1.0407,13.4245 L0.1233,5.6345 C0.5003,3.1025 2.3373,1.0215 4.8023,0.3345 C13.5143,-2.1005 22.8373,-2.0995 31.9503,0.3355 C34.5343,1.0245 36.4093,3.1865 36.7253,5.8445 L37.6513,13.5895 C38.0603,17.0145 35.7183,20.1655 32.3223,20.7625 L27.1343,21.6735 C24.1783,22.1925 21.2003,22.4525 18.2233,22.4525 L18.2233,22.4525 Z" id="Fill-30" fill="#FF7000" mask="url(#mask-20)"/>
            </g>
            <g id="Group-39" transform="translate(14.000000, 6.000000)">
                <g id="Group-35">
                    <mask id="mask-22" fill="white">
                        <use xlink:href="#path-21"/>
                    </mask>
                    <g id="Clip-34"/>
                    <path d="M8.7193,-0.0002 L9.8653,-0.0002 C14.2843,-0.0002 17.8663,3.5818 17.8663,7.9998 L17.8663,12.3868 C17.8663,16.8048 14.2843,20.3858 9.8653,20.3858 L8.7193,20.3858 C4.3013,20.3858 0.7193,16.8048 0.7193,12.3868 L0.7193,7.9998 C0.7193,3.5818 4.3013,-0.0002 8.7193,-0.0002" id="Fill-33" fill="#FFFFFF" mask="url(#mask-22)"/>
                </g>
                <g id="Group-38">
                    <mask id="mask-24" fill="white">
                        <use xlink:href="#path-23"/>
                    </mask>
                    <g id="Clip-37"/>
                    <path d="M8.7193,1.4998 C5.1353,1.4998 2.2193,4.4158 2.2193,7.9998 L2.2193,12.3868 C2.2193,15.9708 5.1353,18.8858 8.7193,18.8858 L9.8653,18.8858 C13.4503,18.8858 16.3663,15.9708 16.3663,12.3868 L16.3663,7.9998 C16.3663,4.4158 13.4503,1.4998 9.8653,1.4998 L8.7193,1.4998 Z M9.8653,21.8858 L8.7193,21.8858 C3.4813,21.8858 -0.7807,17.6248 -0.7807,12.3868 L-0.7807,7.9998 C-0.7807,2.7618 3.4813,-1.5002 8.7193,-1.5002 L9.8653,-1.5002 C15.1043,-1.5002 19.3663,2.7618 19.3663,7.9998 L19.3663,12.3868 C19.3663,17.6248 15.1043,21.8858 9.8653,21.8858 L9.8653,21.8858 Z" id="Fill-36" fill="#FF7000" mask="url(#mask-24)"/>
                </g>
            </g>
        </g>
    </g>
</svg>