<?xml version="1.0" encoding="UTF-8"?>
<svg width="48px" height="48px" viewBox="0 0 48 48" version="1.1" xmlns="http://www.w3.org/2000/svg" xmlns:xlink="http://www.w3.org/1999/xlink">
    <title>icon_myeshop/hilfe</title>
    <defs>
        <path d="M4.001,0 C1.79,0 0,1.791 0,4 L0,4 L0,21 C0,23.209 1.79,25 4.001,25 L4.001,25 L5.001,25 L5.001,32 L14.001,25 L29,25 C31.21,25 33.001,23.209 33.001,21 L33.001,21 L33.001,4 C33.001,1.791 31.21,0 29,0 L29,0" id="path-1"></path>
        <path d="M4.001,0 C1.79,0 0,1.791 0,4 L0,4 L0,21 C0,23.209 1.79,25 4.001,25 L4.001,25 L5.001,25 L5.001,32 L14.001,25 L29,25 C31.21,25 33.001,23.209 33.001,21 L33.001,21 L33.001,4 C33.001,1.791 31.21,0 29,0 L29,0 L4.001,0 Z" id="path-3"></path>
        <path d="M4,0 C1.791,0 0.001,1.791 0.001,4 L0.001,4 L0.001,17 C0.001,19.209 1.791,21 4,21 L4,21 L16.231,21 L23.538,26 L23.616,21 L24,21 C26.21,21 28.001,19.209 28.001,17 L28.001,17 L28.001,4 C28.001,1.791 26.21,0 24,0 L24,0" id="path-5"></path>
        <path d="M4,0 C1.791,0 0.001,1.791 0.001,4 L0.001,4 L0.001,17 C0.001,19.209 1.791,21 4,21 L4,21 L16.231,21 L23.538,26 L23.616,21 L24,21 C26.21,21 28.001,19.209 28.001,17 L28.001,17 L28.001,4 C28.001,1.791 26.21,0 24,0 L24,0 L4,0 Z" id="path-7"></path>
        <path d="M1.014,0.875 C0.349,1.458 0.012,2.224 0.001,3.173 L0.001,3.173 L1.627,3.173 C1.627,2.64 1.807,2.214 2.171,1.898 L2.171,1.898 C2.535,1.582 3.014,1.423 3.611,1.423 L3.611,1.423 C4.227,1.423 4.696,1.598 5.018,1.945 L5.018,1.945 C5.341,2.294 5.502,2.774 5.502,3.389 L5.502,3.389 C5.502,4.025 5.257,4.622 4.763,5.177 L4.763,5.177 L3.611,6.362 C3.161,6.854 2.862,7.3 2.716,7.705 L2.716,7.705 C2.569,8.108 2.49,8.658 2.478,9.355 L2.478,9.355 L4.104,9.355 C4.104,8.465 4.318,7.783 4.746,7.31 L4.746,7.31 L5.705,6.362 C6.652,5.366 7.129,4.358 7.129,3.335 L7.129,3.335 C7.129,2.299 6.818,1.484 6.201,0.891 L6.201,0.891 C5.582,0.297 4.72,0 3.611,0 L3.611,0 C2.547,0 1.679,0.292 1.014,0.875 L1.014,0.875 Z M2.649,11.477 C2.488,11.657 2.409,11.88 2.409,12.147 L2.409,12.147 C2.409,12.414 2.488,12.633 2.649,12.808 L2.649,12.808 C2.81,12.983 3.051,13.069 3.367,13.069 L3.367,13.069 C3.682,13.069 3.924,12.983 4.087,12.808 L4.087,12.808 C4.251,12.633 4.333,12.414 4.333,12.147 L4.333,12.147 C4.333,11.88 4.251,11.657 4.087,11.477 L4.087,11.477 C3.924,11.296 3.682,11.206 3.367,11.206 L3.367,11.206 C3.051,11.206 2.81,11.296 2.649,11.477 L2.649,11.477 Z" id="path-9"></path>
        <path d="M0.062,0 L0.175,9.17 L1.644,9.17 L1.767,0 L0.062,0 Z M0.242,11.301 C0.08,11.482 -0.001,11.706 -0.001,11.971 L-0.001,11.971 C-0.001,12.237 0.08,12.457 0.242,12.632 L0.242,12.632 C0.403,12.806 0.642,12.893 0.958,12.893 L0.958,12.893 C1.275,12.893 1.514,12.806 1.678,12.632 L1.678,12.632 C1.843,12.457 1.924,12.237 1.924,11.971 L1.924,11.971 C1.924,11.706 1.843,11.482 1.678,11.301 L1.678,11.301 C1.514,11.12 1.275,11.031 0.958,11.031 L0.958,11.031 C0.642,11.031 0.403,11.12 0.242,11.301 L0.242,11.301 Z" id="path-11"></path>
    </defs>
    <g id="icon_myeshop/hilfe" stroke="none" stroke-width="1" fill="none" fill-rule="evenodd">
        <g id="Group-21" transform="translate(3.000000, 4.000000)">
            <g id="Group-7">
                <g id="Group-3">
                    <mask id="mask-2" fill="white">
                        <use xlink:href="#path-1"></use>
                    </mask>
                    <g id="Clip-2"></g>
                    <path d="M4.0005,0 L29.0005,0 C31.2095,0 33.0005,1.791 33.0005,4 L33.0005,21 C33.0005,23.209 31.2095,25 29.0005,25 L14.0005,25 L5.0005,32 L5.0005,25 L4.0005,25 C1.7905,25 0.0005,23.209 0.0005,21 L0.0005,4 C0.0005,1.791 1.7905,0 4.0005,0" id="Fill-1" fill="#FFFFFF" mask="url(#mask-2)"></path>
                </g>
                <g id="Group-6">
                    <mask id="mask-4" fill="white">
                        <use xlink:href="#path-3"></use>
                    </mask>
                    <g id="Clip-5"></g>
                    <path d="M4.0005,1.5 C2.6215,1.5 1.5005,2.622 1.5005,4 L1.5005,21 C1.5005,22.379 2.6215,23.5 4.0005,23.5 L6.5005,23.5 L6.5005,28.933 L13.4855,23.5 L29.0005,23.5 C30.3795,23.5 31.5005,22.379 31.5005,21 L31.5005,4 C31.5005,2.622 30.3795,1.5 29.0005,1.5 L4.0005,1.5 Z M3.5005,35.067 L3.5005,26.478 C0.7005,26.225 -1.4995,23.864 -1.4995,21 L-1.4995,4 C-1.4995,0.967 0.9685,-1.5 4.0005,-1.5 L29.0005,-1.5 C32.0325,-1.5 34.5005,0.967 34.5005,4 L34.5005,21 C34.5005,24.032 32.0325,26.5 29.0005,26.5 L14.5155,26.5 L3.5005,35.067 Z" id="Fill-4" fill="#818181" mask="url(#mask-4)"></path>
                </g>
            </g>
            <g id="Group-14" transform="translate(14.000000, 14.000000)">
                <g id="Group-10">
                    <mask id="mask-6" fill="white">
                        <use xlink:href="#path-5"></use>
                    </mask>
                    <g id="Clip-9"></g>
                    <path d="M4.0005,0 L24.0005,0 C26.2095,0 28.0005,1.791 28.0005,4 L28.0005,17 C28.0005,19.209 26.2095,21 24.0005,21 L23.6155,21 L23.5385,26 L16.2305,21 L4.0005,21 C1.7905,21 0.0005,19.209 0.0005,17 L0.0005,4 C0.0005,1.791 1.7905,0 4.0005,0" id="Fill-8" fill="#FFFFFF" mask="url(#mask-6)"></path>
                </g>
                <g id="Group-13">
                    <mask id="mask-8" fill="white">
                        <use xlink:href="#path-7"></use>
                    </mask>
                    <g id="Clip-12"></g>
                    <path d="M4.0005,1.5 C2.6215,1.5 1.5005,2.622 1.5005,4 L1.5005,17 C1.5005,18.379 2.6215,19.5 4.0005,19.5 L16.6945,19.5 L22.0815,23.186 L22.1395,19.5 L24.0005,19.5 C25.3795,19.5 26.5005,18.379 26.5005,17 L26.5005,4 C26.5005,2.622 25.3795,1.5 24.0005,1.5 L4.0005,1.5 Z M24.9955,28.814 L15.7675,22.5 L4.0005,22.5 C0.9685,22.5 -1.4995,20.032 -1.4995,17 L-1.4995,4 C-1.4995,0.967 0.9685,-1.5 4.0005,-1.5 L24.0005,-1.5 C27.0325,-1.5 29.5005,0.967 29.5005,4 L29.5005,17 C29.5005,19.658 27.6045,21.882 25.0945,22.391 L24.9955,28.814 Z" id="Fill-11" fill="#FF7000" mask="url(#mask-8)"></path>
                </g>
            </g>
            <g id="Group-17" transform="translate(6.000000, 5.000000)">
                <mask id="mask-10" fill="white">
                    <use xlink:href="#path-9"></use>
                </mask>
                <g id="Clip-16"></g>
                <polygon id="Fill-15" fill="#818181" mask="url(#mask-10)" points="-5 18.07 12.128 18.07 12.128 -5 -5 -5"></polygon>
            </g>
            <g id="Group-20" transform="translate(27.000000, 18.000000)">
                <mask id="mask-12" fill="white">
                    <use xlink:href="#path-11"></use>
                </mask>
                <g id="Clip-19"></g>
                <polygon id="Fill-18" fill="#FF7000" mask="url(#mask-12)" points="-5.001 17.894 6.924 17.894 6.924 -5 -5.001 -5"></polygon>
            </g>
        </g>
    </g>
</svg>