<?xml version="1.0" encoding="UTF-8"?>
<svg width="48px" height="48px" viewBox="0 0 48 48" version="1.1" xmlns="http://www.w3.org/2000/svg" xmlns:xlink="http://www.w3.org/1999/xlink">
    <!-- Generator: Sketch 64 (93537) - https://sketch.com -->
    <title>icon_myeshop/produktfilter</title>
    <desc>Created with Sketch.</desc>
    <defs>
        <path d="M0,2.501 L0,12.499 C0,13.88 1.12,15 2.5,15 L2.5,15 C3.881,15 5,13.88 5,12.499 L5,12.499 L5,2.501 C5,1.119 3.881,0 2.5,0 L2.5,0 C1.12,0 0,1.119 0,2.501" id="path-1"/>
        <path d="M0,2.501 L0,12.499 C0,13.88 1.12,15 2.5,15 L2.5,15 C3.881,15 5,13.88 5,12.499 L5,12.499 L5,2.501 C5,1.119 3.881,0 2.5,0 L2.5,0 C1.12,0 0,1.119 0,2.501" id="path-3"/>
        <path d="M2,0 C0.896,0 0,0.895 0,2.001 L0,2.001 L0,3 C0,4.105 0.896,5 2,5 L2,5 L6,5 C7.105,5 8,4.105 8,3 L8,3 L8,2.001 C8,0.895 7.105,0 6,0 L6,0" id="path-5"/>
        <path d="M2,0 C0.896,0 0,0.895 0,2.001 L0,2.001 L0,3 C0,4.105 0.896,5 2,5 L2,5 L6,5 C7.105,5 8,4.105 8,3 L8,3 L8,2.001 C8,0.895 7.105,0 6,0 L6,0 L2,0 Z" id="path-7"/>
        <path d="M0,0 L5.135,7.5 L13.894,7.5 C15.697,7.5 17.276,6.295 17.752,4.556 L17.752,4.556 L19,0 L0,0 Z" id="path-9"/>
        <path d="M0,0 L5.135,7.5 L13.894,7.5 C15.697,7.5 17.276,6.295 17.752,4.556 L17.752,4.556 L19,0 L0,0 Z" id="path-11"/>
        <path d="M-0.001,-0.001 L0.999,16 L6.999,16 C9.21,16 10.999,14.21 10.999,11.999 L10.999,11.999 L10.999,-0.001 L-0.001,-0.001 Z" id="path-13"/>
        <path d="M-0.001,-0.001 L0.999,16 L6.999,16 C9.21,16 10.999,14.21 10.999,11.999 L10.999,11.999 L10.999,-0.001 L-0.001,-0.001 Z" id="path-15"/>
        <path d="M2,0 C0.896,0 0,0.896 0,2 L0,2 L0,9 C0,10.104 0.896,11 2,11 L2,11 L31,11 C33.209,11 34.999,9.209 34.999,7 L34.999,7 L34.999,2 C34.999,0.896 34.105,0 33,0 L33,0" id="path-17"/>
        <path d="M2,0 C0.896,0 0,0.896 0,2 L0,2 L0,9 C0,10.104 0.896,11 2,11 L2,11 L31,11 C33.209,11 34.999,9.209 34.999,7 L34.999,7 L34.999,2 C34.999,0.896 34.105,0 33,0 L33,0 L2,0 Z" id="path-19"/>
    </defs>
    <g id="icon_myeshop/produktfilter" stroke="none" stroke-width="1" fill="none" fill-rule="evenodd">
        <g id="Group-42" transform="translate(2.000000, 2.000000)">
            <polygon id="Fill-1" fill="#FFFFFF" points="21.9998 12.1008 9.9798 0.0798 0.0798 9.9798 12.0998 21.9988 0.0798 34.0208 9.9798 43.9208 21.9988 31.8988 34.0208 43.9208 43.9198 34.0208 31.8998 21.9998 43.9198 9.9798 34.0208 0.0798"/>
            <path d="M21.9998,12.1008 L9.9798,0.0798 L0.0798,9.9798 L12.0998,21.9988 L0.0798,34.0208 L9.9798,43.9208 L21.9988,31.8988 L34.0208,43.9208 L43.9198,34.0208 L31.8998,21.9998 L43.9198,9.9798 L34.0208,0.0798 L21.9998,12.1008 Z M34.0208,2.2008 L41.7988,9.9798 L29.7788,21.9998 L41.7988,34.0208 L34.0208,41.7988 L21.9998,29.7778 L9.9798,41.7988 L2.2008,34.0208 L14.2208,21.9988 L2.2008,9.9798 L9.9798,2.2008 L21.9998,14.2218 L34.0208,2.2008 Z" id="Fill-2" fill="#FF7000"/>
            <g id="Group-9" transform="translate(11.000000, 18.000000)">
                <g id="Group-5">
                    <mask id="mask-2" fill="white">
                        <use xlink:href="#path-1"/>
                    </mask>
                    <g id="Clip-4"/>
                    <path d="M2.5,0.0001 C3.881,0.0001 5,1.1191 5,2.5001 L5,12.5001 C5,13.8801 3.881,15.0001 2.5,15.0001 C1.119,15.0001 0,13.8801 0,12.5001 L0,2.5001 C0,1.1191 1.119,0.0001 2.5,0.0001" id="Fill-3" fill="#FFFFFF" mask="url(#mask-2)"/>
                </g>
                <g id="Group-8">
                    <mask id="mask-4" fill="white">
                        <use xlink:href="#path-3"/>
                    </mask>
                    <g id="Clip-7"/>
                    <path d="M2.5,1.5001 C1.949,1.5001 1.5,1.9491 1.5,2.5001 L1.5,12.5001 C1.5,13.0511 1.949,13.5001 2.5,13.5001 C3.051,13.5001 3.5,13.0511 3.5,12.5001 L3.5,2.5001 C3.5,1.9491 3.051,1.5001 2.5,1.5001 M2.5,16.5001 C0.294,16.5001 -1.5,14.7061 -1.5,12.5001 L-1.5,2.5001 C-1.5,0.2941 0.294,-1.4999 2.5,-1.4999 C4.706,-1.4999 6.5,0.2941 6.5,2.5001 L6.5,12.5001 C6.5,14.7061 4.706,16.5001 2.5,16.5001" id="Fill-6" fill="#818181" mask="url(#mask-4)"/>
                </g>
            </g>
            <g id="Group-16" transform="translate(0.000000, 14.000000)">
                <g id="Group-12">
                    <mask id="mask-6" fill="white">
                        <use xlink:href="#path-5"/>
                    </mask>
                    <g id="Clip-11"/>
                    <path d="M8,2.0001 L8,3.0001 C8,4.1041 7.104,5.0001 6,5.0001 L2,5.0001 C0.896,5.0001 0,4.1041 0,3.0001 L0,2.0001 C0,0.8961 0.896,0.0001 2,0.0001 L6,0.0001 C7.104,0.0001 8,0.8961 8,2.0001" id="Fill-10" fill="#FFFFFF" mask="url(#mask-6)"/>
                </g>
                <g id="Group-15">
                    <mask id="mask-8" fill="white">
                        <use xlink:href="#path-7"/>
                    </mask>
                    <g id="Clip-14"/>
                    <path d="M2,1.5001 C1.724,1.5001 1.5,1.7241 1.5,2.0001 L1.5,3.0001 C1.5,3.2761 1.724,3.5001 2,3.5001 L6,3.5001 C6.276,3.5001 6.5,3.2761 6.5,3.0001 L6.5,2.0001 C6.5,1.7241 6.276,1.5001 6,1.5001 L2,1.5001 Z M6,6.5001 L2,6.5001 C0.07,6.5001 -1.5,4.9301 -1.5,3.0001 L-1.5,2.0001 C-1.5,0.0701 0.07,-1.4999 2,-1.4999 L6,-1.4999 C7.93,-1.4999 9.5,0.0701 9.5,2.0001 L9.5,3.0001 C9.5,4.9301 7.93,6.5001 6,6.5001 L6,6.5001 Z" id="Fill-13" fill="#818181" mask="url(#mask-8)"/>
                </g>
            </g>
            <polygon id="Fill-17" fill="#FFFFFF" points="4 20 11 20 11 13 4 13"/>
            <path d="M4,20 L11,20 L11,13 L4,13 L4,20 Z M5.5,18.5 L9.5,18.5 L9.5,14.5 L5.5,14.5 L5.5,18.5 Z" id="Fill-18" fill="#818181"/>
            <g id="Group-25" transform="translate(22.000000, 20.000000)">
                <g id="Group-21">
                    <mask id="mask-10" fill="white">
                        <use xlink:href="#path-9"/>
                    </mask>
                    <g id="Clip-20"/>
                    <path d="M0,0.0001 L5.135,7.5001 L13.894,7.5001 C15.697,7.5001 17.276,6.2941 17.752,4.5561 L19,0.0001 L0,0.0001 Z" id="Fill-19" fill="#FFFFFF" mask="url(#mask-10)"/>
                </g>
                <g id="Group-24">
                    <mask id="mask-12" fill="white">
                        <use xlink:href="#path-11"/>
                    </mask>
                    <g id="Clip-23"/>
                    <path d="M5.9263,5.9996 L13.8943,5.9996 C15.0173,5.9996 16.0093,5.2426 16.3063,4.1596 L17.0333,1.4996 L2.8453,1.4996 L5.9263,5.9996 Z M13.8943,8.9996 L4.3443,8.9996 L-2.8447,-1.5004 L20.9653,-1.5004 L19.1993,4.9526 C18.5453,7.3356 16.3643,8.9996 13.8943,8.9996 L13.8943,8.9996 Z" id="Fill-22" fill="#818181" mask="url(#mask-12)"/>
                </g>
            </g>
            <path d="M29.4995,29.7496 L26.9995,29.7496 C23.8295,29.7496 21.2495,27.1706 21.2495,23.9996 L21.2495,20.9996 L22.7495,20.9996 L22.7495,23.9996 C22.7495,26.3436 24.6555,28.2496 26.9995,28.2496 L29.4995,28.2496 L29.4995,29.7496 Z" id="Fill-26" fill="#818181"/>
            <g id="Group-34" transform="translate(27.000000, 26.000000)">
                <g id="Group-30">
                    <mask id="mask-14" fill="white">
                        <use xlink:href="#path-13"/>
                    </mask>
                    <g id="Clip-29"/>
                    <path d="M-0.0005,-0.0004 L10.9995,-0.0004 L10.9995,11.9996 C10.9995,14.2096 9.2095,15.9996 6.9995,15.9996 L0.9995,15.9996 L-0.0005,-0.0004 Z" id="Fill-28" fill="#FFFFFF" mask="url(#mask-14)"/>
                </g>
                <g id="Group-33">
                    <mask id="mask-16" fill="white">
                        <use xlink:href="#path-15"/>
                    </mask>
                    <g id="Clip-32"/>
                    <path d="M2.4087,14.4996 L6.9997,14.4996 C8.3787,14.4996 9.4997,13.3786 9.4997,11.9996 L9.4997,1.4996 L1.5967,1.4996 L2.4087,14.4996 Z M6.9997,17.4996 L-0.4093,17.4996 L-1.5973,-1.5004 L12.4997,-1.5004 L12.4997,11.9996 C12.4997,15.0316 10.0317,17.4996 6.9997,17.4996 L6.9997,17.4996 Z" id="Fill-31" fill="#818181" mask="url(#mask-16)"/>
                </g>
            </g>
            <g id="Group-41" transform="translate(9.000000, 11.000000)">
                <g id="Group-37">
                    <mask id="mask-18" fill="white">
                        <use xlink:href="#path-17"/>
                    </mask>
                    <g id="Clip-36"/>
                    <path d="M2,0.0001 L33,0.0001 C34.105,0.0001 35,0.8961 35,2.0001 L35,7.0001 C35,9.2091 33.209,11.0001 31,11.0001 L2,11.0001 C0.896,11.0001 0,10.1041 0,9.0001 L0,2.0001 C0,0.8961 0.896,0.0001 2,0.0001" id="Fill-35" fill="#FFFFFF" mask="url(#mask-18)"/>
                </g>
                <g id="Group-40">
                    <mask id="mask-20" fill="white">
                        <use xlink:href="#path-19"/>
                    </mask>
                    <g id="Clip-39"/>
                    <path d="M2,1.5001 C1.724,1.5001 1.5,1.7241 1.5,2.0001 L1.5,9.0001 C1.5,9.2761 1.724,9.5001 2,9.5001 L31,9.5001 C32.378,9.5001 33.5,8.3781 33.5,7.0001 L33.5,2.0001 C33.5,1.7241 33.275,1.5001 33,1.5001 L2,1.5001 Z M31,12.5001 L2,12.5001 C0.07,12.5001 -1.5,10.9301 -1.5,9.0001 L-1.5,2.0001 C-1.5,0.0701 0.07,-1.4999 2,-1.4999 L33,-1.4999 C34.929,-1.4999 36.5,0.0701 36.5,2.0001 L36.5,7.0001 C36.5,10.0331 34.032,12.5001 31,12.5001 L31,12.5001 Z" id="Fill-38" fill="#818181" mask="url(#mask-20)"/>
                </g>
            </g>
        </g>
    </g>
</svg>