<?xml version="1.0" encoding="UTF-8"?>
<svg width="48px" height="48px" viewBox="0 0 48 48" version="1.1" xmlns="http://www.w3.org/2000/svg" xmlns:xlink="http://www.w3.org/1999/xlink">
    <!-- Generator: Sketch 64 (93537) - https://sketch.com -->
    <title>icon_myeshop/profil</title>
    <desc>Created with Sketch.</desc>
    <defs>
        <path d="M6.873,2.379 C4.321,2.824 2.344,4.857 1.968,7.419 L1.968,7.419 L0.747,15.737 C0.706,16.019 0.685,16.301 0.683894482,16.58 L0.683894482,16.58 C0.668,19.274 2.473,21.697 5.145,22.406 L5.145,22.406 C10.403,23.801 15.521,24.5 20.5,24.5 L20.5,24.5 C25.528,24.5 30.699,23.788 36.011,22.365 L36.011,22.365 C38.664,21.654 40.465,19.248 40.4590149,16.559 L40.4590149,16.559 C40.458,16.331 40.445,16.101 40.418,15.87 L40.418,15.87 L39.447,7.59 C39.136,4.943 37.117,2.819 34.49,2.373 L34.49,2.373 L20.5,0" id="path-1"/>
        <path d="M6.873,2.379 C4.321,2.824 2.344,4.857 1.968,7.419 L1.968,7.419 L0.747,15.737 C0.305,18.753 2.197,21.624 5.145,22.406 L5.145,22.406 C10.403,23.801 15.521,24.5 20.5,24.5 L20.5,24.5 C25.528,24.5 30.699,23.788 36.011,22.365 L36.011,22.365 C38.889,21.594 40.764,18.828 40.418,15.87 L40.418,15.87 L39.447,7.59 C39.136,4.943 37.117,2.819 34.49,2.373 L34.49,2.373 L20.5,0 L6.873,2.379 Z" id="path-3"/>
        <path d="M9,0 C4.03,0 0,4.029 0,9 L0,9 L0,14 C0,18.97 4.03,23 9,23 L9,23 L10,23 C14.971,23 19,18.97 19,14 L19,14 L19,9 C19,4.029 14.971,0 10,0 L10,0" id="path-5"/>
        <path d="M9,0 C4.03,0 0,4.029 0,9 L0,9 L0,14 C0,18.97 4.03,23 9,23 L9,23 L10,23 C14.971,23 19,18.97 19,14 L19,14 L19,9 C19,4.029 14.971,0 10,0 L10,0 L9,0 Z" id="path-7"/>
        <path d="M15.832,0.988 L0.276,16.543 L5.933,22.201 L21.49,6.644 C21.88,6.255 21.88,5.621 21.49,5.23 L21.49,5.23 L17.246,0.988 C17.051,0.792 16.795,0.695 16.539,0.695 L16.539,0.695 C16.283,0.695 16.027,0.792 15.832,0.988 L15.832,0.988 Z" id="path-9"/>
        <path d="M15.832,0.988 L0.276,16.543 L5.933,22.201 L21.49,6.644 C21.88,6.255 21.88,5.621 21.49,5.23 L21.49,5.23 L17.246,0.988 C17.051,0.792 16.795,0.695 16.539,0.695 L16.539,0.695 C16.283,0.695 16.027,0.792 15.832,0.988 L15.832,0.988 Z" id="path-11"/>
        <path d="M2.276,1.543 L0.615,7.634 C0.59,7.725 0.578,7.817 0.578942308,7.908 L0.578942308,7.908 C0.584,8.344 0.875,8.742 1.316,8.862 L1.316,8.862 C1.489,8.909 1.671,8.909 1.843,8.862 L1.843,8.862 C3.873,8.309 5.903,7.755 7.933,7.201 L7.933,7.201 L8.993,6.141 L3.337,0.483 L2.276,1.543 Z" id="path-13"/>
        <path d="M2.276,1.543 L0.615,7.634 C0.469,8.167 0.783,8.716 1.316,8.862 L1.316,8.862 C1.489,8.909 1.671,8.909 1.843,8.862 L1.843,8.862 C3.873,8.309 5.903,7.755 7.933,7.201 L7.933,7.201 L8.993,6.141 L3.337,0.483 L2.276,1.543 Z" id="path-15"/>
    </defs>
    <g id="icon_myeshop/profil" stroke="none" stroke-width="1" fill="none" fill-rule="evenodd">
        <g id="Group-28" transform="translate(3.000000, 2.000000)">
            <g id="Group-27">
                <g id="Group-3" transform="translate(0.000000, 19.000000)">
                    <mask id="mask-2" fill="white">
                        <use xlink:href="#path-1"/>
                    </mask>
                    <g id="Clip-2"/>
                    <path d="M0.7475,15.7362 L1.9675,7.4192 C2.3435,4.8562 4.3215,2.8242 6.8725,2.3792 L20.4995,0.0002 L34.4905,2.3732 C37.1175,2.8192 39.1355,4.9432 39.4465,7.5902 L40.4175,15.8702 C40.7645,18.8282 38.8885,21.5932 36.0115,22.3652 C30.6985,23.7882 25.5285,24.5002 20.4995,24.5002 C15.5215,24.5002 10.4025,23.8012 5.1445,22.4062 C2.1965,21.6242 0.3055,18.7542 0.7475,15.7362" id="Fill-1" fill="#FFFFFF" mask="url(#mask-2)"/>
                </g>
                <g id="Group-6" transform="translate(0.000000, 19.000000)">
                    <mask id="mask-4" fill="white">
                        <use xlink:href="#path-3"/>
                    </mask>
                    <g id="Clip-5"/>
                    <path d="M2.2319,15.954 C1.8989,18.219 3.3169,20.369 5.5289,20.956 C10.6389,22.312 15.6759,23 20.4999,23 C25.3719,23 30.4599,22.299 35.6239,20.916 C37.7659,20.342 39.1869,18.248 38.9279,16.045 L37.9559,7.765 C37.7259,5.793 36.1959,4.184 34.2389,3.852 L20.5029,1.522 L7.1299,3.856 C5.2129,4.191 3.7339,5.71 3.4519,7.637 L2.2319,15.954 Z M20.4999,26 C15.4159,26 10.1199,25.278 4.7599,23.856 C1.0729,22.878 -1.2901,19.293 -0.7371,15.518 L-0.7361,15.518 L0.4839,7.201 C0.9549,3.991 3.4189,1.459 6.6149,0.901 L20.2419,-1.478 C20.4089,-1.507 20.5819,-1.508 20.7509,-1.479 L34.7409,0.894 C38.0029,1.448 40.5509,4.129 40.9369,7.415 L41.9079,15.695 C42.3379,19.366 39.9709,22.856 36.3999,23.814 C30.9829,25.265 25.6339,26 20.4999,26 L20.4999,26 Z" id="Fill-4" fill="#818181" mask="url(#mask-4)"/>
                </g>
                <g id="Group-13" transform="translate(11.000000, 0.000000)">
                    <g id="Group-9">
                        <mask id="mask-6" fill="white">
                            <use xlink:href="#path-5"/>
                        </mask>
                        <g id="Clip-8"/>
                        <path d="M9,-0.0001 L10,-0.0001 C14.971,-0.0001 19,4.0299 19,8.9999 L19,13.9999 C19,18.9709 14.971,22.9999 10,22.9999 L9,22.9999 C4.029,22.9999 0,18.9709 0,13.9999 L0,8.9999 C0,4.0299 4.029,-0.0001 9,-0.0001" id="Fill-7" fill="#FFFFFF" mask="url(#mask-6)"/>
                    </g>
                    <g id="Group-12">
                        <mask id="mask-8" fill="white">
                            <use xlink:href="#path-7"/>
                        </mask>
                        <g id="Clip-11"/>
                        <path d="M9,1.4999 C4.864,1.4999 1.5,4.8639 1.5,8.9999 L1.5,13.9999 C1.5,18.1359 4.864,21.4999 9,21.4999 L10,21.4999 C14.136,21.4999 17.5,18.1359 17.5,13.9999 L17.5,8.9999 C17.5,4.8639 14.136,1.4999 10,1.4999 L9,1.4999 Z M10,24.4999 L9,24.4999 C3.21,24.4999 -1.5,19.7899 -1.5,13.9999 L-1.5,8.9999 C-1.5,3.2099 3.21,-1.5001 9,-1.5001 L10,-1.5001 C15.79,-1.5001 20.5,3.2099 20.5,8.9999 L20.5,13.9999 C20.5,19.7899 15.79,24.4999 10,24.4999 L10,24.4999 Z" id="Fill-10" fill="#818181" mask="url(#mask-8)"/>
                    </g>
                </g>
                <g id="Group-20" transform="translate(21.000000, 15.000000)">
                    <g id="Group-16">
                        <mask id="mask-10" fill="white">
                            <use xlink:href="#path-9"/>
                        </mask>
                        <g id="Clip-15"/>
                        <path d="M0.2758,16.5438 L15.8318,0.9878 C16.2228,0.5968 16.8558,0.5968 17.2458,0.9878 L21.4888,5.2308 C21.8798,5.6208 21.8798,6.2538 21.4888,6.6448 L5.9328,22.2008 L0.2758,16.5438 Z" id="Fill-14" fill="#FFFFFF" mask="url(#mask-10)"/>
                    </g>
                    <g id="Group-19">
                        <mask id="mask-12" fill="white">
                            <use xlink:href="#path-11"/>
                        </mask>
                        <g id="Clip-18"/>
                        <path d="M2.3974,16.5438 L5.9324,20.0798 L20.0754,5.9378 L16.5394,2.4018 L2.3974,16.5438 Z M5.9324,24.3218 L-1.8456,16.5438 L14.7714,-0.0732 C15.7464,-1.0472 17.3324,-1.0472 18.3064,-0.0732 L22.5494,4.1698 C23.0224,4.6418 23.2824,5.2698 23.2824,5.9378 C23.2824,6.6058 23.0214,7.2338 22.5484,7.7058 L5.9324,24.3218 Z" id="Fill-17" fill="#FF7000" mask="url(#mask-12)"/>
                    </g>
                </g>
                <g id="Group-23" transform="translate(19.000000, 30.000000)">
                    <mask id="mask-14" fill="white">
                        <use xlink:href="#path-13"/>
                    </mask>
                    <g id="Clip-22"/>
                    <path d="M8.9931,6.1405 L3.3371,0.4835 L2.2761,1.5435 L0.6151,7.6335 C0.4701,8.1665 0.7841,8.7165 1.3161,8.8625 C1.4891,8.9095 1.6701,8.9095 1.8431,8.8625 C3.8731,8.3085 5.9021,7.7545 7.9321,7.2015 L8.9931,6.1405 Z" id="Fill-21" fill="#FFFFFF" mask="url(#mask-14)"/>
                </g>
                <g id="Group-26" transform="translate(19.000000, 30.000000)">
                    <mask id="mask-16" fill="white">
                        <use xlink:href="#path-15"/>
                    </mask>
                    <g id="Clip-25"/>
                    <path d="M3.497,2.7655 L2.292,7.1845 L6.711,5.9795 L3.497,2.7655 Z M1.579,10.3975 C1.358,10.3975 1.138,10.3685 0.923,10.3095 C-0.408,9.9465 -1.194,8.5695 -0.833,7.2405 L0.934,0.7645 L3.337,-1.6375 L11.114,6.1405 L8.712,8.5435 L2.237,10.3095 C2.022,10.3685 1.801,10.3975 1.579,10.3975 L1.579,10.3975 Z" id="Fill-24" fill="#FF7000" mask="url(#mask-16)"/>
                </g>
            </g>
        </g>
    </g>
</svg>