<?xml version="1.0" encoding="UTF-8"?>
<svg width="48px" height="48px" viewBox="0 0 48 48" version="1.1" xmlns="http://www.w3.org/2000/svg" xmlns:xlink="http://www.w3.org/1999/xlink">
    <!-- Generator: Sketch 64 (93537) - https://sketch.com -->
    <title>icon_myeshop/sachnummern</title>
    <desc>Created with Sketch.</desc>
    <defs>
        <path d="M7.923,0.406 L0.423,5.701 C0.158,5.889 0,6.193 0,6.518 L0,6.518 L0,43 C0,43.551 0.447,44 1.001,44 L1.001,44 L16,44 C16.552,44 17,43.551 17,43 L17,43 L17,6.518 C17,6.193 16.842,5.889 16.576,5.701 L16.576,5.701 L9.077,0.406 C8.904,0.285 8.702,0.225 8.5,0.225 L8.5,0.225 C8.298,0.225 8.096,0.285 7.923,0.406" id="path-1"/>
        <path d="M7.923,0.406 L0.423,5.701 C0.158,5.889 0,6.193 0,6.518 L0,6.518 L0,43 C0,43.551 0.447,44 1.001,44 L1.001,44 L16,44 C16.552,44 17,43.551 17,43 L17,43 L17,6.518 C17,6.193 16.842,5.889 16.576,5.701 L16.576,5.701 L9.077,0.406 C8.904,0.285 8.702,0.225 8.5,0.225 L8.5,0.225 C8.298,0.225 8.096,0.285 7.923,0.406 L7.923,0.406 Z" id="path-3"/>
        <path d="M0,2.5 C0,3.881 1.12,5 2.5,5 L2.5,5 C3.881,5 5.001,3.881 5.001,2.5 L5.001,2.5 C5.001,1.12 3.881,0 2.5,0 L2.5,0 C1.12,0 0,1.12 0,2.5" id="path-5"/>
        <path d="M0,2.5 L0,12.5 C0,13.881 1.12,15 2.5,15 L2.5,15 C3.881,15 5,13.881 5,12.5 L5,12.5 L5,2.5 C5,1.119 3.881,0.001 2.5,0.001 L2.5,0.001 C1.12,0.001 0,1.119 0,2.5" id="path-7"/>
        <path d="M0,2.5 L0,12.5 C0,13.881 1.12,15 2.5,15 L2.5,15 C3.881,15 5,13.881 5,12.5 L5,12.5 L5,2.5 C5,1.119 3.881,0.001 2.5,0.001 L2.5,0.001 C1.12,0.001 0,1.119 0,2.5" id="path-9"/>
        <path d="M2,0 C0.896,0 0,0.895 0,2 L0,2 L0,3 C0,4.105 0.896,5 2,5 L2,5 L6.001,5 C7.105,5 8,4.105 8,3 L8,3 L8,2 C8,0.895 7.105,0 6.001,0 L6.001,0" id="path-11"/>
        <path d="M2,0 C0.896,0 0,0.895 0,2 L0,2 L0,3 C0,4.105 0.896,5 2,5 L2,5 L6.001,5 C7.105,5 8,4.105 8,3 L8,3 L8,2 C8,0.895 7.105,0 6.001,0 L6.001,0 L2,0 Z" id="path-13"/>
        <path d="M0,0 L5.135,7.5 L13.894,7.5 C15.697,7.5 17.275,6.295 17.752,4.557 L17.752,4.557 L19.001,0 L0,0 Z" id="path-15"/>
        <path d="M0,0 L5.135,7.5 L13.894,7.5 C15.697,7.5 17.275,6.295 17.752,4.557 L17.752,4.557 L19.001,0 L0,0 Z" id="path-17"/>
        <path d="M0,0 L1,16 L7,16 C9.209,16 11,14.209 11,12 L11,12 L11,0 L0,0 Z" id="path-19"/>
        <path d="M0,0 L1,16 L7,16 C9.209,16 11,14.209 11,12 L11,12 L11,0 L0,0 Z" id="path-21"/>
        <path d="M2,0 C0.896,0 0,0.896 0,2 L0,2 L0,9 C0,10.105 0.896,11 2,11 L2,11 L31,11 C33.209,11 35,9.209 35,7.001 L35,7.001 L35,2 C35,0.896 34.105,0 33.001,0 L33.001,0" id="path-23"/>
        <path d="M2,0 C0.896,0 0,0.896 0,2 L0,2 L0,9 C0,10.105 0.896,11 2,11 L2,11 L31,11 C33.209,11 35,9.209 35,7.001 L35,7.001 L35,2 C35,0.896 34.105,0 33.001,0 L33.001,0 L2,0 Z" id="path-25"/>
    </defs>
    <g id="icon_myeshop/sachnummern" stroke="none" stroke-width="1" fill="none" fill-rule="evenodd">
        <g id="Group-51" transform="translate(2.000000, 2.000000)">
            <g id="Group-7" transform="translate(13.000000, 0.000000)">
                <g id="Group-3">
                    <mask id="mask-2" fill="white">
                        <use xlink:href="#path-1"/>
                    </mask>
                    <g id="Clip-2"/>
                    <path d="M0.4231,5.7013 L7.9231,0.4073 C8.2691,0.1633 8.7311,0.1633 9.0771,0.4073 L16.5761,5.7013 C16.8421,5.8883 17.0001,6.1933 17.0001,6.5183 L17.0001,43.0003 C17.0001,43.5523 16.5521,44.0003 16.0001,44.0003 L1.0001,44.0003 C0.4471,44.0003 0.0001,43.5523 0.0001,43.0003 L0.0001,6.5183 C0.0001,6.1933 0.1581,5.8883 0.4231,5.7013" id="Fill-1" fill="#FFFFFF" mask="url(#mask-2)"/>
                </g>
                <g id="Group-6">
                    <mask id="mask-4" fill="white">
                        <use xlink:href="#path-3"/>
                    </mask>
                    <g id="Clip-5"/>
                    <path d="M1.5002,42.5001 L15.5002,42.5001 L15.5002,6.7771 L8.5002,1.8351 L1.5002,6.7771 L1.5002,42.5001 Z M16.0002,45.5001 L1.0002,45.5001 C-0.3778,45.5001 -1.4998,44.3791 -1.4998,43.0001 L-1.4998,6.5181 C-1.4998,5.7081 -1.1048,4.9441 -0.4428,4.4771 L-0.4418,4.4761 L7.0582,-0.8189 C7.9202,-1.4259 9.0792,-1.4269 9.9402,-0.8189 L17.4412,4.4761 C18.1042,4.9441 18.5002,5.7071 18.5002,6.5181 L18.5002,43.0001 C18.5002,44.3791 17.3792,45.5001 16.0002,45.5001 L16.0002,45.5001 Z" id="Fill-4" fill="#FF7000" mask="url(#mask-4)"/>
                </g>
            </g>
            <g id="Group-10" transform="translate(19.000000, 5.000000)">
                <mask id="mask-6" fill="white">
                    <use xlink:href="#path-5"/>
                </mask>
                <g id="Clip-9"/>
                <path d="M2.5002,1.5001 C1.9492,1.5001 1.5002,1.9491 1.5002,2.5001 C1.5002,3.0511 1.9492,3.5001 2.5002,3.5001 C3.0512,3.5001 3.5002,3.0511 3.5002,2.5001 C3.5002,1.9491 3.0512,1.5001 2.5002,1.5001 M2.5002,6.5001 C0.2942,6.5001 -1.4998,4.7061 -1.4998,2.5001 C-1.4998,0.2941 0.2942,-1.4999 2.5002,-1.4999 C4.7062,-1.4999 6.5002,0.2941 6.5002,2.5001 C6.5002,4.7061 4.7062,6.5001 2.5002,6.5001" id="Fill-8" fill="#FF7000" mask="url(#mask-6)"/>
            </g>
            <path d="M23.3804,30.0002 L22.8814,32.8442 L21.5554,32.8442 L22.0534,30.0002 L20.8104,30.0002 L20.3104,32.8442 L18.5134,32.8442 L18.5134,34.0332 L20.0994,34.0332 L19.7574,35.9742 L18.0004,35.9742 L18.0004,37.1502 L19.5514,37.1502 L19.0594,39.9532 L20.3104,39.9532 L20.8024,37.1502 L22.1224,37.1502 L21.6294,39.9532 L22.8814,39.9532 L23.3734,37.1502 L25.1094,37.1502 L25.1094,35.9742 L23.5784,35.9742 L23.9204,34.0332 L25.6294,34.0332 L25.6294,32.8442 L24.1314,32.8442 L24.6314,30.0002 L23.3804,30.0002 Z M21.3424,34.0332 L22.6694,34.0332 L22.3274,35.9742 L21.0084,35.9742 L21.3424,34.0332 Z" id="Fill-11" fill="#FF7000"/>
            <g id="Group-18" transform="translate(11.000000, 18.000000)">
                <g id="Group-14">
                    <mask id="mask-8" fill="white">
                        <use xlink:href="#path-7"/>
                    </mask>
                    <g id="Clip-13"/>
                    <path d="M2.5002,0.0001 C3.8802,0.0001 5.0002,1.1191 5.0002,2.5001 L5.0002,12.5001 C5.0002,13.8811 3.8802,15.0001 2.5002,15.0001 C1.1192,15.0001 0.0002,13.8811 0.0002,12.5001 L0.0002,2.5001 C0.0002,1.1191 1.1192,0.0001 2.5002,0.0001" id="Fill-12" fill="#FFFFFF" mask="url(#mask-8)"/>
                </g>
                <g id="Group-17">
                    <mask id="mask-10" fill="white">
                        <use xlink:href="#path-9"/>
                    </mask>
                    <g id="Clip-16"/>
                    <path d="M2.5002,1.5001 C1.9492,1.5001 1.5002,1.9491 1.5002,2.5001 L1.5002,12.5001 C1.5002,13.0521 1.9492,13.5001 2.5002,13.5001 C3.0512,13.5001 3.5002,13.0521 3.5002,12.5001 L3.5002,2.5001 C3.5002,1.9491 3.0512,1.5001 2.5002,1.5001 M2.5002,16.5001 C0.2942,16.5001 -1.4998,14.7061 -1.4998,12.5001 L-1.4998,2.5001 C-1.4998,0.2941 0.2942,-1.4999 2.5002,-1.4999 C4.7062,-1.4999 6.5002,0.2941 6.5002,2.5001 L6.5002,12.5001 C6.5002,14.7061 4.7062,16.5001 2.5002,16.5001" id="Fill-15" fill="#818181" mask="url(#mask-10)"/>
                </g>
            </g>
            <g id="Group-25" transform="translate(0.000000, 14.000000)">
                <g id="Group-21">
                    <mask id="mask-12" fill="white">
                        <use xlink:href="#path-11"/>
                    </mask>
                    <g id="Clip-20"/>
                    <path d="M8.0002,2.0001 L8.0002,3.0001 C8.0002,4.1041 7.1042,5.0001 6.0002,5.0001 L2.0002,5.0001 C0.8952,5.0001 0.0002,4.1041 0.0002,3.0001 L0.0002,2.0001 C0.0002,0.8961 0.8952,0.0001 2.0002,0.0001 L6.0002,0.0001 C7.1042,0.0001 8.0002,0.8961 8.0002,2.0001" id="Fill-19" fill="#FFFFFF" mask="url(#mask-12)"/>
                </g>
                <g id="Group-24">
                    <mask id="mask-14" fill="white">
                        <use xlink:href="#path-13"/>
                    </mask>
                    <g id="Clip-23"/>
                    <path d="M2.0002,1.5001 C1.7242,1.5001 1.5002,1.7241 1.5002,2.0001 L1.5002,3.0001 C1.5002,3.2761 1.7242,3.5001 2.0002,3.5001 L6.0002,3.5001 C6.2762,3.5001 6.5002,3.2761 6.5002,3.0001 L6.5002,2.0001 C6.5002,1.7241 6.2762,1.5001 6.0002,1.5001 L2.0002,1.5001 Z M6.0002,6.5001 L2.0002,6.5001 C0.0702,6.5001 -1.4998,4.9301 -1.4998,3.0001 L-1.4998,2.0001 C-1.4998,0.0701 0.0702,-1.4999 2.0002,-1.4999 L6.0002,-1.4999 C7.9302,-1.4999 9.5002,0.0701 9.5002,2.0001 L9.5002,3.0001 C9.5002,4.9301 7.9302,6.5001 6.0002,6.5001 L6.0002,6.5001 Z" id="Fill-22" fill="#818181" mask="url(#mask-14)"/>
                </g>
            </g>
            <polygon id="Fill-26" fill="#FFFFFF" points="4 20 11 20 11 13 4 13"/>
            <path d="M4,20 L11,20 L11,13 L4,13 L4,20 Z M5.5,18.5 L9.501,18.5 L9.501,14.5 L5.5,14.5 L5.5,18.5 Z" id="Fill-27" fill="#818181"/>
            <g id="Group-34" transform="translate(22.000000, 20.000000)">
                <g id="Group-30">
                    <mask id="mask-16" fill="white">
                        <use xlink:href="#path-15"/>
                    </mask>
                    <g id="Clip-29"/>
                    <path d="M0.0002,0.0001 L5.1352,7.5001 L13.8942,7.5001 C15.6962,7.5001 17.2752,6.2951 17.7522,4.5571 L19.0002,0.0001 L0.0002,0.0001 Z" id="Fill-28" fill="#FFFFFF" mask="url(#mask-16)"/>
                </g>
                <g id="Group-33">
                    <mask id="mask-18" fill="white">
                        <use xlink:href="#path-17"/>
                    </mask>
                    <g id="Clip-32"/>
                    <path d="M5.926,6.0001 L13.894,6.0001 C15.017,6.0001 16.009,5.2431 16.306,4.1601 L17.034,1.5001 L2.845,1.5001 L5.926,6.0001 Z M13.894,9.0001 L4.344,9.0001 L-2.845,-1.4999 L20.966,-1.4999 L19.198,4.9531 C18.545,7.3361 16.364,9.0001 13.894,9.0001 L13.894,9.0001 Z" id="Fill-31" fill="#818181" mask="url(#mask-18)"/>
                </g>
            </g>
            <path d="M29.5002,29.7501 L27.0002,29.7501 C23.8292,29.7501 21.2502,27.1711 21.2502,24.0001 L21.2502,21.0001 L22.7502,21.0001 L22.7502,24.0001 C22.7502,26.3441 24.6562,28.2501 27.0002,28.2501 L29.5002,28.2501 L29.5002,29.7501 Z" id="Fill-35" fill="#818181"/>
            <g id="Group-43" transform="translate(27.000000, 26.000000)">
                <g id="Group-39">
                    <mask id="mask-20" fill="white">
                        <use xlink:href="#path-19"/>
                    </mask>
                    <g id="Clip-38"/>
                    <path d="M0.0002,0.0001 L11.0002,0.0001 L11.0002,12.0001 C11.0002,14.2091 9.2092,16.0001 7.0002,16.0001 L1.0002,16.0001 L0.0002,0.0001 Z" id="Fill-37" fill="#FFFFFF" mask="url(#mask-20)"/>
                </g>
                <g id="Group-42">
                    <mask id="mask-22" fill="white">
                        <use xlink:href="#path-21"/>
                    </mask>
                    <g id="Clip-41"/>
                    <path d="M2.4094,14.5001 L7.0004,14.5001 C8.3794,14.5001 9.5004,13.3791 9.5004,12.0001 L9.5004,1.5001 L1.5974,1.5001 L2.4094,14.5001 Z M7.0004,17.5001 L-0.4086,17.5001 L-1.5966,-1.4999 L12.5004,-1.4999 L12.5004,12.0001 C12.5004,15.0321 10.0324,17.5001 7.0004,17.5001 L7.0004,17.5001 Z" id="Fill-40" fill="#818181" mask="url(#mask-22)"/>
                </g>
            </g>
            <g id="Group-50" transform="translate(9.000000, 11.000000)">
                <g id="Group-46">
                    <mask id="mask-24" fill="white">
                        <use xlink:href="#path-23"/>
                    </mask>
                    <g id="Clip-45"/>
                    <path d="M2.0002,0.0001 L33.0002,0.0001 C34.1042,0.0001 35.0002,0.8961 35.0002,2.0001 L35.0002,7.0001 C35.0002,9.2091 33.2092,11.0001 31.0002,11.0001 L2.0002,11.0001 C0.8952,11.0001 0.0002,10.1041 0.0002,9.0001 L0.0002,2.0001 C0.0002,0.8961 0.8952,0.0001 2.0002,0.0001" id="Fill-44" fill="#FFFFFF" mask="url(#mask-24)"/>
                </g>
                <g id="Group-49">
                    <mask id="mask-26" fill="white">
                        <use xlink:href="#path-25"/>
                    </mask>
                    <g id="Clip-48"/>
                    <path d="M2.0002,1.5001 C1.7242,1.5001 1.5002,1.7241 1.5002,2.0001 L1.5002,9.0001 C1.5002,9.2761 1.7242,9.5001 2.0002,9.5001 L31.0002,9.5001 C32.3792,9.5001 33.5002,8.3781 33.5002,7.0001 L33.5002,2.0001 C33.5002,1.7241 33.2752,1.5001 33.0002,1.5001 L2.0002,1.5001 Z M31.0002,12.5001 L2.0002,12.5001 C0.0702,12.5001 -1.4998,10.9301 -1.4998,9.0001 L-1.4998,2.0001 C-1.4998,0.0701 0.0702,-1.4999 2.0002,-1.4999 L33.0002,-1.4999 C34.9302,-1.4999 36.5002,0.0701 36.5002,2.0001 L36.5002,7.0001 C36.5002,10.0331 34.0322,12.5001 31.0002,12.5001 L31.0002,12.5001 Z" id="Fill-47" fill="#818181" mask="url(#mask-26)"/>
                </g>
            </g>
        </g>
    </g>
</svg>