<?xml version="1.0" encoding="UTF-8"?>
<svg width="48px" height="48px" viewBox="0 0 48 48" version="1.1" xmlns="http://www.w3.org/2000/svg" xmlns:xlink="http://www.w3.org/1999/xlink">
    <!-- Generator: Sketch 64 (93537) - https://sketch.com -->
    <title>icon_myeshop/sammelbestellungen</title>
    <desc>Created with Sketch.</desc>
    <defs>
        <path d="M1.76199759,0 C1.686,0 1.609,0.009 1.534,0.027 L1.534,0.027 C1.071,0.135 0.761,0.548 0.761997588,1.003 L0.761997588,1.003 C0.763,1.078 0.771,1.154 0.789,1.229 L0.789,1.229 L4.318,16.229 C4.425,16.68 4.828,17 5.292,17 L5.292,17 L28.273,17 C28.707,17 29.09,16.72 29.224,16.308 L29.224,16.308 L34.077,1.308 C34.109,1.209 34.126,1.104 34.126,1 L34.126,1 C34.126,0.448 33.677,0 33.126,0 L33.126,0" id="path-1"/>
        <path d="M1.762,0 C1.686,0 1.609,0.009 1.534,0.027 L1.534,0.027 C0.996,0.153 0.663,0.691 0.789,1.229 L0.789,1.229 L4.318,16.229 C4.425,16.68 4.828,17 5.292,17 L5.292,17 L28.273,17 C28.707,17 29.09,16.72 29.224,16.308 L29.224,16.308 L34.077,1.308 C34.109,1.209 34.126,1.104 34.126,1 L34.126,1 C34.126,0.448 33.677,0 33.126,0 L33.126,0 L1.762,0 Z" id="path-3"/>
        <path d="M-0.001,4.5 C-0.001,6.985 2.015,9 4.499,9 L4.499,9 C6.985,9 8.999,6.985 8.999,4.5 L8.999,4.5 C8.999,2.014 6.985,0 4.499,0 L4.499,0 C2.015,0 -0.001,2.014 -0.001,4.5" id="path-5"/>
        <path d="M-0.001,4.5 C-0.001,6.985 2.015,9 4.499,9 L4.499,9 C6.985,9 8.999,6.985 8.999,4.5 L8.999,4.5 C8.999,2.014 6.985,0 4.499,0 L4.499,0 C2.015,0 -0.001,2.014 -0.001,4.5" id="path-7"/>
        <path d="M0,4.5 C0,6.985 2.015,9 4.5,9 L4.5,9 C6.986,9 9,6.985 9,4.5 L9,4.5 C9,2.014 6.986,0 4.5,0 L4.5,0 C2.015,0 0,2.014 0,4.5" id="path-9"/>
        <path d="M0,4.5 C0,6.985 2.015,9 4.5,9 L4.5,9 C6.986,9 9,6.985 9,4.5 L9,4.5 C9,2.014 6.986,0 4.5,0 L4.5,0 C2.015,0 0,2.014 0,4.5" id="path-11"/>
    </defs>
    <g id="icon_myeshop/sammelbestellungen" stroke="none" stroke-width="1" fill="none" fill-rule="evenodd">
        <g id="Group-36" transform="translate(2.000000, 3.000000)">
            <g id="Group-3" transform="translate(9.000000, 14.000000)">
                <mask id="mask-2" fill="white">
                    <use xlink:href="#path-1"/>
                </mask>
                <g id="Clip-2"/>
                <path d="M1.7627,0.0001 L33.1257,0.0001 C33.6777,0.0001 34.1257,0.4481 34.1257,1.0001 C34.1257,1.1041 34.1087,1.2081 34.0767,1.3081 L29.2237,16.3081 C29.0907,16.7201 28.7067,17.0001 28.2727,17.0001 L5.2917,17.0001 C4.8277,17.0001 4.4247,16.6801 4.3187,16.2291 L0.7887,1.2291 C0.6627,0.6911 0.9957,0.1531 1.5337,0.0261 C1.6087,0.0091 1.6857,0.0001 1.7627,0.0001" id="Fill-1" fill="#FFFFFF" mask="url(#mask-2)"/>
            </g>
            <g id="Group-6" transform="translate(9.000000, 14.000000)">
                <mask id="mask-4" fill="white">
                    <use xlink:href="#path-3"/>
                </mask>
                <g id="Clip-5"/>
                <path d="M5.6879,15.4998 L27.9089,15.4998 L32.4379,1.4998 L2.3939,1.4998 L5.6879,15.4998 Z M28.2729,18.4998 L5.2919,18.4998 C4.1269,18.4998 3.1259,17.7078 2.8579,16.5738 L-0.6711,1.5728 C-0.8241,0.9228 -0.7141,0.2518 -0.3631,-0.3162 C-0.0111,-0.8832 0.5399,-1.2802 1.1909,-1.4332 C1.3769,-1.4772 1.5689,-1.5002 1.7629,-1.5002 L33.1259,-1.5002 C34.5039,-1.5002 35.6259,-0.3782 35.6259,0.9998 C35.6259,1.2628 35.5849,1.5218 35.5039,1.7718 L30.6509,16.7698 C30.3149,17.8048 29.3599,18.4998 28.2729,18.4998 L28.2729,18.4998 Z" id="Fill-4" fill="#818180" mask="url(#mask-4)"/>
            </g>
            <path d="M34.9995,39.2496 L15.9995,39.2496 C15.6545,39.2496 15.3535,39.0146 15.2715,38.6786 L8.4125,10.7496 L0.9995,10.7496 C0.5855,10.7496 0.2495,10.4146 0.2495,9.9996 C0.2495,9.5856 0.5855,9.2496 0.9995,9.2496 L8.9995,9.2496 C9.3455,9.2496 9.6455,9.4856 9.7285,9.8216 L16.5875,37.7496 L34.9995,37.7496 C35.4135,37.7496 35.7495,38.0856 35.7495,38.4996 C35.7495,38.9136 35.4135,39.2496 34.9995,39.2496" id="Fill-7" fill="#818180"/>
            <g id="Group-15" transform="translate(30.000000, 34.000000)">
                <g id="Group-11">
                    <mask id="mask-6" fill="white">
                        <use xlink:href="#path-5"/>
                    </mask>
                    <g id="Clip-10"/>
                    <path d="M4.4995,8.9996 C6.9845,8.9996 8.9995,6.9846 8.9995,4.4996 C8.9995,2.0146 6.9845,-0.0004 4.4995,-0.0004 C2.0155,-0.0004 -0.0005,2.0146 -0.0005,4.4996 C-0.0005,6.9846 2.0155,8.9996 4.4995,8.9996" id="Fill-9" fill="#FFFFFF" mask="url(#mask-6)"/>
                </g>
                <g id="Group-14">
                    <mask id="mask-8" fill="white">
                        <use xlink:href="#path-7"/>
                    </mask>
                    <g id="Clip-13"/>
                    <path d="M4.4995,1.4996 C2.8455,1.4996 1.4995,2.8456 1.4995,4.4996 C1.4995,6.1536 2.8455,7.4996 4.4995,7.4996 C6.1535,7.4996 7.4995,6.1536 7.4995,4.4996 C7.4995,2.8456 6.1535,1.4996 4.4995,1.4996 M4.4995,10.4996 C1.1905,10.4996 -1.5005,7.8086 -1.5005,4.4996 C-1.5005,1.1906 1.1905,-1.5004 4.4995,-1.5004 C7.8085,-1.5004 10.4995,1.1906 10.4995,4.4996 C10.4995,7.8086 7.8085,10.4996 4.4995,10.4996" id="Fill-12" fill="#818181" mask="url(#mask-8)"/>
                </g>
            </g>
            <g id="Group-22" transform="translate(12.000000, 34.000000)">
                <g id="Group-18">
                    <mask id="mask-10" fill="white">
                        <use xlink:href="#path-9"/>
                    </mask>
                    <g id="Clip-17"/>
                    <path d="M4.5,8.9996 C6.985,8.9996 9,6.9846 9,4.4996 C9,2.0146 6.985,-0.0004 4.5,-0.0004 C2.015,-0.0004 0,2.0146 0,4.4996 C0,6.9846 2.015,8.9996 4.5,8.9996" id="Fill-16" fill="#FFFFFF" mask="url(#mask-10)"/>
                </g>
                <g id="Group-21">
                    <mask id="mask-12" fill="white">
                        <use xlink:href="#path-11"/>
                    </mask>
                    <g id="Clip-20"/>
                    <path d="M4.5,1.4996 C2.846,1.4996 1.5,2.8456 1.5,4.4996 C1.5,6.1536 2.846,7.4996 4.5,7.4996 C6.154,7.4996 7.5,6.1536 7.5,4.4996 C7.5,2.8456 6.154,1.4996 4.5,1.4996 M4.5,10.4996 C1.191,10.4996 -1.5,7.8086 -1.5,4.4996 C-1.5,1.1906 1.191,-1.5004 4.5,-1.5004 C7.809,-1.5004 10.5,1.1906 10.5,4.4996 C10.5,7.8086 7.809,10.4996 4.5,10.4996" id="Fill-19" fill="#818180" mask="url(#mask-12)"/>
                </g>
            </g>
            <g id="Group-35" transform="translate(4.000000, 0.000000)" fill="#FF7000">
                <path d="M28.9995,21.7501 C28.5855,21.7501 28.2495,21.4141 28.2495,21.0001 L28.2495,6.0001 C28.2495,2.8301 30.8285,0.2501 33.9995,0.2501 L37.9995,0.2501 C38.4135,0.2501 38.7495,0.5861 38.7495,1.0001 C38.7495,1.4141 38.4135,1.7501 37.9995,1.7501 L33.9995,1.7501 C31.6555,1.7501 29.7495,3.6571 29.7495,6.0001 L29.7495,21.0001 C29.7495,21.4141 29.4135,21.7501 28.9995,21.7501" id="Fill-23"/>
                <path d="M28.9995,22.5611 L25.4695,19.0301 C25.1765,18.7371 25.1765,18.2631 25.4695,17.9701 C25.7625,17.6771 26.2365,17.6771 26.5295,17.9701 L28.9995,20.4391 L31.4695,17.9701 C31.7625,17.6771 32.2365,17.6771 32.5295,17.9701 C32.8225,18.2631 32.8225,18.7371 32.5295,19.0301 L28.9995,22.5611 Z" id="Fill-25"/>
                <path d="M20.9995,27.0602 L17.4695,23.5302 C17.1765,23.2372 17.1765,22.7622 17.4695,22.4692 C17.7625,22.1762 18.2375,22.1762 18.5305,22.4692 L20.9995,24.9392 L23.4695,22.4692 C23.7625,22.1762 24.2365,22.1762 24.5295,22.4692 C24.8225,22.7622 24.8225,23.2372 24.5295,23.5302 L20.9995,27.0602 Z" id="Fill-27"/>
                <path d="M20.9995,25.7496 C20.5855,25.7496 20.2495,25.4136 20.2495,24.9996 L20.2495,0.9996 C20.2495,0.5856 20.5855,0.2496 20.9995,0.2496 C21.4135,0.2496 21.7495,0.5856 21.7495,0.9996 L21.7495,24.9996 C21.7495,25.4136 21.4135,25.7496 20.9995,25.7496" id="Fill-29"/>
                <path d="M13,12.7501 C12.586,12.7501 12.25,12.4141 12.25,12.0001 L12.25,6.0001 C12.25,3.6571 10.343,1.7501 8,1.7501 L1,1.7501 C0.586,1.7501 0.25,1.4141 0.25,1.0001 C0.25,0.5861 0.586,0.2501 1,0.2501 L8,0.2501 C11.17,0.2501 13.75,2.8301 13.75,6.0001 L13.75,12.0001 C13.75,12.4141 13.414,12.7501 13,12.7501" id="Fill-31"/>
                <path d="M13,13.5606 L9.47,10.0306 C9.177,9.7376 9.177,9.2626 9.47,8.9696 C9.763,8.6766 10.237,8.6766 10.53,8.9696 L13,11.4396 L15.47,8.9696 C15.763,8.6766 16.237,8.6766 16.53,8.9696 C16.823,9.2626 16.823,9.7376 16.53,10.0306 L13,13.5606 Z" id="Fill-33"/>
            </g>
        </g>
    </g>
</svg>