<?xml version="1.0" encoding="UTF-8"?>
<svg width="48px" height="48px" viewBox="0 0 48 48" version="1.1" xmlns="http://www.w3.org/2000/svg" xmlns:xlink="http://www.w3.org/1999/xlink">
    <!-- Generator: Sketch 64 (93537) - https://sketch.com -->
    <title>icon_myeshop/kostenstelle</title>
    <desc>Created with Sketch.</desc>
    <defs>
        <path d="M1,0 C0.448,0 0,0.434 0,0.971 L0,0.971 L0,32.029 C0,32.565 0.448,33 1,33 L1,33 L32,33 C32.552,33 33,32.565 33,32.029 L33,32.029 L33,0.971 C33,0.434 32.552,0 32,0 L32,0" id="path-1"/>
        <path d="M1,0 C0.448,0 0,0.434 0,0.971 L0,0.971 L0,32.029 C0,32.565 0.448,33 1,33 L1,33 L32,33 C32.552,33 33,32.565 33,32.029 L33,32.029 L33,0.971 C33,0.434 32.552,0 32,0 L32,0 L1,0 Z" id="path-3"/>
        <path d="M1,0 C0.448,0 0,0.447 0,1 L0,1 L0,40 C0,40.552 0.448,41 1,41 L1,41 L18,41 C18.553,41 19,40.552 19,40 L19,40 L19,1 C19,0.447 18.553,0 18,0 L18,0" id="path-5"/>
        <path d="M1,0 C0.448,0 0,0.447 0,1 L0,1 L0,40 C0,40.552 0.448,41 1,41 L1,41 L18,41 C18.553,41 19,40.552 19,40 L19,40 L19,1 C19,0.447 18.553,0 18,0 L18,0 L1,0 Z" id="path-7"/>
        <path d="M0,13.5 C0,20.956 6.045,27 13.5,27 L13.5,27 C20.956,27 27,20.956 27,13.5 L27,13.5 C27,6.044 20.956,0 13.5,0 L13.5,0 C6.045,0 0,6.044 0,13.5" id="path-9"/>
        <path d="M0,13.5 C0,20.956 6.045,27 13.5,27 L13.5,27 C20.956,27 27,20.956 27,13.5 L27,13.5 C27,6.044 20.956,0 13.5,0 L13.5,0 C6.045,0 0,6.044 0,13.5" id="path-11"/>
        <path d="M3.072,1.728 C2.305,2.688 1.536,3.84 1.344,5.376 L1.344,5.376 L0,5.376 L0,6.528 L1.152,6.528 L1.152,7.488 L1.152,7.872 L0,7.872 L0,8.832 L1.344,8.832 C1.536,10.368 2.112,11.52 2.88,12.48 L2.88,12.48 C3.84,13.824 5.376,14.4 7.104,14.4 L7.104,14.4 C8.448,14.4 9.6,13.824 10.176,13.44 L10.176,13.44 L9.984,12.096 C9.408,12.48 8.448,12.864 7.296,12.864 L7.296,12.864 C6.144,12.864 4.992,12.48 4.224,11.712 L4.224,11.712 C3.648,10.944 3.264,9.984 3.072,8.832 L3.072,8.832 L9.216,8.832 L9.216,7.872 L3.072,7.872 L3.072,7.488 L3.072,6.528 L9.216,6.528 L9.216,5.376 L3.264,5.376 C3.456,4.224 3.84,3.264 4.416,2.688 L4.416,2.688 C5.184,1.92 6.144,1.536 7.296,1.536 L7.296,1.536 C8.256,1.536 9.216,1.728 9.792,2.113 L9.792,2.113 L10.176,0.768 C9.6,0.385 8.641,0 7.296,0 L7.296,0 C5.568,0 4.224,0.576 3.072,1.728 L3.072,1.728 Z" id="path-13"/>
    </defs>
    <g id="icon_myeshop/kostenstelle" stroke="none" stroke-width="1" fill="none" fill-rule="evenodd">
        <g id="Group-23" transform="translate(2.000000, 4.000000)">
            <g id="Group-6" transform="translate(9.000000, 6.000000)">
                <g id="Group-3">
                    <mask id="mask-2" fill="white">
                        <use xlink:href="#path-1"/>
                    </mask>
                    <g id="Clip-2"/>
                    <path d="M1,-0.0001 L32,-0.0001 C32.553,-0.0001 33,0.4349 33,0.9709 L33,32.0289 C33,32.5649 32.553,32.9999 32,32.9999 L1,32.9999 C0.448,32.9999 0,32.5649 0,32.0289 L0,0.9709 C0,0.4349 0.448,-0.0001 1,-0.0001" id="Fill-1" fill="#FFFFFF" mask="url(#mask-2)"/>
                </g>
                <mask id="mask-4" fill="white">
                    <use xlink:href="#path-3"/>
                </mask>
                <g id="Clip-5"/>
                <path d="M1.5,31.5 L31.5,31.5 L31.5,1.5 L1.5,1.5 L1.5,31.5 Z M32,34.5 L1,34.5 C-0.378,34.5 -1.5,33.391 -1.5,32.029 L-1.5,0.971 C-1.5,-0.392 -0.378,-1.5 1,-1.5 L32,-1.5 C33.379,-1.5 34.5,-0.392 34.5,0.971 L34.5,32.029 C34.5,33.391 33.379,34.5 32,34.5 L32,34.5 Z" id="Fill-4" fill="#818181" mask="url(#mask-4)"/>
            </g>
            <g id="Group-12" transform="translate(16.000000, 0.000000)">
                <g id="Group-9">
                    <mask id="mask-6" fill="white">
                        <use xlink:href="#path-5"/>
                    </mask>
                    <g id="Clip-8"/>
                    <path d="M1,-0.0001 L18,-0.0001 C18.553,-0.0001 19,0.4479 19,0.9999 L19,39.9999 C19,40.5529 18.553,40.9999 18,40.9999 L1,40.9999 C0.448,40.9999 0,40.5529 0,39.9999 L0,0.9999 C0,0.4479 0.448,-0.0001 1,-0.0001" id="Fill-7" fill="#FFFFFF" mask="url(#mask-6)"/>
                </g>
                <mask id="mask-8" fill="white">
                    <use xlink:href="#path-7"/>
                </mask>
                <g id="Clip-11"/>
                <path d="M1.5,39.5 L17.5,39.5 L17.5,1.5 L1.5,1.5 L1.5,39.5 Z M18,42.5 L1,42.5 C-0.378,42.5 -1.5,41.379 -1.5,40 L-1.5,1 C-1.5,-0.379 -0.378,-1.5 1,-1.5 L18,-1.5 C19.379,-1.5 20.5,-0.379 20.5,1 L20.5,40 C20.5,41.379 19.379,42.5 18,42.5 L18,42.5 Z" id="Fill-10" fill="#818181" mask="url(#mask-8)"/>
            </g>
            <g id="Group-19" transform="translate(0.000000, 3.000000)">
                <g id="Group-15">
                    <mask id="mask-10" fill="white">
                        <use xlink:href="#path-9"/>
                    </mask>
                    <g id="Clip-14"/>
                    <path d="M13.5,26.9999 C20.956,26.9999 27,20.9559 27,13.4999 C27,6.0439 20.956,-0.0001 13.5,-0.0001 C6.044,-0.0001 0,6.0439 0,13.4999 C0,20.9559 6.044,26.9999 13.5,26.9999" id="Fill-13" fill="#FFFFFF" mask="url(#mask-10)"/>
                </g>
                <g id="Group-18">
                    <mask id="mask-12" fill="white">
                        <use xlink:href="#path-11"/>
                    </mask>
                    <g id="Clip-17"/>
                    <path d="M13.5,1.4999 C6.883,1.4999 1.5,6.8829 1.5,13.4999 C1.5,20.1169 6.883,25.4999 13.5,25.4999 C20.117,25.4999 25.5,20.1169 25.5,13.4999 C25.5,6.8829 20.117,1.4999 13.5,1.4999 M13.5,28.4999 C5.229,28.4999 -1.5,21.7709 -1.5,13.4999 C-1.5,5.2289 5.229,-1.5001 13.5,-1.5001 C21.771,-1.5001 28.5,5.2289 28.5,13.4999 C28.5,21.7709 21.771,28.4999 13.5,28.4999" id="Fill-16" fill="#FF7000" mask="url(#mask-12)"/>
                </g>
            </g>
            <g id="Group-22" transform="translate(7.000000, 9.000000)">
                <mask id="mask-14" fill="white">
                    <use xlink:href="#path-13"/>
                </mask>
                <g id="Clip-21"/>
                <polygon id="Fill-20" fill="#FF7000" mask="url(#mask-14)" points="-5 19.4 15.176 19.4 15.176 -5 -5 -5"/>
            </g>
        </g>
    </g>
</svg>