<?xml version="1.0" encoding="utf-8"?>
<!-- Generator: Adobe Illustrator 17.1.0, SVG Export Plug-In . SVG Version: 6.00 Build 0)  -->
<!DOCTYPE svg PUBLIC "-//W3C//DTD SVG 1.1//EN" "http://www.w3.org/Graphics/SVG/1.1/DTD/svg11.dtd">
<svg version="1.1" id="Ebene_1" xmlns="http://www.w3.org/2000/svg" xmlns:xlink="http://www.w3.org/1999/xlink" x="0px" y="0px"
	 viewBox="0 0 30 30" enable-background="new 0 0 30 30" xml:space="preserve">
<g>
	<g>
		<path fill-rule="evenodd" clip-rule="evenodd" fill="#323232" d="M26.9,8.5c-0.3-0.4-0.9-0.4-1-0.4l-16,0L9.4,6
			C9.3,5.5,8.9,5,8.2,5H3.7C3.3,5,3,5.2,3,5.7v1.2c0,0.4,0.3,0.5,0.7,0.5h3.8l2.4,11.3l2.4,0H23c0.8,0,1-0.3,1.1-0.7l2.8-8.7
			C27.1,8.9,27,8.7,26.9,8.5z M11.5,20C10.1,20,9,21.1,9,22.5c0,1.4,1.1,2.5,2.5,2.5s2.5-1.1,2.5-2.5C14,21.1,12.9,20,11.5,20z
			 M22.5,20c-1.4,0-2.5,1.1-2.5,2.5c0,1.4,1.1,2.5,2.5,2.5c1.4,0,2.5-1.1,2.5-2.5C25,21.1,23.9,20,22.5,20z"/>
	</g>
</g>
</svg>
