<?xml version="1.0" encoding="utf-8"?>
<!-- Generator: Adobe Illustrator 17.1.0, SVG Export Plug-In . SVG Version: 6.00 Build 0)  -->
<!DOCTYPE svg PUBLIC "-//W3C//DTD SVG 1.1//EN" "http://www.w3.org/Graphics/SVG/1.1/DTD/svg11.dtd">
<svg version="1.1" id="Ebene_1" xmlns="http://www.w3.org/2000/svg" xmlns:xlink="http://www.w3.org/1999/xlink" x="0px" y="0px"
	 viewBox="0 0 30 30" enable-background="new 0 0 30 30" xml:space="preserve">
<g>
	<g>
		<path fill-rule="evenodd" clip-rule="evenodd" fill="#323232" d="M29,26.8l-8.3-8.3c3.4-4.5,3.1-11-1-15.1
			c-4.5-4.5-11.8-4.5-16.3,0c-4.5,4.5-4.5,11.8,0,16.3c3.8,3.8,9.6,4.4,14,1.8l8.5,8.5L29,26.8z M4.8,18.2c-3.7-3.7-3.7-9.7,0-13.4
			c3.7-3.7,9.7-3.7,13.4,0c3.7,3.7,3.7,9.7,0,13.4C14.5,21.9,8.5,21.9,4.8,18.2z"/>
	</g>
</g>
</svg>
